{"glyphs":{"0":{"ha":803,"x_min":72,"x_max":728,"o":"m 209 467 l 209 404 q 254 176 209 270 q 384 83 298 83 l 393 83 q 467 107 431 83 q 524 176 502 132 q 575 432 575 278 l 575 486 q 530 726 575 636 q 405 815 486 815 l 396 815 q 315 786 351 815 q 258 716 278 758 q 209 467 209 612 m 389 911 l 429 911 q 545 880 488 911 q 728 463 728 784 l 727 449 q 637 113 727 243 q 528 19 593 52 q 391 -14 463 -14 l 365 -14 q 248 18 304 -14 q 95 233 132 81 q 72 418 72 326 l 72 460 q 99 651 72 562 q 166 793 126 739 q 268 879 207 846 q 389 911 328 911 z "},"1":{"ha":576,"x_min":109,"x_max":458,"o":"m 109 755 l 109 762 q 163 821 109 787 q 334 899 291 899 l 345 899 q 389 875 378 899 q 400 775 400 850 l 399 736 q 397 709 397 709 l 393 490 l 393 462 l 391 406 q 391 332 391 406 q 393 258 391 271 q 428 158 399 204 q 458 77 458 111 q 420 22 458 43 q 324 2 382 2 l 311 2 q 194 35 244 2 q 165 86 165 54 q 197 160 165 118 q 238 240 229 202 q 247 450 247 277 q 227 673 247 623 q 176 717 214 706 q 109 755 109 736 z "},"2":{"ha":747,"x_min":90,"x_max":663,"o":"m 494 646 q 347 795 494 795 q 233 747 289 795 q 135 676 151 676 q 99 735 99 676 q 182 851 99 793 q 373 909 264 909 l 395 909 q 497 889 447 909 q 580 836 548 869 q 642 669 642 770 q 491 383 642 519 q 395 298 445 341 q 312 219 346 254 q 279 153 279 184 q 395 122 279 122 q 513 129 461 122 l 549 134 l 566 138 q 612 142 595 142 q 663 93 663 142 q 622 23 663 43 q 471 4 581 4 l 342 4 l 321 5 q 118 15 146 5 q 90 78 90 26 q 156 213 90 130 q 294 353 196 263 q 443 510 392 442 q 494 646 494 578 z "},"3":{"ha":739,"x_min":87,"x_max":655,"o":"m 376 911 q 602 731 602 911 q 553 575 602 648 q 505 500 505 501 q 545 460 505 488 q 620 381 585 433 q 655 264 655 330 q 636 149 655 199 q 570 56 617 98 q 460 -8 523 14 q 336 -31 398 -31 l 315 -31 q 157 8 227 -31 q 87 95 87 47 q 132 142 87 142 q 220 115 151 142 q 355 87 290 87 q 461 135 420 87 q 503 248 503 182 q 451 361 503 313 q 387 400 420 389 q 325 417 355 410 q 280 435 295 423 q 266 471 266 446 q 328 524 266 491 q 456 699 456 591 q 426 770 456 743 q 346 796 395 796 q 233 767 297 796 q 148 738 170 738 q 116 772 116 738 q 180 862 116 825 q 376 911 263 911 z "},"4":{"ha":778,"x_min":63,"x_max":690,"o":"m 454 722 q 452 729 454 729 q 383 630 449 729 q 246 432 317 532 q 175 325 175 332 q 198 318 175 318 l 231 318 l 236 319 l 293 319 q 424 326 410 319 q 438 368 438 334 q 439 386 439 380 l 441 422 l 441 435 l 444 484 q 444 503 444 494 l 450 619 l 450 631 l 453 677 l 454 706 l 454 722 m 517 -22 q 445 9 468 -22 q 421 115 421 40 q 378 185 421 161 q 224 221 314 221 l 209 222 q 157 222 194 222 q 99 235 121 222 q 63 296 63 256 q 386 790 63 359 q 518 900 469 900 q 580 869 568 900 q 589 659 589 848 q 603 419 589 469 q 645 337 618 370 q 671 313 652 329 q 690 286 690 297 l 690 279 q 648 196 690 236 q 606 142 606 156 l 610 94 q 517 -22 610 -22 z "},"5":{"ha":743,"x_min":85,"x_max":656,"o":"m 507 264 q 259 458 507 458 l 220 456 q 142 478 165 456 q 120 583 120 500 q 136 754 120 667 q 167 864 152 841 q 218 895 182 887 q 336 902 253 902 q 461 904 418 902 l 525 908 q 566 911 559 911 q 631 873 631 911 q 574 798 631 815 q 432 787 547 790 q 295 771 317 783 q 256 720 273 759 q 238 634 238 682 q 249 577 238 587 q 332 568 260 568 q 630 408 555 568 q 656 280 656 352 q 572 62 656 144 q 464 -5 526 18 q 337 -28 401 -28 l 315 -28 q 154 11 223 -28 q 85 99 85 50 q 129 147 85 147 q 213 117 148 147 q 345 87 279 87 q 459 136 410 87 q 507 264 507 184 z "},"6":{"ha":764,"x_min":74,"x_max":688,"o":"m 375 83 l 393 83 q 504 135 456 83 q 551 262 551 186 l 553 275 l 553 296 l 553 302 l 553 309 q 510 441 553 394 q 398 488 467 488 l 392 487 q 273 443 321 487 q 226 334 226 399 l 226 289 q 273 138 226 194 q 375 83 320 83 m 471 913 q 604 847 604 913 q 521 793 604 800 q 459 787 470 789 q 275 668 336 767 q 251 591 251 628 q 298 547 251 547 l 427 557 q 615 484 542 557 q 688 292 688 411 l 688 275 q 666 163 688 217 q 517 13 622 57 q 401 -13 456 -13 l 366 -13 q 250 14 307 -12 q 100 190 140 64 q 74 363 74 273 l 74 400 q 104 610 74 513 q 325 879 165 806 q 471 913 401 913 z "},"7":{"ha":707,"x_min":68,"x_max":643,"o":"m 342 17 q 263 -34 319 -34 q 207 18 207 -34 q 326 372 207 70 q 418 575 359 455 q 476 728 476 694 q 443 772 476 762 q 325 783 410 783 q 179 770 239 783 q 114 756 119 756 q 68 807 68 756 q 102 882 68 859 q 220 905 136 905 l 237 905 l 336 905 q 602 890 549 905 q 643 839 643 880 l 643 825 q 471 381 643 781 q 413 236 429 285 q 372 109 396 186 q 342 17 348 31 z "},"8":{"ha":760,"x_min":65,"x_max":675,"o":"m 235 731 l 235 711 q 284 602 235 652 q 395 553 334 553 l 399 553 q 488 606 450 553 q 526 716 526 658 l 526 722 q 489 819 526 778 q 390 861 452 861 l 370 861 q 276 824 317 861 q 235 731 235 787 m 544 233 l 544 258 q 495 374 544 326 q 356 444 426 444 l 334 444 q 229 372 279 444 q 197 259 197 326 l 196 253 q 242 131 196 181 q 359 81 288 81 l 383 81 q 498 127 453 81 q 544 233 544 172 m 650 718 q 576 551 650 637 q 541 503 541 511 q 562 479 541 496 q 675 256 675 387 l 675 241 q 597 64 675 137 q 497 5 556 26 q 385 -16 438 -16 l 338 -16 q 150 50 227 -16 q 85 134 104 87 q 65 222 65 181 l 65 252 q 163 449 65 354 q 203 492 203 489 q 172 533 203 496 q 101 714 101 615 q 179 880 101 814 q 380 946 258 946 l 396 946 q 579 885 509 946 q 650 718 650 823 z "},"9":{"ha":763,"x_min":73,"x_max":683,"o":"m 205 625 l 205 592 q 248 469 205 515 q 357 422 291 422 l 363 422 l 370 422 q 488 464 438 422 q 537 581 537 506 l 537 607 q 491 766 537 705 q 373 826 444 826 l 367 825 q 248 764 291 825 q 205 625 205 702 m 73 603 l 73 621 q 160 840 73 760 q 385 920 247 920 q 512 894 456 920 q 683 553 683 814 l 683 515 q 656 308 683 408 q 446 32 602 109 q 281 -11 361 -11 l 267 -11 q 186 6 218 -11 q 154 53 154 24 q 195 97 154 82 q 251 106 205 100 q 300 112 296 111 q 480 233 418 134 q 506 310 506 275 q 458 354 506 354 l 344 345 q 153 414 228 345 q 92 502 112 450 q 73 603 73 553 z "},"\u0000":{"ha":781,"x_min":36,"x_max":741,"o":"m 552 44 q 626 51 626 44 q 458 310 626 65 q 421 366 452 318 q 387 414 390 414 l 354 363 l 351 357 l 325 318 q 317 307 322 313 q 150 47 150 63 q 162 47 150 47 l 169 46 l 175 45 l 222 44 l 552 44 m 102 492 l 102 242 q 105 109 102 109 q 180 218 109 109 l 221 279 q 245 315 236 302 q 268 350 254 328 q 315 418 283 372 q 347 467 347 463 l 347 474 q 257 610 347 479 q 163 749 168 741 l 104 835 q 102 492 102 835 m 673 431 l 673 511 q 670 836 673 836 q 633 785 667 836 q 514 611 600 734 q 429 477 429 488 q 480 391 429 465 q 599 214 532 317 q 670 112 666 112 q 673 431 673 112 m 459 903 l 438 903 l 431 902 l 390 902 q 149 896 149 902 q 184 839 149 890 q 238 759 219 788 q 271 709 256 730 q 336 611 286 688 q 390 533 387 533 q 433 594 393 533 q 478 664 472 654 q 494 687 484 673 l 577 813 q 631 897 631 890 q 459 903 631 903 m 36 27 l 36 163 l 37 180 l 37 486 q 38 958 37 955 q 94 970 43 970 l 667 970 q 737 959 734 970 q 740 686 740 948 l 740 399 l 741 331 l 741 9 q 719 -17 741 -15 q 532 -20 698 -20 l 227 -20 q 43 -16 50 -20 q 36 27 36 -12 z "}," ":{"ha":380,"x_min":0,"x_max":0,"o":""},"!":{"ha":410,"x_min":119,"x_max":292,"o":"m 260 401 q 245 292 260 327 q 207 269 236 269 l 199 269 q 165 288 175 269 q 155 353 155 307 l 153 370 l 147 526 l 147 543 l 146 568 l 146 585 l 144 643 l 144 660 l 142 693 q 142 718 142 705 l 141 758 q 141 774 141 766 l 140 807 l 140 879 q 157 954 140 932 q 217 977 173 977 l 233 977 q 277 960 262 977 q 292 899 292 943 l 292 861 l 291 852 l 288 788 l 287 772 q 286 755 286 764 l 285 739 q 283 714 283 723 l 281 690 q 279 656 279 664 l 277 623 q 274 581 274 589 l 269 507 l 264 458 q 260 401 260 409 m 119 82 q 136 136 119 116 q 178 157 153 157 q 195 160 191 160 l 218 160 q 288 89 288 160 l 288 68 q 270 14 288 35 q 223 -7 252 -7 q 215 -9 218 -9 l 203 -10 l 191 -10 l 189 -9 l 182 -9 q 167 -8 177 -8 q 139 7 157 -8 q 121 50 121 22 l 119 67 l 119 82 z "},"\"":{"ha":517,"x_min":83,"x_max":437,"o":"m 145 995 l 163 995 q 214 950 214 995 l 214 920 l 214 916 l 210 868 l 210 863 l 207 833 q 199 776 199 784 q 178 671 199 713 q 138 652 169 652 l 130 652 q 100 673 106 652 q 94 735 94 693 l 94 781 l 92 808 l 92 817 l 83 937 l 83 945 q 96 983 83 971 q 145 995 110 995 m 364 994 l 390 994 q 437 946 437 994 l 437 929 l 437 924 q 437 916 437 920 l 433 873 q 429 837 430 852 q 424 797 427 821 q 420 768 420 772 q 404 678 420 715 q 364 654 393 654 l 347 654 q 320 679 327 654 q 313 826 313 705 l 306 924 l 306 954 q 364 994 306 994 z "},"#":{"ha":851,"x_min":73,"x_max":774,"o":"m 328 365 l 401 365 q 483 378 475 365 q 498 434 490 391 q 508 484 507 478 q 511 499 509 489 q 517 526 513 509 q 522 551 522 544 l 522 560 q 490 568 522 568 l 450 568 l 447 568 q 365 560 375 568 q 342 492 342 544 l 337 466 l 334 451 l 334 448 l 332 444 q 325 410 330 431 q 319 381 319 389 l 319 372 q 328 365 319 365 m 129 265 q 73 313 73 286 q 96 355 73 341 q 148 368 105 360 q 203 390 190 376 q 233 509 233 422 q 216 552 233 541 q 159 563 211 555 q 106 597 106 571 q 123 639 106 627 q 189 659 140 650 q 256 687 237 667 q 293 782 275 707 q 322 877 311 857 q 364 898 334 898 q 406 853 406 898 q 395 769 406 833 q 385 690 385 705 q 395 668 385 675 q 463 661 406 661 q 533 673 520 661 q 563 763 546 686 q 595 868 581 840 q 646 897 610 897 q 683 865 683 897 q 677 799 683 840 q 671 717 671 757 q 723 664 671 677 q 774 611 774 650 q 726 569 774 578 q 634 540 643 553 q 606 415 606 499 q 671 372 606 379 q 736 328 736 364 q 711 287 736 300 q 653 274 699 281 q 587 241 606 266 q 549 139 568 216 q 524 54 530 62 q 475 32 509 32 q 438 75 438 32 q 449 161 438 96 q 460 241 460 227 q 451 264 460 256 q 385 272 442 272 q 314 259 328 272 q 281 169 300 247 q 252 71 262 91 q 196 32 233 32 q 159 79 159 32 l 170 204 q 129 265 170 250 z "},"$":{"ha":759,"x_min":99,"x_max":678,"o":"m 354 822 q 344 844 354 844 l 338 844 l 334 843 q 254 798 300 843 q 225 723 225 768 l 225 704 q 252 619 225 650 q 334 564 299 564 l 340 564 q 352 706 352 564 l 352 761 l 353 772 q 353 783 353 778 l 354 801 l 354 822 m 422 192 q 433 102 422 102 l 436 102 l 439 102 q 529 146 495 102 q 563 235 563 190 l 563 248 q 519 366 563 317 q 435 416 476 416 l 432 416 q 420 390 420 416 q 418 366 418 374 l 416 345 l 416 306 l 417 301 q 417 293 417 297 l 418 285 l 418 281 l 422 231 q 422 222 422 227 l 422 218 l 422 192 m 634 768 q 589 729 634 729 q 536 762 577 729 q 472 795 496 795 q 438 766 449 795 q 427 651 427 737 q 445 541 427 566 q 533 483 452 532 q 646 384 613 434 q 678 255 678 335 q 534 35 678 109 q 484 14 527 32 q 431 -15 440 -4 q 413 -67 422 -25 q 376 -109 403 -109 q 336 -68 350 -109 q 306 -15 321 -28 q 230 22 291 -1 q 144 68 169 45 q 99 167 99 109 q 129 224 99 224 q 207 175 159 224 q 290 126 255 126 q 333 156 326 126 q 340 281 340 186 q 309 416 340 376 q 262 453 298 431 q 214 484 226 476 q 137 570 163 523 q 112 689 112 617 q 163 822 112 762 q 259 892 193 858 q 326 927 324 926 q 356 975 342 941 q 389 1009 370 1009 q 422 991 409 1009 q 486 922 462 937 q 534 899 491 918 q 595 863 577 880 q 634 768 634 827 z "},"%":{"ha":1099,"x_min":60,"x_max":1014,"o":"m 241 551 l 257 551 q 317 591 290 551 q 343 692 343 631 l 343 730 q 318 827 343 790 q 254 865 294 865 l 250 865 q 186 826 213 865 q 159 737 159 788 q 158 724 158 728 l 157 705 l 157 700 l 158 695 q 180 595 158 639 q 241 551 202 551 m 786 94 l 798 94 q 866 136 837 94 q 895 227 895 177 l 896 236 l 897 250 l 897 279 q 870 379 897 345 q 812 414 843 414 l 800 414 q 730 363 755 414 q 705 248 705 313 l 705 238 q 727 134 705 174 q 786 94 749 94 m 263 460 l 241 460 q 115 513 168 460 q 62 654 62 566 l 60 669 l 60 699 q 123 870 60 803 q 269 937 185 937 l 291 937 q 420 878 370 937 q 471 728 471 819 l 471 698 q 409 527 471 594 q 263 460 347 460 m 705 863 q 795 939 753 939 q 838 916 838 939 q 818 867 838 907 q 352 72 679 598 q 268 5 311 5 q 225 28 225 5 q 245 77 225 41 q 705 863 467 478 m 814 8 l 792 8 q 664 68 716 8 q 612 232 612 129 l 612 254 q 613 277 613 269 q 671 416 613 353 q 813 479 730 479 l 828 479 q 963 415 913 479 q 1014 261 1014 352 l 1014 231 q 956 71 1014 134 q 814 8 898 8 z "},"&":{"ha":957,"x_min":85,"x_max":846,"o":"m 433 867 l 415 867 q 352 835 380 867 q 324 766 324 803 l 324 737 q 326 718 326 725 q 358 634 326 687 q 400 581 390 581 l 403 581 q 478 652 439 581 q 506 733 506 702 l 508 754 l 508 758 l 507 762 q 485 834 507 801 q 433 867 463 867 m 379 93 l 390 93 q 493 121 441 93 q 545 172 545 149 l 545 176 l 418 340 q 333 442 340 442 l 325 442 q 245 370 298 442 q 214 290 214 330 l 213 279 l 213 267 l 214 262 q 260 144 214 195 q 379 93 307 93 m 353 -4 q 161 66 237 -4 q 106 143 128 97 q 85 235 85 189 l 85 255 q 187 457 85 355 q 243 539 243 513 q 218 610 243 545 q 192 717 192 675 q 251 862 192 800 q 402 924 309 924 l 421 924 q 545 871 496 924 q 593 742 593 819 q 563 606 593 724 q 534 453 534 488 q 567 398 534 418 q 646 378 601 378 q 673 397 658 378 q 796 470 733 470 q 824 435 824 470 q 789 347 824 428 q 755 221 755 267 q 800 116 755 175 q 846 50 846 56 q 806 31 846 31 q 768 37 805 31 l 753 39 q 711 43 724 43 q 614 33 699 43 q 467 9 528 23 q 353 -4 405 -4 z "},"'":{"ha":307,"x_min":94,"x_max":228,"o":"m 176 991 q 228 941 228 991 l 228 928 l 227 924 l 227 911 l 227 907 l 227 898 l 224 867 l 223 863 l 220 832 q 216 802 216 806 q 190 669 216 722 q 151 649 180 649 l 138 649 q 110 670 115 649 q 104 738 104 691 l 104 789 l 103 806 l 103 815 l 98 884 l 94 935 l 94 939 q 146 989 94 989 l 155 991 l 176 991 z "},"(":{"ha":486,"x_min":95,"x_max":418,"o":"m 95 423 q 115 613 95 509 q 279 966 158 832 q 379 1034 340 1034 q 418 1003 418 1034 q 357 899 418 1000 q 272 717 297 798 q 229 406 229 576 q 331 -33 229 138 q 404 -166 404 -154 q 363 -194 404 -194 q 264 -128 322 -194 q 165 31 207 -62 q 95 379 95 188 l 95 423 z "},")":{"ha":486,"x_min":74,"x_max":397,"o":"m 397 422 q 316 32 397 212 q 216 -124 278 -52 q 121 -195 154 -195 l 108 -195 q 74 -170 74 -195 q 131 -63 74 -151 q 218 113 189 25 q 263 431 263 250 q 221 738 263 612 q 142 902 196 812 q 89 1000 89 991 q 130 1033 89 1033 q 229 964 170 1033 q 377 638 340 831 q 397 437 397 535 l 397 422 z "},"*":{"ha":651,"x_min":131,"x_max":568,"o":"m 290 867 q 353 954 290 954 q 387 938 378 954 q 395 888 395 922 q 393 831 395 855 l 389 797 q 392 785 389 785 q 445 808 395 785 q 522 830 495 830 q 568 789 568 830 l 568 779 q 496 714 568 740 q 444 679 444 696 q 477 641 444 675 q 510 565 510 606 q 463 535 510 535 q 410 549 434 535 q 377 564 385 564 q 360 556 369 564 q 347 546 351 548 q 319 528 343 544 q 284 511 294 511 l 278 511 q 243 538 263 511 q 202 572 222 565 q 172 593 181 578 q 163 641 163 608 l 167 657 l 167 675 q 172 703 167 689 q 178 718 178 717 l 174 722 q 144 771 158 736 q 131 809 131 805 q 181 842 131 842 q 229 829 201 842 q 278 816 256 816 q 290 867 290 816 z "},"+":{"ha":730,"x_min":68,"x_max":662,"o":"m 662 414 q 642 362 662 370 q 524 353 623 353 q 420 345 425 353 q 416 235 416 336 q 406 118 416 134 q 360 101 397 101 l 349 101 q 313 127 319 101 q 310 240 310 141 q 306 345 310 340 q 201 351 301 351 q 84 358 100 351 q 68 390 68 365 l 68 401 q 93 448 68 441 q 210 454 117 454 q 307 462 302 454 q 311 564 311 470 q 319 680 311 659 q 367 702 328 702 q 412 685 406 702 q 418 566 418 668 q 424 460 418 465 q 528 456 429 456 q 644 451 627 456 q 662 426 662 446 l 662 414 z "},",":{"ha":355,"x_min":85,"x_max":267,"o":"m 85 -165 l 85 -159 q 100 -131 85 -151 q 140 -34 140 -76 q 118 12 140 -24 q 96 87 96 47 q 176 165 96 164 l 186 165 q 248 148 229 165 q 267 85 267 130 l 267 54 q 218 -104 267 -20 q 122 -188 169 -188 l 109 -188 q 85 -165 85 -188 z "},"-":{"ha":561,"x_min":75,"x_max":488,"o":"m 105 330 q 75 365 75 330 l 75 380 q 96 433 75 426 q 290 440 117 440 l 423 442 l 448 442 q 488 407 488 442 l 488 392 q 486 377 486 382 q 461 337 486 343 q 272 332 435 332 l 241 332 l 227 331 l 196 331 l 176 330 l 105 330 z "},".":{"ha":354,"x_min":89,"x_max":265,"o":"m 186 164 q 214 162 194 162 q 250 140 234 162 q 265 87 265 118 l 265 71 l 264 68 l 264 62 q 263 54 263 57 q 242 6 263 24 q 180 -12 220 -12 l 171 -12 q 91 52 91 -12 l 89 66 l 89 87 q 104 139 89 117 q 150 161 120 161 q 161 163 159 163 l 176 164 l 186 164 z "},"/":{"ha":559,"x_min":29,"x_max":539,"o":"m 411 920 q 494 1005 448 1005 q 539 977 539 1005 q 504 873 539 958 l 476 802 q 463 767 465 772 l 420 659 l 401 612 q 374 541 387 575 q 355 492 361 507 l 345 468 q 324 415 340 456 q 239 198 308 374 q 152 -21 171 22 q 74 -96 119 -96 q 29 -67 29 -96 q 68 47 29 -56 q 411 920 291 648 z "},":":{"ha":372,"x_min":98,"x_max":277,"o":"m 185 648 l 195 648 q 260 628 243 648 q 277 566 277 608 l 277 563 q 206 477 277 477 l 189 475 l 179 475 q 118 495 135 475 q 100 557 100 516 l 100 560 l 102 575 l 104 589 q 126 632 104 616 q 185 648 149 648 m 273 86 l 271 72 q 253 29 271 47 q 208 11 235 11 q 199 9 203 9 l 187 8 l 175 8 l 172 9 l 166 9 q 157 10 161 10 q 114 30 130 10 q 98 85 98 49 l 98 98 q 120 163 98 144 q 184 182 142 182 l 193 182 q 255 163 237 182 q 273 107 273 145 l 273 90 l 273 86 z "},";":{"ha":373,"x_min":97,"x_max":277,"o":"m 106 553 q 109 577 109 561 q 126 611 109 593 q 170 629 144 629 q 178 630 176 630 l 190 631 l 205 631 q 277 554 277 631 l 277 539 q 259 481 277 502 q 213 460 242 460 q 204 459 208 459 l 193 458 l 178 458 l 155 461 q 109 517 109 461 l 106 532 l 106 553 m 106 102 q 128 155 106 138 q 180 173 151 173 l 200 173 q 257 154 240 173 q 275 90 275 135 l 275 69 l 274 64 l 274 54 q 272 35 272 40 q 220 -103 272 -31 q 129 -174 168 -174 l 120 -174 q 97 -149 97 -174 l 97 -146 q 123 -100 97 -145 q 150 -32 150 -54 q 129 22 150 -9 q 108 79 108 54 l 106 88 l 106 102 z "},"<":{"ha":720,"x_min":69,"x_max":623,"o":"m 592 742 l 602 742 q 620 701 620 742 q 558 613 620 659 q 367 494 518 583 q 216 398 216 404 q 380 299 216 396 q 564 188 544 202 q 623 113 623 148 l 623 102 q 600 62 623 62 l 589 62 q 546 81 583 62 q 120 329 307 208 q 69 397 69 361 q 127 469 69 432 q 592 742 549 742 z "},"=":{"ha":750,"x_min":81,"x_max":660,"o":"m 612 569 q 660 534 660 569 l 660 522 l 659 515 q 631 472 659 477 q 365 469 612 469 l 351 469 l 338 468 l 264 468 l 237 467 l 124 467 q 82 508 82 467 l 83 515 q 117 565 83 559 q 377 568 138 568 l 532 569 l 612 569 m 136 226 q 81 261 81 226 l 81 274 l 81 281 q 116 324 81 319 q 382 328 140 328 l 504 329 l 611 329 q 659 294 659 329 l 659 281 q 633 233 659 237 q 357 228 606 228 l 336 228 l 323 227 l 262 227 l 242 227 l 182 227 l 162 226 l 136 226 z "},">":{"ha":716,"x_min":98,"x_max":647,"o":"m 117 62 q 98 102 98 62 q 150 182 98 142 q 332 298 161 191 q 503 407 503 405 q 346 502 503 408 q 169 610 189 595 q 99 702 99 661 q 119 744 99 744 l 129 744 q 595 476 172 744 q 647 416 647 443 l 647 405 q 590 334 647 371 q 127 62 168 62 l 117 62 z "},"?":{"ha":673,"x_min":86,"x_max":592,"o":"m 320 966 l 347 966 q 445 947 393 966 q 592 733 592 892 q 549 585 592 653 q 454 479 524 545 q 373 398 384 414 q 352 331 361 382 q 342 279 342 279 q 305 262 331 262 l 294 262 q 241 354 241 262 q 265 451 241 410 q 343 548 289 492 q 413 629 398 605 q 446 735 446 680 q 409 817 446 789 q 320 844 372 844 q 211 804 268 844 q 133 764 155 764 q 86 814 86 764 l 86 826 q 161 923 86 880 q 320 966 235 966 m 213 88 q 292 162 213 162 l 301 162 q 319 160 311 160 q 364 140 347 160 q 380 89 380 120 l 380 68 q 361 14 380 37 q 313 -9 342 -9 l 299 -11 l 284 -11 q 264 -9 276 -9 q 233 6 252 -9 q 215 47 215 22 l 213 62 l 213 88 z "},"@":{"ha":1177,"x_min":72,"x_max":1070,"o":"m 623 553 l 613 553 q 491 485 542 553 q 439 342 439 417 l 439 309 q 461 215 439 246 q 517 184 483 184 l 522 184 q 641 253 589 184 q 692 422 692 321 q 697 468 697 460 l 697 483 q 678 534 697 515 q 623 553 659 553 m 532 138 q 370 322 370 138 q 391 431 370 364 q 514 600 433 564 q 592 613 545 613 l 618 612 l 643 609 l 667 611 l 691 614 q 765 568 747 614 q 781 439 776 538 q 791 319 786 340 q 851 258 804 258 l 873 264 q 926 328 905 280 q 949 441 948 376 q 854 682 949 585 q 604 779 760 779 q 437 741 511 779 q 237 522 295 668 q 206 345 206 443 q 243 170 206 247 q 637 -52 348 -52 q 707 -48 666 -52 l 738 -45 q 803 -40 781 -40 q 826 -54 826 -40 q 744 -116 826 -90 q 587 -141 663 -141 l 547 -141 q 359 -104 451 -141 q 104 160 172 -30 q 72 362 72 250 q 115 577 72 474 q 423 868 208 797 q 614 898 512 898 q 799 865 717 898 q 1027 661 961 800 q 1070 479 1070 570 q 1048 328 1070 388 q 908 157 1003 207 q 811 130 856 130 q 719 146 766 130 q 650 163 671 163 l 623 157 l 594 149 q 532 138 553 138 z "},"A":{"ha":911,"x_min":70,"x_max":842,"o":"m 466 387 q 569 407 569 387 l 569 411 q 561 451 569 418 q 551 489 552 484 q 547 501 549 495 q 527 584 545 507 q 481 727 509 661 q 448 793 452 793 q 425 745 444 793 q 311 408 311 460 l 311 404 q 380 387 311 387 l 426 387 l 432 388 l 454 387 l 466 387 m 842 117 l 842 103 q 809 33 842 64 q 744 16 791 16 q 677 41 697 16 q 651 134 675 44 q 597 257 627 223 q 479 292 567 292 q 281 263 313 292 q 220 141 250 234 q 205 76 210 107 q 195 36 201 45 q 148 18 183 18 q 91 47 112 18 q 70 113 70 77 q 95 185 70 149 q 131 251 119 222 q 230 537 142 279 q 348 859 317 795 q 400 940 378 922 q 456 957 423 957 q 517 933 490 957 q 575 842 544 909 q 787 245 576 840 q 820 178 798 213 q 842 117 842 142 z "},"B":{"ha":855,"x_min":100,"x_max":777,"o":"m 279 600 q 292 550 279 559 q 345 541 304 541 l 361 541 l 366 542 l 388 543 l 421 545 q 541 598 488 545 q 579 706 579 637 l 579 719 q 530 828 579 791 q 398 865 481 865 l 370 865 q 290 846 300 865 q 279 690 279 827 l 279 679 l 279 656 l 279 600 m 279 172 q 280 134 279 172 q 370 98 280 98 l 422 98 q 575 145 521 98 q 630 267 630 191 l 630 294 q 574 417 630 373 q 431 461 517 461 l 367 461 q 298 451 315 461 q 281 408 281 441 q 278 374 278 384 l 278 358 l 277 339 l 277 203 l 278 197 l 279 172 m 414 954 q 643 893 565 954 q 720 728 720 833 q 648 553 720 623 q 610 512 610 515 q 626 500 610 509 l 639 493 q 739 406 702 460 q 777 278 777 351 l 777 261 q 745 141 776 194 q 551 13 686 43 q 387 -2 483 -2 l 322 -2 l 306 -1 q 136 7 170 -1 q 102 46 102 16 q 117 92 102 56 q 131 243 131 129 l 131 696 q 116 852 131 810 q 100 899 100 895 l 100 909 q 133 940 100 931 q 251 949 165 949 l 267 950 q 299 951 283 951 l 332 952 l 414 954 z "},"C":{"ha":863,"x_min":70,"x_max":793,"o":"m 365 808 q 229 468 229 728 q 387 132 229 207 q 516 109 435 109 q 713 176 597 109 q 765 195 744 195 q 793 158 793 195 q 769 105 793 138 q 705 49 745 73 q 485 -7 609 -7 l 463 -7 q 298 26 376 -7 q 94 270 149 91 q 70 441 70 351 l 70 464 q 98 656 70 562 q 315 918 154 841 q 514 958 400 958 q 750 870 698 958 q 772 806 772 833 q 730 747 772 747 q 672 778 718 747 q 581 824 627 809 q 477 840 535 840 q 365 808 420 840 z "},"D":{"ha":943,"x_min":104,"x_max":864,"o":"m 697 458 l 697 505 q 675 654 697 585 q 412 861 611 861 l 411 861 l 381 861 q 289 825 299 861 q 283 630 283 807 l 283 393 l 283 351 l 283 245 l 283 235 l 284 204 l 286 163 q 307 115 286 130 q 394 101 329 101 l 404 102 q 669 288 604 102 q 697 458 697 371 m 140 715 q 139 768 139 730 q 122 848 139 806 q 104 896 104 890 l 104 907 q 147 939 104 932 q 370 954 231 954 l 418 954 q 744 837 627 954 q 833 688 803 778 q 864 499 864 599 l 863 482 q 827 274 863 369 q 571 26 758 87 q 370 1 492 1 l 339 1 q 148 13 216 1 q 107 45 107 20 q 123 96 107 61 q 141 173 138 132 q 144 451 144 214 l 143 483 l 143 577 l 140 701 l 140 715 z "},"E":{"ha":800,"x_min":98,"x_max":718,"o":"m 438 553 l 539 570 q 612 504 612 570 q 595 441 612 465 q 554 418 578 418 q 489 426 530 418 q 422 434 448 434 q 309 410 334 434 q 284 293 284 385 q 309 156 284 201 q 407 111 334 111 q 581 125 507 111 q 668 139 654 139 q 718 101 718 139 l 718 84 q 645 12 718 27 q 393 1 591 1 l 368 1 q 152 16 205 1 q 98 66 98 31 l 98 85 l 102 104 l 114 142 q 129 388 129 200 l 140 688 q 136 799 140 779 q 122 846 132 819 q 113 897 113 872 q 437 956 113 956 l 587 956 q 697 880 697 956 q 682 843 697 856 q 645 831 667 831 q 563 837 622 831 q 432 842 503 842 q 333 808 360 842 q 297 645 297 762 q 327 573 297 594 q 438 553 357 553 z "},"F":{"ha":760,"x_min":107,"x_max":699,"o":"m 202 19 q 107 110 107 19 q 120 157 107 123 q 137 215 133 191 q 141 323 141 238 l 143 426 l 146 610 q 129 833 146 782 q 112 888 112 884 q 164 928 112 920 q 584 956 337 956 l 604 956 q 699 888 699 956 l 699 873 q 653 829 699 829 q 589 839 650 829 q 445 848 528 848 q 333 815 361 848 q 304 662 304 783 q 323 572 304 601 q 410 544 342 544 q 475 551 436 544 q 526 558 513 558 q 585 533 564 558 q 607 466 607 508 q 542 411 607 411 l 511 414 q 460 415 490 415 q 389 399 431 415 q 332 360 347 382 q 297 167 297 311 l 301 75 q 275 35 301 51 q 202 19 248 19 z "},"G":{"ha":926,"x_min":73,"x_max":820,"o":"m 626 163 q 647 183 626 163 q 668 265 668 203 q 633 370 668 327 q 597 416 597 414 q 667 440 597 440 q 778 424 736 440 q 820 376 820 407 l 820 360 q 806 177 820 258 q 779 75 793 96 q 696 22 758 42 q 519 -12 594 -12 l 496 -12 q 318 26 398 -12 q 190 119 238 64 q 107 262 142 174 q 73 452 73 350 l 73 479 q 103 667 73 576 q 331 924 162 850 q 509 960 415 960 l 535 960 q 726 926 661 960 q 792 830 792 891 q 748 768 792 768 l 650 810 q 519 837 585 837 q 312 743 389 837 q 234 481 234 650 q 255 326 234 397 q 515 122 316 122 q 626 163 585 122 z "},"H":{"ha":973,"x_min":99,"x_max":882,"o":"m 686 760 l 671 867 q 706 926 671 907 q 791 946 742 946 q 861 929 840 946 q 882 895 882 912 l 882 873 l 876 852 l 867 832 l 859 811 q 848 568 848 773 l 846 456 q 845 399 846 437 l 843 342 q 841 220 841 257 q 846 162 841 183 q 864 112 851 142 q 876 68 876 82 q 853 19 876 32 q 781 6 829 6 q 702 29 732 6 q 671 73 671 52 q 677 123 671 95 q 687 177 683 151 q 690 300 690 203 q 654 422 690 398 q 533 439 628 439 q 314 402 347 439 q 288 231 288 373 q 291 156 288 178 l 294 134 l 298 115 q 302 71 302 92 q 276 32 302 50 q 197 14 250 14 q 99 74 99 14 q 124 158 99 75 q 138 480 138 205 l 139 508 q 140 569 140 547 q 141 670 141 591 q 136 775 141 749 q 116 833 131 801 q 102 883 102 865 q 196 941 102 941 q 274 922 245 941 q 302 878 302 903 q 296 830 302 871 q 289 728 289 789 q 325 575 289 601 q 550 549 360 549 q 668 586 650 549 q 686 760 686 624 z "},"I":{"ha":460,"x_min":99,"x_max":361,"o":"m 257 3 l 218 3 q 133 20 166 3 q 99 58 99 37 q 122 123 99 79 q 153 222 145 167 q 161 490 161 278 q 154 750 161 702 q 123 833 146 798 q 100 893 100 869 q 136 935 100 918 q 235 952 172 952 l 261 952 q 337 934 313 952 q 361 897 361 916 l 361 888 q 343 841 361 876 q 319 749 326 806 q 313 448 313 692 q 316 176 313 203 q 339 113 319 148 q 359 55 359 77 q 329 18 359 33 q 257 3 298 3 z "},"J":{"ha":603,"x_min":27,"x_max":508,"o":"m 193 -79 l 178 -79 q 73 -56 118 -79 q 27 2 27 -33 l 27 15 q 46 55 27 36 q 102 73 64 73 l 166 68 q 239 104 206 68 q 290 193 271 140 q 326 509 326 294 l 325 526 q 324 609 324 542 q 311 729 324 677 q 275 823 298 782 q 252 888 252 863 q 289 934 252 912 q 393 956 325 956 l 408 956 q 478 934 448 956 q 508 878 508 913 q 502 836 508 865 q 489 729 496 806 q 482 583 482 651 l 481 550 q 480 517 480 534 l 479 485 l 477 386 q 411 45 477 148 q 315 -46 374 -12 q 193 -79 256 -79 z "},"K":{"ha":897,"x_min":106,"x_max":833,"o":"m 268 40 q 251 28 268 40 q 170 16 234 16 q 106 69 106 16 q 116 110 106 81 q 133 173 125 138 q 141 465 141 207 q 134 768 141 724 q 118 843 127 812 q 109 892 109 873 q 198 943 109 943 q 274 923 241 943 q 308 866 308 903 q 303 819 308 848 l 298 787 q 296 685 296 764 q 304 587 296 606 q 337 567 313 567 q 496 730 361 567 q 559 811 546 790 q 592 866 573 833 q 620 909 610 899 q 713 941 648 941 q 777 902 777 941 q 642 735 777 896 q 506 530 506 574 q 620 342 506 507 q 783 112 734 176 q 833 35 833 48 q 776 8 833 8 l 753 8 q 653 48 692 8 q 570 177 648 54 q 465 334 492 300 q 366 406 407 406 q 313 346 333 406 q 293 195 293 286 l 302 113 q 268 40 302 65 z "},"L":{"ha":755,"x_min":95,"x_max":720,"o":"m 100 69 q 109 104 100 78 q 124 157 119 130 q 129 258 129 183 l 131 361 q 131 579 131 361 q 129 763 131 736 q 111 828 126 790 q 95 891 95 865 q 120 935 95 918 q 184 953 145 953 l 201 953 q 286 932 252 953 q 319 874 319 912 q 310 832 319 859 q 292 773 300 806 q 284 470 284 741 q 298 164 284 199 q 343 121 311 130 q 448 113 376 113 q 553 124 519 113 q 622 149 587 135 q 673 163 656 163 q 720 102 720 163 l 720 86 q 682 14 720 35 q 573 0 655 0 l 435 0 l 418 1 l 401 1 q 150 12 200 1 q 100 69 100 22 z "},"M":{"ha":1185,"x_min":99,"x_max":1087,"o":"m 888 656 q 873 665 884 665 q 761 431 862 665 q 642 169 659 196 q 576 121 610 121 q 511 180 541 121 q 403 443 492 218 q 294 667 315 667 q 280 649 286 667 q 246 196 246 536 q 226 74 246 105 q 152 43 205 43 q 99 97 99 43 q 117 154 99 103 q 139 267 135 205 q 155 623 155 500 q 149 794 155 745 l 144 825 q 137 880 137 865 q 155 909 137 895 q 208 924 173 924 q 342 850 286 924 q 480 585 382 798 q 599 372 578 372 l 614 395 l 718 606 q 846 848 817 806 q 993 927 901 927 q 1040 915 1021 927 q 1059 880 1059 902 l 1056 857 l 1052 829 q 1048 765 1048 800 l 1048 694 l 1049 621 q 1050 510 1049 583 l 1050 363 q 1064 161 1050 209 l 1074 136 q 1087 87 1087 99 q 1003 31 1087 31 q 925 81 955 31 q 909 153 909 107 l 913 277 q 888 656 913 589 z "},"N":{"ha":987,"x_min":98,"x_max":903,"o":"m 738 861 q 819 924 738 924 q 880 899 856 924 q 903 843 903 875 q 887 765 903 811 q 865 665 871 720 q 860 473 860 611 l 859 444 q 859 290 859 416 q 848 81 859 164 q 794 29 842 29 q 677 116 746 29 q 482 412 656 142 q 275 682 308 682 q 254 286 254 682 q 259 182 254 242 q 265 118 265 122 q 233 48 265 77 q 157 20 201 20 q 98 62 98 20 q 115 130 98 88 q 142 459 142 198 l 142 488 l 144 547 q 146 692 146 606 q 130 834 146 779 q 115 891 115 890 q 163 924 115 924 q 347 821 260 924 q 573 508 434 719 q 726 298 713 298 q 751 679 751 298 q 745 820 751 781 q 738 861 738 860 z "},"O":{"ha":971,"x_min":74,"x_max":891,"o":"m 222 486 l 222 451 q 280 203 222 299 q 365 116 314 146 q 458 85 415 85 l 490 85 q 587 114 542 85 q 704 291 671 168 q 726 465 726 375 l 726 488 q 726 494 726 491 q 709 637 726 564 q 591 834 677 779 q 488 865 541 865 l 467 865 q 372 838 420 865 q 245 661 284 789 q 222 486 222 584 m 891 509 l 891 463 q 861 271 891 368 q 648 20 803 89 q 478 -17 564 -17 l 463 -17 q 176 115 288 -17 q 102 259 130 171 q 74 440 74 347 l 74 471 q 102 668 74 570 q 190 834 130 766 q 478 963 302 963 l 509 963 q 654 930 578 963 q 864 684 807 866 q 891 509 891 599 z "},"P":{"ha":821,"x_min":113,"x_max":772,"o":"m 296 509 q 311 471 296 484 q 367 458 326 458 l 410 458 q 428 460 422 460 q 556 516 500 460 q 612 663 612 572 l 612 692 q 559 823 612 774 q 410 871 507 871 l 391 871 q 374 870 379 870 q 306 842 318 870 q 297 654 297 821 l 296 641 l 296 613 l 296 593 l 296 509 m 207 18 l 193 18 q 134 35 155 18 q 113 76 113 53 q 132 150 113 100 q 150 262 150 201 l 151 293 q 152 324 152 309 l 153 340 q 153 371 153 355 l 155 433 l 155 555 l 155 601 q 155 646 155 623 l 154 675 q 153 704 153 690 q 148 785 153 718 q 137 876 143 852 q 132 910 132 900 q 174 947 132 938 q 412 962 248 962 l 461 962 q 750 804 681 962 q 772 695 772 754 l 772 678 q 749 571 772 626 q 604 420 707 466 q 488 386 566 404 q 374 344 411 368 q 303 233 303 297 l 321 116 q 289 47 321 77 q 207 18 257 18 z "},"Q":{"ha":994,"x_min":61,"x_max":893,"o":"m 491 865 l 468 865 q 366 838 414 865 q 241 661 277 787 q 217 492 217 579 l 217 456 q 238 307 217 378 q 288 194 258 236 q 363 126 317 153 q 456 100 408 100 l 475 100 q 678 229 591 100 q 745 475 745 327 l 745 487 q 725 648 745 577 q 676 762 704 720 q 599 835 648 805 q 491 865 550 865 m 767 36 q 830 -46 767 5 q 893 -109 893 -98 q 867 -137 893 -120 q 790 -153 842 -153 l 774 -153 q 483 -56 697 -153 q 217 90 269 42 q 101 266 142 159 q 61 485 61 372 l 61 505 q 165 831 61 705 q 293 931 216 893 q 446 968 370 968 l 484 968 q 651 933 570 968 q 867 677 813 862 q 888 487 888 608 q 817 146 888 283 q 767 36 767 51 z "},"R":{"ha":881,"x_min":102,"x_max":801,"o":"m 345 488 l 362 488 q 532 537 469 488 q 595 669 595 587 l 595 703 q 548 820 595 776 q 415 863 500 863 l 391 863 l 385 863 l 362 861 q 345 860 350 860 q 288 805 288 860 l 286 787 l 284 762 q 284 750 284 756 l 283 743 l 283 712 l 283 693 l 283 579 l 282 560 q 294 500 282 513 q 345 488 305 488 m 137 732 q 136 789 136 751 q 130 865 136 827 q 123 913 123 904 q 176 949 123 939 q 361 958 229 958 l 404 958 q 728 802 663 958 q 745 700 745 760 q 721 590 745 639 q 649 491 697 542 q 602 407 602 441 q 660 271 602 374 q 747 138 719 168 q 801 59 801 81 l 801 47 q 751 15 801 15 l 734 15 q 650 56 688 15 q 555 200 627 79 q 474 330 482 321 q 381 378 431 378 q 305 324 331 378 q 292 245 292 298 q 301 146 292 192 q 310 94 310 100 q 278 35 310 54 q 200 17 247 17 q 135 31 153 17 q 102 100 102 56 q 118 153 102 117 q 138 219 134 189 q 142 359 142 250 l 142 551 l 141 572 q 140 612 140 592 l 138 692 l 137 732 z "},"S":{"ha":775,"x_min":82,"x_max":706,"o":"m 391 -7 q 253 8 328 -7 q 147 42 178 24 q 99 93 117 60 q 82 156 82 126 q 96 203 82 186 q 127 220 111 220 q 191 181 144 220 q 284 123 237 142 q 399 103 330 103 q 512 140 469 103 q 555 243 555 176 q 477 365 555 311 q 333 438 455 380 q 172 537 211 496 q 115 620 132 578 q 98 722 98 663 q 188 899 98 829 q 430 964 269 964 q 596 935 529 964 q 647 889 627 921 q 668 829 668 857 q 625 764 668 764 q 542 810 613 764 q 399 857 471 857 q 284 824 328 857 q 240 731 240 790 q 298 626 240 672 q 456 544 329 601 q 629 440 583 486 q 691 351 675 393 q 706 253 706 309 q 682 149 706 197 q 513 11 635 49 q 395 -7 456 -7 q 391 -7 393 -7 z "},"T":{"ha":805,"x_min":46,"x_max":780,"o":"m 780 874 q 741 810 780 810 q 684 821 726 810 q 602 833 643 833 q 496 765 512 833 q 482 429 482 708 l 480 296 l 480 228 q 485 168 480 188 q 501 118 490 147 q 511 72 511 89 q 483 20 511 38 q 402 1 454 1 l 385 1 q 319 20 348 1 q 290 64 290 39 q 298 113 290 90 l 303 126 l 309 140 q 324 184 315 154 q 332 294 332 214 l 333 313 q 334 351 334 332 l 335 389 l 337 543 q 326 777 337 735 q 241 830 311 830 q 146 812 200 830 q 79 794 92 794 q 46 863 46 794 q 105 942 46 932 q 495 955 188 955 l 684 955 q 758 935 736 955 q 780 874 780 916 z "},"U":{"ha":945,"x_min":87,"x_max":865,"o":"m 193 934 q 282 862 282 934 l 281 846 l 276 810 q 273 722 273 779 l 273 582 q 300 224 273 288 q 485 102 350 103 q 608 143 561 102 q 675 242 655 183 q 706 663 706 330 q 701 831 706 785 q 696 890 696 877 q 766 938 696 938 l 786 938 q 836 916 819 938 q 865 848 865 879 l 865 827 q 849 768 865 812 q 832 685 834 725 q 829 476 829 644 q 829 458 829 467 q 818 241 829 304 q 764 117 806 174 q 460 3 679 3 q 136 266 177 3 q 126 461 126 332 q 123 663 126 591 q 103 779 120 734 q 87 842 87 823 q 122 918 87 888 q 193 934 140 934 z "},"V":{"ha":886,"x_min":43,"x_max":850,"o":"m 342 550 q 467 210 448 210 q 629 650 487 210 q 663 772 657 739 q 674 846 669 806 q 686 900 680 886 q 784 948 710 948 q 834 937 819 948 q 850 892 850 926 q 807 787 850 859 q 686 466 795 766 q 548 101 578 165 q 498 20 518 36 q 447 4 478 4 q 396 19 416 4 q 346 101 376 35 q 232 421 345 104 q 82 792 120 738 q 43 880 43 847 q 63 924 43 912 q 124 935 83 935 q 197 918 165 935 q 238 880 228 901 q 258 817 249 859 q 282 730 267 776 l 296 691 q 309 652 298 684 l 342 550 z "},"W":{"ha":1281,"x_min":88,"x_max":1202,"o":"m 901 297 q 1023 630 939 297 q 1080 840 1072 819 q 1156 913 1110 913 q 1202 850 1202 913 q 1175 723 1202 817 q 1100 443 1148 629 q 1026 188 1052 256 q 956 86 1000 119 q 915 67 930 67 q 820 136 859 67 q 714 384 780 205 q 643 563 649 563 q 566 380 637 563 q 469 153 495 197 q 372 75 425 75 q 336 89 355 75 q 264 192 290 121 q 163 536 238 262 q 88 833 88 810 l 88 853 q 128 905 88 905 q 192 887 168 905 q 237 826 215 869 q 321 551 244 811 q 417 291 397 291 q 487 468 440 291 q 544 727 534 644 q 557 820 554 809 q 640 882 578 882 q 743 818 716 882 q 772 707 758 783 q 837 465 787 632 q 901 297 887 297 z "},"X":{"ha":890,"x_min":73,"x_max":821,"o":"m 821 51 q 709 9 821 9 q 616 43 646 9 q 593 91 606 54 q 550 180 580 129 q 432 355 448 355 q 311 193 406 355 q 260 83 271 123 q 241 33 248 42 q 145 4 217 4 q 73 53 73 4 q 119 124 73 74 q 206 237 164 174 q 343 474 343 443 q 218 707 343 520 q 149 804 168 783 q 84 901 84 878 q 199 939 84 939 q 293 904 259 939 q 316 853 304 892 q 354 767 327 814 q 459 619 439 619 q 567 759 479 619 q 619 865 608 825 q 640 917 630 905 q 724 949 668 949 q 795 938 780 949 q 810 907 810 928 q 767 839 810 886 q 673 718 723 793 q 549 498 549 531 q 673 264 549 465 q 774 125 726 178 q 821 51 821 73 z "},"Y":{"ha":840,"x_min":58,"x_max":801,"o":"m 623 905 q 726 949 652 949 q 801 912 801 949 q 762 836 801 891 q 680 692 722 780 q 546 418 549 427 q 497 161 497 296 q 507 107 497 141 q 516 63 516 73 q 489 12 516 30 q 412 -7 462 -7 q 338 11 362 -7 q 315 66 315 28 q 328 113 315 78 q 350 177 341 147 q 358 283 358 206 q 318 443 358 359 q 228 611 312 455 q 123 795 143 768 q 58 899 58 880 q 146 934 58 934 q 261 889 235 934 q 275 844 267 880 q 353 668 283 808 q 439 528 424 528 q 564 726 467 528 q 604 839 591 783 q 623 905 617 895 z "},"Z":{"ha":827,"x_min":80,"x_max":763,"o":"m 294 150 q 314 119 294 130 q 446 109 334 109 q 629 133 557 109 q 713 158 700 158 q 763 111 763 158 q 747 51 763 74 q 688 14 732 27 q 410 1 645 1 l 338 1 q 115 15 149 1 q 80 75 80 28 q 303 459 80 121 q 527 813 527 798 q 504 838 527 829 q 391 847 480 847 q 268 839 302 847 q 193 818 233 830 q 132 805 153 805 q 90 875 90 805 q 142 943 90 922 q 322 956 175 956 l 468 956 q 696 941 635 956 q 736 894 736 932 q 515 505 736 826 q 294 150 294 184 z "},"[":{"ha":502,"x_min":117,"x_max":441,"o":"m 441 1009 l 441 998 q 366 948 441 964 q 276 886 292 932 q 251 415 251 813 q 263 -23 251 16 q 298 -79 276 -63 q 378 -102 301 -81 q 431 -145 431 -116 q 416 -176 431 -168 q 356 -184 402 -184 l 236 -184 q 140 -157 157 -184 q 117 26 117 -121 l 117 60 l 118 77 l 120 248 l 120 282 l 121 299 l 121 334 l 123 437 q 136 951 123 893 q 171 1021 150 1008 q 249 1033 191 1033 l 266 1034 q 300 1034 283 1034 l 386 1036 q 441 1009 441 1036 z "},"\\":{"ha":571,"x_min":36,"x_max":534,"o":"m 534 -64 l 534 -75 q 493 -98 534 -98 l 481 -98 q 408 -19 442 -98 q 80 841 356 98 q 36 981 36 960 q 77 1002 36 1002 l 89 1002 q 164 920 130 1002 q 284 609 199 838 q 452 164 370 380 q 534 -64 534 -52 z "},"]":{"ha":505,"x_min":67,"x_max":391,"o":"m 391 867 l 391 783 l 390 765 l 389 731 l 389 696 l 387 576 l 387 524 l 387 507 l 387 472 l 385 420 q 366 -135 385 -77 q 325 -178 355 -171 q 186 -185 294 -185 l 135 -186 q 67 -155 67 -186 q 143 -99 67 -117 q 234 -32 219 -81 q 257 443 257 43 q 245 882 257 843 q 170 945 229 932 q 79 1000 79 964 q 143 1035 79 1035 l 279 1035 q 363 1013 346 1035 q 391 867 391 980 z "},"^":{"ha":703,"x_min":85,"x_max":616,"o":"m 616 548 l 616 541 q 576 522 616 522 q 503 564 536 522 q 420 693 486 586 q 350 800 355 800 q 283 695 349 800 q 210 580 218 591 q 132 520 164 520 l 123 520 q 85 539 85 520 q 287 887 85 591 q 355 932 317 932 q 420 891 393 932 q 597 589 425 886 q 616 548 616 557 z "},"_":{"ha":732,"x_min":27,"x_max":700,"o":"m 27 -116 l 27 -101 q 61 -54 27 -59 q 378 -50 88 -50 l 621 -48 q 686 -54 673 -48 q 700 -86 700 -60 l 700 -94 q 673 -140 700 -134 q 349 -145 647 -145 l 250 -145 l 235 -146 l 129 -146 l 106 -146 l 99 -146 q 27 -116 27 -146 z "},"`":{"ha":461,"x_min":82,"x_max":344,"o":"m 82 954 l 82 964 q 132 997 82 997 l 147 997 q 225 957 190 997 q 344 783 344 821 l 344 777 q 313 755 344 755 l 306 755 q 177 839 272 755 q 82 954 82 922 z "},"a":{"ha":714,"x_min":54,"x_max":640,"o":"m 296 85 l 317 85 q 429 140 380 85 q 455 251 455 170 l 456 260 l 456 277 q 414 328 456 328 l 392 328 l 357 325 l 338 323 q 236 288 276 323 q 196 205 196 253 l 196 181 q 222 115 196 144 q 296 85 248 85 m 640 53 q 548 7 640 7 q 489 24 532 7 q 434 41 446 41 q 361 17 423 41 q 251 -6 298 -6 l 235 -6 q 108 42 161 -6 q 54 175 54 91 q 271 388 54 346 q 416 418 411 416 q 449 479 449 435 q 421 554 449 524 q 344 584 393 584 q 230 551 296 584 q 140 518 164 518 q 96 578 96 518 q 165 650 96 616 q 323 684 235 684 l 357 684 q 475 659 424 684 q 554 591 527 634 q 593 315 593 531 q 598 163 593 193 q 621 103 603 134 q 640 53 640 73 z "},"b":{"ha":762,"x_min":84,"x_max":693,"o":"m 364 88 l 385 88 q 499 153 452 88 q 547 330 547 217 l 547 376 q 507 532 547 474 q 409 590 467 590 l 389 590 q 276 534 321 590 q 245 420 245 495 q 243 393 243 400 l 241 379 l 241 365 l 241 351 l 240 329 l 240 279 q 269 128 240 168 q 364 88 298 88 m 108 181 l 108 302 l 109 318 l 109 397 l 109 413 l 109 445 l 110 476 q 110 572 110 524 l 111 604 l 111 636 l 111 668 l 111 700 q 108 822 111 795 q 95 881 105 849 q 84 923 84 913 l 84 936 q 144 981 84 981 l 158 981 q 234 946 218 981 q 250 804 250 911 q 257 667 250 698 q 286 637 264 637 q 350 649 301 637 q 448 662 399 662 q 548 635 496 662 q 631 559 599 608 q 693 338 693 466 l 692 322 l 692 306 q 667 181 692 241 q 508 18 616 60 q 404 -1 458 -1 l 389 -1 q 301 14 350 -1 q 227 28 252 28 l 181 22 q 109 78 122 22 q 108 181 108 84 z "},"c":{"ha":656,"x_min":58,"x_max":597,"o":"m 363 -7 l 348 -7 q 227 18 283 -7 q 79 178 118 66 q 58 314 58 242 l 58 330 q 81 475 58 410 q 248 653 127 600 q 389 678 305 678 q 527 645 473 678 q 581 563 581 611 q 528 511 581 511 q 483 528 513 511 q 449 548 453 546 q 353 570 401 570 q 245 509 288 570 q 202 334 202 448 q 253 162 202 220 q 384 104 303 104 q 494 123 427 104 q 570 142 561 142 q 597 113 597 142 q 520 33 597 73 q 363 -7 444 -7 z "},"d":{"ha":771,"x_min":71,"x_max":680,"o":"m 503 455 q 473 552 503 515 q 376 589 444 589 l 370 589 l 363 589 q 247 522 292 589 q 201 338 201 455 l 201 307 q 242 144 201 201 q 345 87 284 87 l 351 87 q 462 137 422 87 q 501 279 501 186 q 503 300 503 294 l 505 343 l 505 420 l 503 441 q 503 455 503 448 m 385 671 q 475 690 460 671 q 498 811 498 718 q 492 868 498 839 q 486 907 486 898 q 509 959 486 938 q 576 980 532 980 l 589 980 q 650 932 642 980 q 656 551 656 897 l 655 470 l 655 357 l 656 294 q 656 263 656 279 l 657 248 q 658 194 658 233 q 669 118 658 155 q 680 66 680 81 q 663 37 680 52 q 613 23 646 23 q 546 32 581 23 q 499 41 512 41 q 429 22 486 41 q 329 2 372 2 l 314 2 q 135 80 199 2 q 71 286 71 159 l 71 320 q 92 453 71 387 q 154 570 113 520 q 385 671 239 671 z "},"e":{"ha":694,"x_min":52,"x_max":618,"o":"m 404 399 q 469 414 450 399 q 488 446 488 428 l 488 475 q 452 555 488 524 q 374 587 416 587 l 356 587 q 248 535 294 587 q 202 422 202 484 l 202 410 q 245 387 202 387 l 261 387 l 265 387 l 316 391 l 350 393 l 373 396 q 390 398 379 397 q 404 399 400 399 m 376 -9 l 347 -9 q 129 83 211 -9 q 72 186 92 123 q 52 311 52 249 l 52 341 q 77 471 52 403 q 245 650 127 603 q 375 675 307 675 l 390 675 q 547 618 485 675 q 600 538 582 585 q 618 454 618 492 q 566 347 618 372 q 405 315 531 330 q 267 297 279 300 q 208 244 208 282 q 269 134 208 178 q 395 102 313 102 q 496 121 426 102 q 572 141 566 141 q 608 109 608 141 q 532 30 608 69 q 376 -9 456 -9 z "},"f":{"ha":513,"x_min":77,"x_max":528,"o":"m 393 884 q 323 852 350 884 q 297 771 297 821 q 312 703 297 722 q 381 657 327 685 q 435 604 435 629 q 380 558 435 585 q 321 486 340 539 q 290 228 290 397 q 305 127 290 181 q 319 59 319 73 q 290 4 319 26 q 215 -18 261 -18 q 140 5 170 -18 q 111 70 111 29 q 123 117 111 79 q 139 178 135 155 q 143 277 143 201 l 142 309 l 141 342 q 132 502 141 462 q 100 568 123 543 q 77 614 77 594 q 129 704 77 619 q 163 797 139 721 q 218 912 186 872 q 296 975 249 953 q 387 996 342 996 l 420 996 q 499 975 471 996 q 528 939 528 954 l 528 928 q 467 880 528 880 q 446 881 457 880 q 393 884 414 884 z "},"g":{"ha":757,"x_min":86,"x_max":641,"o":"m 202 339 l 202 311 q 236 157 202 214 q 330 100 271 100 l 354 100 q 466 162 429 100 q 494 300 494 208 q 495 321 495 313 l 496 356 l 496 391 l 496 398 l 495 418 l 494 445 q 465 532 494 501 q 391 564 437 564 l 374 564 q 250 503 298 564 q 202 339 202 442 m 455 -287 q 327 -307 399 -307 q 196 -281 254 -307 q 138 -221 138 -254 q 202 -178 138 -178 q 260 -185 224 -178 q 322 -191 296 -191 q 456 -145 406 -191 q 507 -15 507 -98 q 478 19 507 19 q 445 15 473 19 q 363 11 416 11 q 112 192 178 11 q 86 334 86 263 l 86 353 q 111 487 86 427 q 369 659 180 659 q 468 640 416 659 q 550 622 520 622 l 570 623 q 621 599 601 623 q 641 530 641 575 l 641 495 q 631 345 641 482 q 621 136 621 208 l 627 -20 q 455 -287 627 -224 z "},"h":{"ha":784,"x_min":87,"x_max":703,"o":"m 703 98 q 617 21 703 21 q 561 35 578 21 q 543 81 543 48 l 543 96 l 545 111 l 545 147 l 538 313 q 509 501 538 452 q 409 550 479 550 q 336 527 372 550 q 280 458 300 504 q 260 210 260 412 q 264 141 260 182 q 269 98 269 100 q 245 38 269 61 q 176 14 222 14 l 157 14 q 87 68 87 14 l 87 87 q 94 124 87 98 l 104 161 q 117 397 117 219 l 117 654 l 120 806 l 121 827 q 121 867 121 848 q 119 901 121 886 l 115 916 q 111 941 111 937 q 149 972 111 972 l 166 972 q 253 914 235 972 q 264 802 261 888 q 272 672 267 715 q 300 628 277 628 q 326 633 309 628 l 340 640 q 467 671 411 671 q 639 569 590 671 q 673 292 673 498 q 688 164 673 217 q 703 98 703 112 z "},"i":{"ha":387,"x_min":87,"x_max":307,"o":"m 185 953 l 208 953 q 258 935 237 953 q 279 884 279 918 l 279 867 q 260 817 279 839 q 214 795 242 795 l 200 793 l 178 793 q 157 795 170 795 q 129 811 145 795 q 112 848 112 828 q 111 857 111 854 l 109 870 l 109 873 l 112 895 q 130 932 112 911 q 185 953 147 953 m 196 2 l 161 2 q 113 18 133 2 q 92 54 92 35 q 104 110 92 73 q 115 175 115 146 l 117 192 l 118 227 l 118 255 l 119 273 l 119 494 q 107 555 116 530 l 101 568 q 87 607 87 604 l 87 621 q 168 660 87 660 l 193 660 q 253 621 242 660 q 256 503 256 611 l 256 349 l 257 304 l 260 252 q 293 115 260 171 q 307 63 307 92 q 275 19 307 35 q 196 2 243 2 z "},"j":{"ha":387,"x_min":-34,"x_max":284,"o":"m 120 863 l 121 878 q 146 925 121 905 q 202 946 172 946 l 223 946 q 262 930 243 946 q 281 890 281 914 q 284 876 284 880 l 284 855 q 260 794 284 814 q 199 774 236 774 l 183 774 q 164 776 175 776 q 137 791 153 776 q 121 833 121 807 l 119 851 l 119 860 l 120 863 m 47 -277 l 24 -277 q -34 -233 -34 -277 l -34 -222 q 43 -161 -34 -184 q 113 -89 95 -146 q 141 209 141 -2 q 137 464 141 420 q 119 553 134 507 q 104 615 104 600 q 197 661 104 661 q 266 619 248 661 q 278 466 278 591 l 278 202 l 277 190 q 277 164 277 177 l 276 89 l 275 37 q 134 -256 275 -190 q 47 -277 90 -277 z "},"k":{"ha":741,"x_min":89,"x_max":676,"o":"m 298 456 q 407 552 315 456 q 455 608 432 578 q 497 650 478 637 q 554 663 516 663 q 631 629 631 663 q 543 520 631 623 q 454 376 454 418 q 565 201 454 355 q 676 45 676 47 q 616 16 676 16 q 519 47 555 16 q 436 175 514 52 q 325 298 357 298 q 285 263 301 298 q 269 174 269 227 l 271 138 q 273 103 273 111 q 150 22 273 22 q 94 92 94 22 l 96 109 q 109 296 109 209 l 109 406 l 109 429 q 110 475 110 452 l 111 522 q 111 568 111 545 l 113 659 q 107 841 113 808 q 95 899 102 875 q 89 928 89 923 l 89 945 q 109 969 89 958 q 162 981 128 981 l 180 981 q 247 940 231 981 q 259 801 259 909 l 259 659 l 260 573 q 298 456 260 456 z "},"l":{"ha":402,"x_min":96,"x_max":332,"o":"m 96 937 q 184 991 96 991 l 196 991 q 267 939 259 991 l 267 791 l 266 741 l 266 715 l 264 638 l 264 613 l 263 600 q 263 574 263 587 l 262 561 q 262 535 262 548 l 262 522 l 262 458 l 264 372 q 264 310 264 359 q 278 204 264 260 q 311 116 291 149 q 332 60 332 83 q 303 19 332 37 q 222 1 275 1 l 199 1 q 103 77 103 1 q 109 113 103 83 q 115 222 114 142 l 119 384 l 119 397 q 119 422 119 410 l 120 448 q 120 474 120 461 l 121 487 q 121 513 121 500 l 121 538 q 121 564 121 551 l 122 590 l 122 616 l 123 642 l 123 770 q 109 886 123 847 q 96 937 96 926 z "},"m":{"ha":1140,"x_min":86,"x_max":1062,"o":"m 237 94 q 174 36 237 36 q 86 120 86 36 l 90 143 l 97 165 l 103 189 q 113 295 113 231 l 115 485 q 115 607 115 604 q 162 634 121 634 l 291 621 q 359 635 313 621 q 460 650 406 650 q 592 606 515 650 q 628 589 623 589 q 714 623 653 589 q 831 656 776 656 q 1003 542 958 656 q 1030 381 1027 483 l 1031 324 q 1035 231 1033 259 q 1049 164 1036 203 q 1062 99 1062 124 q 1040 54 1062 74 q 985 34 1019 34 q 921 71 930 34 q 918 106 919 79 q 916 143 917 134 l 911 190 q 878 453 892 414 q 772 532 849 532 q 684 478 709 532 q 652 224 652 410 q 656 172 652 197 l 660 149 q 667 102 667 109 q 640 41 667 66 q 559 16 612 16 q 493 33 507 16 q 480 68 480 51 q 487 120 480 85 q 495 171 494 156 q 496 312 496 185 q 481 483 496 438 q 399 545 460 545 q 315 512 353 545 q 264 441 278 479 q 237 94 237 368 z "},"n":{"ha":787,"x_min":80,"x_max":718,"o":"m 160 20 q 158 20 159 20 q 80 73 80 20 q 94 137 80 99 q 109 214 107 175 q 111 334 111 253 l 111 460 l 113 496 q 114 546 114 531 l 107 616 q 150 640 107 640 q 237 616 192 640 q 292 593 281 593 q 332 607 302 593 q 402 636 361 621 q 485 652 442 652 l 503 652 q 593 625 553 652 q 651 549 633 597 q 676 371 669 500 l 678 334 l 680 296 q 684 226 682 264 q 703 146 687 188 q 718 90 718 104 q 626 30 718 30 q 568 46 587 30 q 550 100 550 62 l 551 125 q 513 484 551 389 q 408 558 484 558 q 338 540 372 558 q 285 482 304 522 q 251 208 251 411 l 256 85 q 229 38 256 56 q 160 20 201 20 z "},"o":{"ha":743,"x_min":63,"x_max":677,"o":"m 351 79 l 365 79 q 477 139 433 79 q 522 292 522 199 l 523 307 l 524 330 l 524 360 q 483 527 524 461 q 373 592 441 592 l 359 592 q 247 526 292 592 q 201 349 201 459 l 201 303 q 202 281 202 287 q 245 141 202 203 q 351 79 288 79 m 677 351 l 677 328 q 657 204 677 268 q 500 18 617 75 q 366 -14 432 -14 l 342 -14 q 225 12 279 -14 q 82 182 117 63 q 63 311 63 245 l 63 345 q 83 473 63 409 q 236 653 121 599 q 357 682 295 682 l 391 682 q 506 656 449 682 q 659 477 620 606 q 677 351 677 420 z "},"p":{"ha":768,"x_min":79,"x_max":701,"o":"m 552 332 l 552 370 q 513 529 552 470 q 408 588 473 588 l 402 588 l 395 587 q 330 570 365 587 q 272 515 295 552 q 249 349 249 479 l 249 271 q 269 141 249 170 q 372 92 302 92 l 385 92 q 505 156 457 92 q 552 332 552 221 m 158 -283 q 79 -226 79 -283 q 89 -177 79 -208 q 102 -122 99 -146 q 111 17 106 -98 q 115 246 115 132 l 115 456 q 104 567 115 528 q 92 616 92 605 q 176 652 92 652 q 210 648 185 652 l 231 643 q 276 637 263 637 q 344 657 289 637 q 441 677 399 677 l 473 677 q 568 650 522 677 q 642 585 614 623 q 701 391 701 505 l 701 357 q 675 213 701 282 q 384 10 604 21 q 290 -11 321 7 q 258 -79 258 -29 q 267 -134 258 -96 q 277 -191 277 -172 q 243 -257 277 -231 q 158 -283 210 -283 z "},"q":{"ha":768,"x_min":68,"x_max":687,"o":"m 386 588 l 359 588 q 357 588 359 588 q 297 567 330 588 q 205 321 205 509 l 205 313 q 247 140 205 201 q 353 79 289 79 l 367 79 q 434 99 399 79 q 488 152 469 119 q 507 315 507 184 l 507 351 q 479 539 507 490 q 386 588 452 588 m 333 2 q 143 94 218 2 q 68 337 68 186 q 146 583 68 489 q 355 676 224 676 q 464 657 398 676 q 534 639 529 639 l 590 644 q 656 539 656 644 l 655 509 q 654 452 654 479 l 654 180 l 654 149 l 654 85 l 656 23 l 656 -7 q 671 -151 656 -106 q 687 -220 687 -196 q 669 -266 687 -244 q 615 -288 650 -288 l 588 -288 q 519 -265 542 -288 q 496 -208 496 -242 q 503 -164 496 -207 q 509 -78 509 -121 q 488 -14 509 -35 q 413 6 468 6 l 374 3 q 333 2 347 2 z "},"r":{"ha":566,"x_min":87,"x_max":527,"o":"m 404 536 q 305 472 340 536 q 270 279 270 409 q 275 197 270 221 q 289 137 279 173 q 299 76 299 102 q 268 28 299 50 q 186 6 237 6 l 175 7 l 163 7 q 109 25 130 7 q 87 66 87 43 l 87 77 q 100 122 87 82 q 115 199 113 162 q 117 300 117 237 l 117 375 l 117 387 q 117 412 117 399 l 115 448 q 115 496 115 460 q 102 564 115 532 q 90 606 90 596 q 161 646 90 646 q 264 608 232 646 q 284 596 273 596 q 319 613 294 596 q 433 659 387 659 l 444 659 q 506 641 484 659 q 527 592 527 623 q 460 532 527 532 q 404 536 433 536 z "},"s":{"ha":627,"x_min":72,"x_max":566,"o":"m 138 369 q 79 502 79 420 q 149 636 79 584 q 327 688 219 688 q 484 662 435 688 q 534 593 534 635 q 496 536 534 536 q 428 564 484 536 q 320 591 372 591 q 242 568 268 591 q 216 507 216 544 q 266 440 216 469 q 376 393 283 430 q 507 323 469 356 q 566 187 566 271 q 497 47 566 104 q 317 -9 427 -9 q 86 63 131 -9 q 72 104 72 86 q 109 163 72 163 q 188 126 119 163 q 311 90 257 90 q 396 113 365 90 q 427 176 427 136 q 378 249 427 216 q 266 299 357 262 q 138 369 174 336 z "},"t":{"ha":516,"x_min":61,"x_max":446,"o":"m 341 3 l 315 3 q 175 87 218 3 q 140 312 140 155 q 123 527 140 469 q 89 576 117 549 q 61 625 61 604 l 61 633 q 93 672 61 651 q 130 702 125 693 q 150 768 135 711 q 182 847 165 825 q 227 870 199 870 q 267 854 255 870 q 291 787 279 838 q 317 718 302 736 q 386 680 331 700 q 441 631 441 661 q 384 585 441 606 q 311 535 326 565 q 283 331 283 477 q 308 152 283 184 q 390 111 333 119 q 446 68 446 104 q 414 22 446 41 q 341 3 382 3 z "},"u":{"ha":777,"x_min":72,"x_max":699,"o":"m 231 608 q 240 397 240 579 q 254 178 240 216 q 355 98 282 98 q 485 167 445 98 q 525 404 525 237 l 526 440 l 526 476 q 521 551 526 513 q 516 593 516 589 q 538 638 516 625 q 604 651 561 651 q 660 618 648 651 q 668 403 668 597 q 689 123 668 210 q 699 84 699 85 l 699 71 q 678 39 699 54 q 619 24 657 24 q 546 40 581 24 q 503 57 511 57 q 431 33 495 57 q 318 8 368 8 l 300 8 q 202 33 246 8 q 134 104 158 58 q 98 395 98 172 q 89 555 98 524 q 80 579 88 557 q 72 610 72 601 l 72 625 q 142 662 72 662 l 159 662 q 231 608 215 662 z "},"v":{"ha":707,"x_min":42,"x_max":665,"o":"m 344 0 q 253 88 294 0 q 159 328 211 176 q 75 534 107 479 q 42 616 42 588 q 56 656 42 645 q 119 668 70 668 q 224 610 199 668 q 239 549 231 596 q 298 336 248 501 q 366 170 348 170 q 445 354 387 170 q 509 579 503 538 q 517 627 514 620 q 592 669 532 669 l 606 669 q 653 658 640 669 q 665 620 665 648 l 665 608 q 625 521 665 591 q 548 322 616 506 q 449 82 479 139 q 398 13 419 25 q 344 0 378 0 z "},"w":{"ha":1037,"x_min":71,"x_max":968,"o":"m 511 385 q 457 261 511 385 q 383 104 404 138 q 302 37 343 37 q 251 58 278 37 q 208 117 223 78 q 160 272 193 156 q 99 471 127 388 q 71 588 71 554 q 117 650 71 650 q 205 596 179 650 q 257 402 206 595 q 340 210 308 210 q 409 382 365 210 q 431 510 422 432 q 444 597 441 589 q 526 646 465 646 q 613 585 588 646 q 631 503 623 559 q 659 372 640 446 q 725 212 701 212 q 802 385 752 212 q 834 513 818 438 q 859 607 851 589 q 923 650 879 650 q 968 593 968 650 q 943 491 968 571 q 878 275 918 412 q 824 107 838 138 q 783 56 810 77 q 734 35 757 35 q 666 77 694 35 q 579 252 638 119 q 511 385 519 385 z "},"x":{"ha":711,"x_min":62,"x_max":656,"o":"m 136 -3 l 119 -3 q 62 35 62 -3 q 160 177 62 38 q 258 338 258 317 q 170 486 258 360 q 105 566 146 521 q 65 628 65 611 q 162 667 65 667 q 261 631 233 667 q 275 603 267 625 q 304 541 283 581 q 372 454 352 454 q 444 543 389 454 q 476 609 465 578 q 492 645 488 640 q 555 671 512 671 q 637 642 637 671 q 543 505 637 625 q 449 350 449 385 q 549 182 449 315 q 620 102 583 138 q 656 46 656 66 q 544 7 656 8 q 463 39 488 7 q 447 71 458 45 q 420 124 435 97 q 342 229 359 229 q 264 132 322 229 q 234 67 247 104 q 218 27 220 31 q 136 -3 196 -3 z "},"y":{"ha":718,"x_min":64,"x_max":661,"o":"m 187 285 q 64 590 64 557 q 87 636 64 623 q 160 650 111 650 q 230 602 209 650 q 248 520 233 596 q 305 317 262 444 q 371 191 348 191 q 390 208 376 191 q 464 373 424 253 q 509 585 503 492 q 519 637 512 625 q 582 667 537 667 l 600 667 q 661 619 661 667 q 637 530 661 590 q 601 429 613 469 q 437 -51 489 54 q 325 -214 386 -156 q 199 -272 263 -272 q 136 -231 136 -272 q 194 -180 136 -203 q 277 -128 253 -157 q 325 -3 325 -73 q 271 128 325 35 q 187 285 216 220 z "},"z":{"ha":665,"x_min":68,"x_max":602,"o":"m 585 632 q 426 366 585 589 q 267 123 267 142 q 345 98 267 98 q 473 111 424 98 l 563 136 q 602 86 602 136 l 602 71 q 472 3 602 3 l 420 3 l 402 3 l 313 3 q 104 6 119 3 q 68 39 68 12 l 68 53 q 230 317 68 93 q 391 561 391 541 q 290 581 391 581 q 186 567 240 581 q 118 553 132 553 q 78 598 78 553 q 97 662 78 644 q 176 681 117 681 l 193 680 l 388 679 l 475 677 q 567 666 549 677 q 585 632 585 656 z "},"{":{"ha":507,"x_min":66,"x_max":447,"o":"m 249 458 q 234 444 249 458 q 218 427 218 429 q 234 411 218 424 q 266 380 250 398 q 294 326 283 362 q 306 195 306 290 l 302 79 q 331 -54 302 -8 q 390 -104 343 -74 q 437 -164 437 -135 q 387 -191 437 -191 q 216 -121 271 -191 q 173 81 173 -66 l 179 232 q 161 330 179 303 q 104 379 142 357 q 66 428 66 401 q 109 480 66 456 q 168 537 152 505 q 183 646 183 569 l 182 663 q 182 697 182 680 l 180 731 l 180 781 q 225 968 180 907 q 393 1043 281 1043 l 409 1043 q 447 1017 447 1043 q 397 955 447 987 q 329 886 347 922 q 311 758 311 850 l 313 659 q 297 529 313 572 q 249 458 280 486 z "},"|":{"ha":382,"x_min":133,"x_max":252,"o":"m 133 -94 l 133 -67 l 134 -54 l 134 13 l 134 53 l 134 106 l 135 134 l 135 200 l 136 227 l 136 294 l 136 321 l 136 361 l 137 389 l 137 429 q 142 961 137 905 q 159 1027 146 1018 q 203 1036 171 1036 q 243 1020 235 1036 q 252 961 252 1003 l 252 896 l 251 882 l 251 817 l 250 803 q 250 724 250 764 l 250 697 l 250 630 l 249 604 l 249 509 l 248 482 l 248 415 q 242 -145 248 -72 q 194 -195 238 -195 l 181 -195 q 141 -179 150 -195 q 133 -94 133 -163 z "},"}":{"ha":511,"x_min":68,"x_max":447,"o":"m 338 791 l 331 609 q 350 526 331 552 q 408 478 369 500 q 447 430 447 456 q 404 376 447 403 q 347 319 361 350 q 333 190 333 288 l 335 89 q 290 -115 335 -54 q 125 -193 233 -193 l 109 -193 q 68 -170 68 -193 l 68 -159 q 117 -105 68 -136 q 181 -49 167 -74 q 207 119 207 -3 l 205 202 q 219 323 205 287 q 254 382 233 359 l 296 431 q 279 445 296 431 q 220 519 235 482 q 205 633 205 557 l 211 783 q 187 901 211 859 q 126 957 173 926 q 80 1010 80 987 q 124 1043 80 1043 l 140 1043 q 229 1024 187 1043 q 294 976 271 1005 q 338 791 338 921 z "},"~":{"ha":736,"x_min":77,"x_max":663,"o":"m 232 579 l 254 579 q 378 538 289 579 q 497 498 468 498 q 574 531 526 498 q 633 564 622 564 q 663 530 663 564 q 611 433 663 475 q 500 391 559 391 l 494 391 q 358 432 454 391 q 239 473 262 473 q 165 439 216 473 q 107 406 113 406 q 77 440 77 406 q 126 534 77 488 q 232 579 175 579 z "},"":{"ha":380,"x_min":0,"x_max":0,"o":""},"":{"ha":420,"x_min":120,"x_max":289,"o":"m 122 758 q 165 795 122 795 l 180 797 l 197 797 q 262 774 235 797 q 289 711 289 752 l 289 701 q 249 647 289 647 q 241 645 243 645 l 229 644 l 212 644 q 198 646 202 646 q 144 670 164 646 q 123 713 123 694 l 120 734 l 120 744 l 121 746 l 121 751 q 122 758 122 756 m 157 272 q 161 329 159 296 q 163 385 163 361 l 164 401 l 167 456 q 204 528 167 528 l 210 528 q 242 461 242 528 l 243 430 q 247 381 246 397 q 248 353 248 366 q 250 329 249 341 q 250 309 250 317 l 252 292 l 253 260 l 254 252 l 256 203 q 256 186 256 195 l 263 7 l 263 -8 l 264 -40 l 264 -86 q 262 -109 262 -101 q 204 -163 262 -163 l 185 -163 q 154 -148 162 -163 q 145 -83 145 -132 l 145 -21 l 146 -14 l 146 18 q 146 35 146 26 l 147 43 l 147 58 l 155 248 l 157 272 z "},"":{"ha":714,"x_min":94,"x_max":608,"o":"m 220 360 q 258 225 220 300 q 333 151 296 151 l 337 151 q 342 225 342 151 l 342 309 l 343 314 l 343 326 l 344 331 q 344 343 344 337 l 348 420 q 351 451 350 439 q 352 471 351 463 q 353 485 353 479 l 370 611 q 357 636 370 636 q 265 566 309 636 q 222 426 222 495 l 220 412 l 220 360 m 414 251 q 469 157 414 157 q 526 170 485 157 q 587 183 566 183 q 608 162 608 183 q 520 75 608 127 q 417 -14 460 39 q 360 -67 373 -67 q 336 -47 347 -67 q 268 50 295 32 q 151 159 187 102 q 94 361 94 246 l 94 396 q 153 597 94 513 q 220 664 184 643 q 289 700 256 686 q 337 728 322 714 q 370 786 351 742 q 408 829 389 829 l 415 829 q 512 725 423 829 q 602 605 602 621 q 563 555 602 555 q 522 578 551 555 q 472 601 492 601 q 434 555 441 601 q 414 251 414 440 z "},"":{"ha":777,"x_min":87,"x_max":691,"o":"m 87 46 q 122 119 87 73 q 172 204 157 165 q 187 296 187 242 q 176 373 187 349 q 130 420 164 397 q 96 467 96 442 q 123 515 96 492 q 158 563 150 538 q 175 655 166 587 q 196 765 184 724 q 245 852 208 806 q 476 949 322 948 q 609 920 551 949 q 667 839 667 890 q 629 787 667 787 q 563 807 613 787 q 465 827 512 827 q 358 768 397 827 q 330 631 330 725 q 367 551 330 578 q 457 522 387 536 q 526 479 526 509 q 468 424 526 443 q 367 366 390 399 q 315 190 315 292 q 345 133 315 148 q 424 117 374 117 q 537 126 474 117 l 639 140 q 676 125 662 140 q 691 81 691 109 q 520 -7 691 -7 l 497 -7 l 245 4 l 161 2 q 87 46 87 2 z "},"":{"ha":794,"x_min":90,"x_max":708,"o":"m 566 463 l 566 494 q 519 617 566 562 q 402 672 473 672 l 391 672 q 276 619 325 672 q 227 488 227 566 l 227 463 q 275 337 227 389 q 389 286 322 286 l 401 286 q 517 339 467 286 q 566 463 566 393 m 159 316 q 143 366 159 322 q 127 461 127 410 q 134 534 127 513 q 151 583 140 555 q 161 625 161 610 q 127 680 161 640 q 93 731 93 719 q 111 763 93 743 q 143 783 130 783 q 191 752 156 783 q 250 721 226 721 q 285 730 256 721 l 311 740 q 398 753 355 753 q 495 738 442 753 q 561 722 549 722 q 608 752 574 722 q 657 783 642 783 q 690 764 672 783 q 708 732 708 745 q 672 681 708 720 q 635 616 635 642 q 648 569 635 615 q 661 479 661 524 q 642 377 661 435 q 623 315 623 319 q 660 258 623 298 q 697 207 697 218 q 682 178 697 196 q 645 160 666 160 q 601 193 640 160 q 547 225 562 225 q 500 214 531 225 q 449 198 470 203 q 387 192 427 192 q 298 205 347 192 q 238 218 250 218 q 191 185 226 218 q 141 152 155 152 q 108 170 126 152 q 90 199 90 188 q 124 250 90 211 q 159 316 159 290 z "},"":{"ha":835,"x_min":75,"x_max":762,"o":"m 75 874 q 168 931 75 931 q 266 897 238 931 q 286 838 278 882 q 330 722 294 793 q 436 528 427 528 l 449 534 q 567 759 490 576 q 587 824 582 794 l 590 844 l 591 862 q 600 895 594 885 q 675 932 619 932 q 746 915 730 932 q 762 884 762 899 q 676 739 762 883 q 591 546 591 595 q 614 483 591 522 q 638 438 638 444 q 588 391 638 414 q 537 346 537 368 q 591 302 537 320 q 646 258 646 285 q 571 200 646 250 q 524 128 524 168 l 526 113 q 533 79 533 83 q 437 1 533 1 l 412 1 q 332 23 363 1 q 302 68 302 46 q 307 111 302 90 q 311 135 311 131 q 253 212 311 173 q 195 262 195 251 q 248 306 195 286 q 300 351 300 326 q 251 395 300 370 q 201 446 201 420 q 221 486 201 456 q 241 549 241 515 q 176 701 241 582 q 114 798 154 743 q 75 874 75 852 z "},"":{"ha":370,"x_min":128,"x_max":237,"o":"m 128 576 l 128 955 q 136 1004 128 991 q 173 1017 143 1017 l 203 1017 q 237 957 237 1017 l 237 584 q 227 519 237 530 q 179 509 218 509 l 168 509 q 135 521 142 509 q 128 576 128 533 m 128 -136 l 128 257 q 136 307 128 296 q 175 318 144 318 l 199 318 q 230 303 223 318 q 237 237 237 289 l 237 107 l 236 101 l 236 -46 l 237 -71 l 237 -120 q 228 -182 237 -170 q 184 -193 220 -193 q 138 -185 148 -193 q 128 -136 128 -178 z "},"":{"ha":711,"x_min":111,"x_max":609,"o":"m 220 494 l 220 475 q 280 378 220 427 q 374 321 304 359 q 450 283 444 283 l 454 283 q 473 294 466 283 q 494 357 494 325 l 494 372 q 450 458 494 411 q 293 589 332 589 l 287 590 l 283 590 q 244 560 269 590 q 220 494 220 530 m 500 779 q 475 791 492 779 l 463 800 q 362 840 413 840 q 285 818 312 840 q 258 758 258 795 q 304 680 258 720 q 423 611 322 665 q 567 508 524 558 q 609 394 609 458 q 576 274 609 330 q 544 213 544 218 q 561 161 544 208 q 578 73 578 115 q 511 -67 578 -9 q 342 -125 444 -125 l 320 -125 q 168 -87 224 -125 q 112 -1 112 -50 q 149 47 112 47 q 222 9 165 47 q 334 -29 279 -29 q 417 -2 390 -29 q 444 64 444 25 q 398 140 444 102 q 293 202 386 149 q 165 293 201 254 q 111 419 111 351 l 111 439 q 142 534 111 489 q 173 586 173 580 q 147 642 173 591 q 121 742 121 692 q 186 879 121 823 q 356 935 251 935 l 377 935 q 496 905 444 935 q 548 827 548 876 q 500 779 548 779 z "},"":{"ha":582,"x_min":71,"x_max":494,"o":"m 224 856 l 223 833 q 206 805 223 822 q 151 787 189 787 l 140 787 q 90 804 106 787 q 73 842 73 820 l 71 858 l 71 871 l 74 889 q 90 924 74 908 q 125 939 105 939 l 143 942 l 161 942 l 179 939 q 211 922 197 939 q 225 874 225 904 l 225 859 l 224 856 m 340 851 l 340 875 q 342 896 342 883 q 360 925 342 908 q 416 943 377 943 l 423 943 q 494 879 494 943 l 494 854 q 492 835 492 848 q 476 807 492 822 q 444 791 461 791 q 434 789 435 789 l 418 787 l 408 787 q 340 851 340 787 z "},"":{"ha":1048,"x_min":61,"x_max":974,"o":"m 505 90 l 530 90 q 671 119 606 90 q 851 308 800 178 q 882 477 882 387 l 882 490 l 882 503 q 851 651 882 576 q 665 844 794 791 q 525 871 597 871 l 512 871 q 373 844 442 871 q 254 766 303 817 q 146 496 146 653 l 146 458 q 174 321 146 390 q 352 125 229 182 q 505 90 431 90 m 518 679 q 389 463 389 679 q 430 330 389 376 q 523 283 471 283 q 621 307 574 283 q 686 331 667 331 q 704 313 704 331 l 704 304 q 649 234 704 265 q 533 203 595 203 l 509 203 q 425 220 468 203 q 350 273 381 238 q 285 465 285 347 l 285 492 q 351 682 285 608 q 521 757 418 757 l 533 757 q 699 648 699 757 q 669 617 699 617 q 610 648 659 617 q 518 679 562 679 m 520 18 l 505 18 q 338 48 419 18 q 100 273 172 111 q 61 458 61 363 l 61 488 q 91 653 61 568 q 181 803 121 739 q 331 906 242 868 q 515 943 419 943 l 530 943 q 696 913 614 943 q 934 687 863 850 q 974 503 974 595 l 974 472 q 943 306 974 393 q 853 157 913 219 q 709 57 793 96 q 520 18 625 18 z "},"":{"ha":556,"x_min":64,"x_max":475,"o":"m 172 602 q 224 568 172 568 l 245 568 q 309 599 278 568 q 328 673 328 617 l 328 690 q 303 719 328 719 l 288 719 l 286 718 l 269 716 q 264 715 266 715 l 254 713 q 202 688 232 713 q 172 639 172 663 l 170 622 l 170 614 q 172 602 172 606 m 250 956 l 273 956 q 417 890 376 956 q 441 703 441 852 q 445 613 441 631 q 462 573 448 596 q 475 545 475 549 l 475 536 q 401 500 475 500 q 356 514 382 500 q 321 528 330 528 l 271 508 q 200 494 235 494 l 190 494 q 99 528 133 494 q 64 612 64 562 l 64 623 q 122 722 64 682 q 223 757 149 741 q 301 777 297 774 q 319 817 319 788 q 300 864 319 845 q 252 882 281 882 q 185 860 223 882 q 125 838 147 838 q 91 872 91 838 q 127 925 91 906 q 250 956 188 956 z "},"":{"ha":743,"x_min":58,"x_max":649,"o":"m 378 626 q 284 489 378 600 q 191 374 191 377 q 285 259 191 372 q 379 122 379 147 q 342 86 379 86 q 184 220 311 86 q 58 372 58 355 q 189 530 58 398 q 342 661 321 661 q 378 626 378 661 m 545 473 q 506 426 545 473 q 467 375 467 379 q 511 317 467 370 l 522 305 q 537 288 536 289 l 557 262 l 563 256 q 646 132 646 156 q 612 94 646 94 l 606 94 q 460 220 586 94 q 334 369 334 347 l 334 376 q 461 527 334 399 q 612 654 589 654 q 644 630 635 654 q 636 592 649 616 q 545 473 623 568 z "},"":{"ha":784,"x_min":75,"x_max":701,"o":"m 651 187 q 595 284 595 187 q 559 397 595 382 q 335 404 543 404 q 110 406 126 404 q 75 440 75 412 l 75 458 q 91 502 75 496 q 334 507 106 507 l 644 507 q 687 492 673 507 q 701 439 701 478 l 701 383 l 700 374 q 700 355 700 364 l 699 326 q 697 206 699 219 q 669 187 694 187 l 651 187 z "},"":{"ha":579,"x_min":79,"x_max":501,"o":"m 118 334 q 79 365 79 334 l 79 385 q 104 439 79 433 q 296 442 119 442 l 410 444 l 467 444 q 501 408 501 444 l 501 397 q 476 338 501 345 q 284 335 461 335 l 237 335 l 222 334 l 164 334 l 149 334 l 118 334 z "},"":{"ha":996,"x_min":64,"x_max":905,"o":"m 564 686 q 541 733 564 713 q 498 753 517 753 l 491 754 l 463 756 l 441 756 q 410 732 410 756 l 410 711 l 410 709 l 410 631 l 410 622 q 445 578 410 578 l 463 578 q 534 595 503 578 q 564 644 564 613 l 566 660 l 566 670 q 564 686 564 680 m 136 576 l 136 553 l 136 541 q 161 414 137 477 q 337 229 212 283 q 480 200 404 200 l 492 200 q 625 228 562 201 q 792 391 744 279 q 825 531 825 466 l 825 566 q 798 703 825 633 q 614 894 745 840 q 479 920 552 920 l 456 920 q 335 895 398 920 q 228 820 273 869 q 159 705 182 771 q 136 576 136 639 m 423 816 l 479 816 q 610 780 568 816 q 652 690 652 743 q 622 597 652 637 q 594 568 614 587 q 573 537 573 549 q 603 472 573 526 q 655 392 633 418 q 677 345 677 366 q 637 324 677 324 q 574 352 597 324 q 526 438 566 362 q 454 513 487 513 q 411 453 411 513 q 417 400 411 435 q 424 364 424 366 q 362 323 424 323 l 352 323 q 292 362 292 323 q 303 393 292 368 q 314 458 314 419 l 314 531 l 315 565 l 315 643 l 314 665 l 314 705 q 308 765 314 743 q 302 789 302 788 q 423 816 302 816 m 64 585 q 98 743 64 659 q 307 959 161 899 q 463 994 391 994 l 491 994 q 659 959 578 994 q 795 865 740 924 q 878 727 850 806 q 905 579 905 648 l 905 551 q 874 388 905 465 q 788 252 842 310 q 652 161 734 195 q 482 127 570 127 l 468 127 q 300 164 380 127 q 90 395 144 235 q 64 557 64 472 l 64 571 l 64 585 z "},"":{"ha":574,"x_min":68,"x_max":511,"o":"m 511 869 l 511 853 q 501 814 511 823 q 458 806 492 806 l 99 806 q 68 830 68 806 l 68 850 q 106 898 68 898 l 480 898 q 511 869 511 898 z "},"":{"ha":537,"x_min":77,"x_max":457,"o":"m 164 751 q 193 690 164 719 q 250 662 221 662 l 256 661 l 271 661 q 338 691 308 661 q 369 768 369 722 l 369 787 q 341 861 369 829 q 272 892 313 892 l 261 892 q 196 864 229 892 q 164 796 164 836 l 163 789 l 163 762 q 164 751 164 754 m 260 963 l 279 963 q 402 913 348 963 q 457 785 457 863 l 457 772 q 403 644 457 699 q 273 590 349 590 l 254 590 q 134 638 191 590 q 77 762 77 686 l 77 787 q 134 911 77 859 q 260 963 190 963 z "},"":{"ha":762,"x_min":83,"x_max":675,"o":"m 656 541 q 675 498 675 535 q 657 453 675 461 q 543 446 638 446 q 439 437 448 446 q 431 340 431 429 q 424 237 431 252 q 378 222 417 222 q 333 239 338 222 q 327 342 327 255 q 315 439 327 429 q 216 444 311 444 q 109 447 122 444 q 83 479 83 452 l 83 490 q 106 539 83 531 q 216 544 119 544 q 320 553 313 544 q 327 651 327 562 q 334 755 327 740 q 376 771 341 771 l 387 771 q 425 754 419 771 q 431 649 431 738 q 438 552 431 560 q 546 545 446 545 q 656 541 645 545 m 438 49 l 281 49 q 103 52 122 49 q 85 86 85 56 l 85 93 q 105 145 85 140 q 307 150 126 150 l 484 150 l 491 149 l 586 150 l 620 150 q 674 113 674 150 l 674 106 q 654 55 674 60 q 438 49 635 49 z "},"":{"ha":551,"x_min":85,"x_max":451,"o":"m 328 455 l 174 455 q 85 491 85 455 l 85 502 q 182 638 85 548 q 304 764 280 729 q 328 837 328 799 q 254 909 328 909 l 253 909 q 181 877 224 909 q 117 845 138 845 q 90 887 90 845 q 143 961 90 928 q 260 993 197 993 l 274 993 q 396 951 353 993 q 439 834 439 910 q 406 744 439 788 q 298 635 372 700 q 223 556 223 571 q 277 542 223 542 q 368 550 330 542 q 420 559 405 559 q 451 525 451 559 l 451 514 q 425 467 451 479 q 328 455 398 455 z "},"":{"ha":549,"x_min":87,"x_max":450,"o":"m 272 991 q 420 873 420 991 q 370 768 420 819 q 351 743 351 750 q 378 726 351 743 q 450 609 450 680 l 450 596 q 395 487 450 532 q 254 441 340 441 l 241 441 q 134 467 180 441 q 87 523 87 493 l 87 532 q 124 560 87 560 q 178 542 130 560 q 262 524 226 524 q 317 548 298 524 q 337 608 337 572 q 245 693 337 676 q 196 734 196 703 q 252 774 196 739 q 309 844 309 810 q 244 908 309 908 q 176 892 216 908 q 129 876 136 876 q 100 908 100 876 q 151 965 100 939 q 272 991 201 991 z "},"":{"ha":477,"x_min":123,"x_max":387,"o":"m 387 976 l 387 966 q 244 811 387 922 q 159 767 187 767 l 155 767 q 123 786 123 767 l 123 789 q 238 965 123 818 q 315 1004 269 1004 l 334 1004 q 387 976 387 1004 z "},"":{"ha":804,"x_min":99,"x_max":720,"o":"m 99 597 q 176 669 99 669 q 240 626 220 669 q 254 484 254 597 l 253 462 q 252 416 252 439 l 251 371 l 250 326 q 274 151 250 195 q 374 92 305 92 q 456 114 418 92 q 517 177 495 136 q 540 341 540 218 l 541 363 q 541 408 541 386 l 542 474 q 553 612 542 587 q 613 647 568 647 q 673 604 658 647 q 681 467 681 580 q 700 234 681 353 q 720 115 720 115 l 720 98 q 701 39 720 60 q 650 19 682 19 q 584 33 618 19 q 527 47 549 47 q 453 31 506 47 q 338 8 400 14 q 261 -9 276 3 q 241 -102 245 -21 q 224 -210 236 -184 q 167 -249 208 -249 q 116 -199 126 -249 q 105 54 105 -150 l 109 345 l 109 456 q 105 519 109 479 l 99 577 l 99 597 z "},"":{"ha":810,"x_min":82,"x_max":705,"o":"m 82 680 q 289 944 82 901 q 469 958 354 958 l 494 958 q 665 949 625 958 q 705 906 705 941 q 694 860 705 903 q 675 779 684 818 q 667 630 667 741 l 667 605 q 666 555 666 581 l 665 481 l 665 204 l 666 154 q 667 81 666 113 l 669 58 l 671 34 q 673 -14 673 5 q 633 -68 673 -68 q 578 8 589 -68 q 567 367 567 85 q 553 746 567 648 q 520 780 548 780 q 463 749 468 780 q 460 479 460 738 q 450 118 460 221 q 432 -7 440 15 q 392 -42 418 -42 q 343 18 343 -42 l 349 129 q 312 372 349 295 q 221 465 289 422 q 129 540 153 509 q 82 680 82 601 z "},"":{"ha":385,"x_min":100,"x_max":283,"o":"m 100 443 q 122 503 100 484 q 171 521 144 521 l 190 523 l 202 523 q 283 442 283 523 l 283 427 q 264 370 283 392 q 217 347 245 347 l 195 345 l 177 345 q 153 347 167 347 q 120 365 138 347 q 102 410 102 383 l 100 425 l 100 443 z "},"":{"ha":474,"x_min":123,"x_max":368,"o":"m 178 -224 q 235 -207 216 -224 q 254 -166 254 -190 q 216 -124 254 -142 q 177 -77 177 -106 q 200 -3 177 -33 q 237 10 210 10 l 242 9 q 269 -28 269 9 q 318 -77 269 -43 q 368 -162 368 -112 l 368 -168 q 321 -259 368 -226 q 218 -292 273 -292 l 195 -292 q 123 -260 123 -292 l 123 -256 q 163 -226 123 -226 q 178 -224 172 -224 z "},"":{"ha":464,"x_min":92,"x_max":349,"o":"m 264 450 l 222 450 q 142 473 171 450 q 130 501 130 482 q 152 547 130 520 q 181 594 175 574 q 187 712 187 614 q 177 830 187 810 q 129 860 166 851 q 92 895 92 869 q 122 928 92 909 q 254 983 214 983 l 262 983 q 296 949 292 983 l 296 774 q 301 598 296 616 q 327 548 305 581 q 349 498 349 516 l 349 492 q 332 466 349 481 q 264 450 315 450 z "},"":{"ha":571,"x_min":58,"x_max":496,"o":"m 374 714 l 374 740 l 373 755 l 372 774 q 341 860 372 825 q 272 895 310 895 l 267 895 q 201 857 227 895 q 174 766 174 819 l 174 761 l 173 755 l 172 735 l 172 713 q 197 602 172 647 q 261 556 222 556 l 283 556 q 350 601 325 556 q 374 714 374 646 m 496 739 l 496 707 q 434 549 496 610 q 282 488 373 488 l 258 488 q 112 551 167 488 q 58 713 58 614 l 58 729 q 117 894 58 830 q 269 958 176 958 l 285 958 q 321 956 301 956 q 382 937 341 956 q 450 882 424 917 q 496 739 496 823 z "},"":{"ha":743,"x_min":88,"x_max":672,"o":"m 126 654 q 273 523 149 654 q 397 379 397 391 l 397 372 q 273 225 397 357 q 130 93 149 93 l 123 93 q 90 129 90 93 q 179 259 90 152 q 268 376 268 366 q 178 486 268 378 q 88 616 88 594 l 88 623 q 126 654 88 654 m 391 662 q 541 530 409 662 q 672 374 672 399 q 540 218 672 350 q 396 86 408 86 l 389 86 q 355 123 355 86 q 449 256 355 151 q 543 376 543 361 q 493 438 543 378 l 477 456 l 439 500 q 354 628 354 609 q 391 662 354 662 z "},"":{"ha":1102,"x_min":105,"x_max":1003,"o":"m 701 203 l 777 203 q 822 233 822 203 l 822 288 l 821 291 l 821 310 l 821 319 l 821 349 l 821 355 l 821 368 l 822 380 l 822 417 q 819 421 822 421 q 781 364 817 421 q 713 262 745 307 q 681 208 681 217 l 681 207 q 701 203 681 203 m 216 408 q 160 425 180 408 q 141 460 141 441 q 161 504 141 479 q 186 555 180 528 q 193 674 193 582 q 180 793 193 766 q 136 836 168 820 q 105 868 105 851 q 137 904 105 885 q 261 956 223 956 l 269 956 q 303 924 298 956 l 303 833 l 302 791 q 302 766 302 779 l 301 740 q 303 560 301 577 q 326 505 306 543 q 346 460 346 467 l 346 454 q 329 425 346 439 q 273 410 311 410 l 248 408 l 216 408 m 800 943 l 811 943 q 850 921 850 943 q 828 870 850 911 q 352 60 624 498 q 265 -12 308 -12 q 222 12 222 -12 q 262 92 222 26 l 359 256 q 379 292 370 277 q 398 323 389 307 q 431 379 407 340 l 460 431 q 523 536 473 452 q 631 721 574 621 q 728 883 688 822 q 800 943 768 943 m 874 -16 q 808 69 808 -16 q 791 96 808 84 q 702 122 755 122 q 627 134 648 122 q 605 174 605 146 q 810 486 605 233 q 887 534 849 534 l 896 534 q 937 509 928 534 q 941 431 941 495 l 941 326 q 943 299 943 308 q 985 196 943 239 q 1003 174 1003 178 l 1003 170 q 982 109 1003 132 q 962 52 962 87 q 944 1 962 18 q 883 -16 926 -16 l 874 -16 z "},"":{"ha":1139,"x_min":94,"x_max":1043,"o":"m 252 411 l 219 411 q 147 433 180 411 q 132 465 132 443 q 153 513 132 486 q 180 565 174 539 q 186 685 186 590 q 173 800 186 779 q 127 832 161 820 q 94 865 94 845 l 94 870 q 124 903 94 886 q 254 959 225 959 l 262 959 q 294 931 288 959 q 294 757 294 928 q 297 567 294 587 q 320 515 300 547 q 340 464 340 482 l 340 457 q 322 427 340 442 q 252 411 304 411 m 794 958 l 805 958 q 845 935 845 958 q 352 54 845 895 q 274 -17 311 -17 l 263 -17 q 223 5 223 -17 q 243 52 223 18 q 464 444 263 87 q 712 880 665 802 q 794 958 759 958 m 891 -7 l 839 -7 q 699 0 724 -7 q 673 31 673 7 l 673 41 q 769 179 673 86 q 891 309 866 273 q 917 382 917 345 q 897 437 917 419 q 846 456 877 456 q 772 425 815 456 q 709 393 728 393 q 680 435 680 393 q 734 511 680 477 q 852 545 788 545 l 866 545 q 990 502 947 545 q 1033 396 1033 459 q 985 273 1033 332 q 891 181 965 247 q 817 96 817 115 q 874 85 817 85 q 971 92 932 85 q 1013 99 1010 99 q 1043 60 1043 99 q 1016 7 1043 21 q 891 -7 989 -7 z "},"":{"ha":1159,"x_min":96,"x_max":1067,"o":"m 842 202 q 886 207 880 202 q 892 271 892 212 l 892 274 l 892 277 l 892 296 l 891 306 l 891 312 l 890 318 q 887 416 890 416 q 871 393 884 416 q 801 290 857 369 q 745 205 745 212 q 751 202 745 202 l 757 202 l 760 203 l 803 202 l 842 202 m 264 405 l 239 405 q 141 430 186 405 q 96 485 96 454 q 135 523 96 523 q 186 505 142 523 q 263 487 229 487 q 321 509 297 487 q 346 568 346 530 q 254 659 346 637 q 208 692 208 670 q 264 742 208 713 q 321 817 321 770 q 302 861 321 843 q 257 878 284 878 q 191 862 229 878 q 136 845 152 845 q 113 877 113 845 q 161 937 113 909 q 275 964 209 964 l 288 964 q 394 933 357 964 q 431 857 431 903 q 414 783 431 810 q 379 736 397 755 q 360 712 360 716 q 374 700 359 708 q 458 577 458 655 l 458 564 q 403 452 458 500 q 264 405 348 405 m 872 952 l 884 952 q 923 929 923 952 q 888 857 923 915 q 587 348 718 574 q 413 56 456 122 q 337 -9 370 -9 l 326 -9 q 286 14 286 -9 q 309 64 286 26 q 585 532 449 298 q 793 880 721 766 q 872 952 839 952 m 947 -12 l 930 -12 q 889 9 905 -12 q 873 62 873 31 q 831 114 873 94 q 754 125 808 125 q 684 142 700 125 q 669 171 669 159 l 669 177 q 851 459 669 223 q 952 538 912 538 l 961 538 q 1002 512 995 538 q 1005 435 1005 500 l 1005 347 l 1006 310 q 1007 275 1007 301 q 1050 200 1007 248 q 1067 177 1067 182 l 1067 173 q 1046 114 1067 146 q 1025 55 1025 83 q 1010 7 1025 26 q 947 -12 994 -12 z "},"":{"ha":665,"x_min":79,"x_max":573,"o":"m 458 715 q 440 657 458 683 q 387 632 422 632 l 367 632 q 309 652 332 632 q 285 709 285 671 q 282 724 282 720 l 282 744 q 304 792 282 774 q 357 810 326 810 l 375 810 q 436 790 416 810 q 456 744 456 770 l 458 728 l 458 715 m 369 527 q 420 438 420 527 q 399 347 420 389 q 327 252 378 304 q 253 162 275 200 q 231 71 231 125 q 267 -14 231 16 q 351 -43 303 -43 q 456 -12 398 -43 q 532 19 513 19 q 573 -31 573 19 q 523 -115 573 -81 q 361 -163 453 -163 l 336 -163 q 150 -102 221 -163 q 79 54 79 -42 l 79 66 q 214 311 79 197 q 288 381 267 353 q 315 458 308 410 q 324 508 323 506 q 358 527 334 527 l 369 527 z "},"":{"ha":909,"x_min":52,"x_max":839,"o":"m 366 387 l 503 387 l 509 388 l 526 389 q 536 389 531 389 q 559 402 559 389 l 559 407 q 448 739 559 479 q 423 787 428 787 q 398 734 422 787 q 332 551 373 681 q 292 407 292 420 l 292 403 q 366 387 292 387 m 256 1206 l 256 1216 q 313 1251 256 1251 l 321 1251 q 409 1213 366 1251 q 530 1056 530 1107 l 530 1053 q 503 1029 530 1029 l 496 1029 l 492 1029 q 382 1079 446 1029 q 256 1206 256 1177 m 839 104 q 797 24 839 58 q 729 8 777 8 q 664 25 682 8 q 646 85 646 42 q 626 181 646 128 q 591 253 607 234 q 427 287 561 287 q 271 267 294 287 q 225 182 248 248 q 203 64 203 116 q 149 12 203 12 q 90 31 109 12 q 52 113 52 69 q 80 175 52 129 q 133 288 109 220 q 342 884 334 869 q 441 951 376 951 q 444 951 443 951 q 505 932 481 951 q 661 581 564 882 q 774 239 758 280 q 814 163 790 198 q 839 104 839 129 z "},"":{"ha":908,"x_min":52,"x_max":837,"o":"m 559 407 l 559 416 q 454 749 559 484 q 431 796 435 796 l 428 796 q 390 717 427 796 q 321 531 353 638 q 290 409 290 423 l 290 405 q 313 393 290 393 l 351 393 l 356 394 l 433 395 q 559 407 559 395 m 562 1244 l 573 1244 q 629 1207 629 1244 l 629 1203 l 629 1200 q 531 1094 629 1170 q 386 1018 433 1018 l 382 1019 q 353 1044 353 1019 l 354 1047 q 473 1204 354 1099 q 562 1244 518 1244 m 837 113 q 794 35 837 68 q 726 18 773 18 q 661 35 679 18 q 642 95 642 52 q 622 192 642 137 q 576 269 602 248 q 422 290 550 290 q 267 267 294 290 q 215 151 239 244 q 203 82 206 117 q 199 43 200 47 q 150 22 189 22 q 91 41 111 22 q 52 121 52 80 q 79 182 52 144 q 120 255 106 220 q 159 370 134 290 q 248 633 184 450 q 335 866 311 817 q 382 933 359 916 q 443 949 406 949 q 506 928 479 949 q 563 839 532 906 q 656 590 593 772 q 744 328 720 407 q 779 229 769 248 q 812 173 788 209 q 837 113 837 137 z "},"":{"ha":909,"x_min":50,"x_max":842,"o":"m 559 406 l 559 415 q 521 550 559 426 q 455 731 482 674 q 428 789 429 789 l 425 789 q 414 769 422 789 q 402 741 406 749 q 319 511 351 637 q 304 461 316 500 q 292 410 292 422 l 292 406 q 353 392 292 392 l 405 392 l 411 393 l 428 393 q 559 406 559 393 m 650 1043 q 612 1023 650 1023 q 524 1066 574 1023 q 483 1103 521 1068 q 441 1137 446 1137 q 378 1079 436 1137 q 277 1021 320 1021 l 272 1021 q 236 1042 236 1021 q 256 1078 236 1055 q 384 1221 360 1201 q 444 1242 408 1242 l 450 1242 q 510 1217 484 1242 q 650 1043 650 1088 m 842 104 q 798 26 842 60 q 747 10 778 10 l 730 10 q 654 38 673 10 q 646 81 648 49 q 640 135 644 114 q 580 264 621 229 q 422 287 553 287 q 269 266 292 287 q 224 180 247 245 q 202 53 202 115 q 147 14 202 14 q 96 26 113 14 q 50 101 50 58 l 50 115 q 76 174 50 136 q 116 246 102 211 q 159 373 130 281 q 254 650 189 464 q 340 877 320 836 q 383 934 359 918 q 448 950 406 950 q 516 920 490 950 q 568 831 543 889 q 692 489 594 772 q 794 199 791 205 q 842 104 842 114 z "},"":{"ha":908,"x_min":54,"x_max":841,"o":"m 563 408 l 563 417 l 562 422 l 559 433 l 555 448 q 552 460 555 450 q 545 486 550 471 q 540 504 541 501 q 454 739 515 609 l 429 793 l 426 793 q 395 729 425 793 q 329 548 366 665 q 292 413 292 431 l 292 409 q 424 395 292 395 l 516 395 q 563 408 563 395 m 346 1202 l 357 1202 l 363 1202 q 457 1172 393 1202 q 542 1141 522 1141 q 599 1166 563 1141 q 646 1191 635 1191 q 671 1164 671 1191 l 671 1159 q 633 1080 671 1118 q 550 1042 595 1042 l 534 1042 q 438 1072 501 1042 q 351 1102 374 1102 q 294 1077 328 1102 q 244 1051 260 1051 q 218 1078 218 1051 l 218 1083 q 260 1165 218 1127 q 346 1202 301 1202 m 54 115 q 79 172 54 136 q 118 242 104 208 q 217 535 133 277 q 331 856 302 793 q 383 936 360 919 q 445 952 406 952 q 507 931 483 952 q 574 817 531 909 q 698 477 618 725 q 785 214 779 230 q 817 165 792 199 q 841 96 841 132 q 796 27 841 60 q 728 12 775 12 q 664 28 681 12 q 646 91 646 45 q 625 192 646 137 q 578 268 604 246 q 422 290 551 290 q 271 269 293 290 q 227 186 248 249 q 205 55 205 123 q 158 15 205 15 q 92 34 112 15 q 54 115 54 71 z "},"":{"ha":905,"x_min":43,"x_max":833,"o":"m 328 392 l 504 392 q 550 406 550 392 l 550 410 q 441 745 550 474 q 420 793 422 793 l 416 793 q 395 746 414 793 q 284 411 284 469 l 284 406 q 328 392 284 392 m 231 1117 l 231 1135 l 232 1138 l 232 1143 q 233 1160 233 1148 q 249 1187 233 1171 q 285 1202 264 1202 q 292 1204 289 1204 l 302 1205 l 321 1205 q 341 1202 332 1202 q 382 1154 382 1202 q 384 1147 384 1149 l 385 1133 l 385 1125 l 382 1103 q 365 1069 382 1086 q 311 1053 349 1053 l 300 1053 l 279 1055 q 247 1071 262 1055 q 231 1117 231 1086 m 495 1113 l 495 1128 q 512 1180 495 1163 q 553 1198 530 1198 l 568 1200 l 581 1200 q 626 1185 609 1200 q 643 1146 643 1171 l 645 1131 l 645 1114 l 642 1096 q 626 1061 642 1078 q 576 1044 609 1044 l 561 1044 l 541 1047 q 509 1064 522 1047 q 495 1113 495 1082 m 833 104 q 789 26 833 60 q 738 11 769 11 l 722 11 q 657 28 675 11 q 640 90 640 45 q 618 191 640 134 q 570 269 596 248 q 414 290 543 290 q 261 270 285 290 q 217 188 238 249 q 196 71 196 126 q 142 16 196 16 q 81 35 101 16 q 43 115 43 72 q 71 176 43 135 q 111 248 99 217 q 143 346 122 279 q 237 624 164 413 q 331 879 310 835 q 375 938 353 922 q 435 954 397 954 q 498 933 473 954 q 657 575 558 884 q 771 231 757 265 q 809 164 785 197 q 833 104 833 132 z "},"":{"ha":920,"x_min":37,"x_max":842,"o":"m 428 1079 l 448 1079 q 491 1100 474 1079 q 507 1131 507 1120 l 509 1143 l 509 1160 l 507 1173 q 491 1200 507 1181 q 456 1219 475 1219 q 450 1221 452 1221 l 437 1222 l 435 1222 l 433 1221 l 427 1221 l 418 1220 q 385 1203 402 1220 q 368 1169 368 1185 l 366 1158 l 366 1143 l 368 1128 q 389 1096 368 1112 q 428 1079 410 1079 m 487 393 q 555 407 555 393 l 555 412 q 445 750 555 492 q 422 797 425 797 l 420 797 q 400 755 416 797 q 287 411 287 472 l 287 407 q 332 393 287 393 l 401 393 l 407 394 l 469 393 l 487 393 m 428 1282 l 451 1282 q 465 1281 460 1281 q 543 1242 509 1281 q 578 1165 578 1204 l 578 1143 q 539 1057 578 1095 q 443 1018 500 1018 l 429 1018 q 335 1056 372 1018 q 297 1140 297 1093 l 297 1158 q 335 1244 297 1206 q 428 1282 374 1282 m 713 18 q 711 18 712 18 q 637 79 637 18 l 638 133 q 618 207 638 157 q 571 280 598 257 q 412 304 543 304 q 255 275 281 304 q 216 189 237 255 q 195 85 195 123 q 184 35 195 46 q 137 23 174 23 q 79 43 101 23 q 37 109 37 80 l 37 123 q 61 177 37 142 q 95 234 86 212 q 187 508 104 256 q 306 838 269 761 q 367 936 342 916 q 426 956 391 956 l 444 956 q 509 930 479 956 q 670 568 574 873 q 780 230 766 262 q 818 164 795 198 q 842 115 842 131 l 842 100 q 811 49 842 79 q 745 18 781 18 l 713 18 z "},"":{"ha":1240,"x_min":77,"x_max":1137,"o":"m 586 788 q 576 818 586 818 q 512 749 553 818 q 457 640 471 680 q 409 530 444 601 q 363 444 374 459 q 352 417 352 428 l 352 414 q 377 408 352 408 l 405 410 q 421 408 416 408 l 475 403 l 491 401 l 528 401 q 574 421 569 401 q 578 625 578 441 l 582 688 q 582 700 582 694 l 586 772 l 586 788 m 1114 861 q 1067 827 1114 827 l 889 842 q 789 822 814 842 q 746 697 746 787 q 768 579 746 608 q 852 550 789 550 q 901 556 871 550 l 949 566 q 1030 533 1005 566 q 1045 463 1045 514 q 986 416 1045 416 l 962 420 l 938 425 q 886 428 915 428 q 780 392 808 428 q 752 293 752 357 q 794 149 752 191 q 909 121 821 121 l 1080 142 q 1137 100 1137 142 q 1103 33 1137 54 q 970 12 1069 12 l 939 12 q 696 25 758 12 q 615 55 635 39 q 594 102 594 72 l 595 123 l 597 172 q 560 287 597 258 q 445 307 534 307 q 306 260 355 307 q 220 98 257 213 l 214 79 q 205 47 207 51 q 157 27 192 27 q 99 51 122 27 q 77 104 77 75 q 112 183 77 132 q 163 264 146 234 q 235 415 179 294 q 479 895 437 852 q 562 928 503 919 q 778 937 621 937 l 933 940 q 1114 861 1114 940 z "},"":{"ha":882,"x_min":63,"x_max":801,"o":"m 440 -311 l 422 -311 q 358 -272 358 -311 l 358 -267 q 399 -234 358 -234 q 459 -217 439 -234 q 478 -173 478 -199 q 447 -124 478 -147 q 416 -86 416 -102 q 438 -20 416 -47 q 304 13 369 -14 q 98 237 154 76 q 63 429 63 334 l 63 475 q 94 668 63 576 q 176 819 124 760 q 307 912 227 878 q 459 946 386 946 q 627 921 532 946 q 724 895 722 896 q 774 845 751 880 q 798 775 798 810 q 749 716 798 716 q 695 739 741 716 l 664 755 q 614 781 619 779 q 465 821 528 821 q 358 794 403 821 q 235 463 235 719 q 366 136 235 208 q 478 110 413 110 q 695 174 543 110 q 765 198 753 198 q 801 154 801 198 q 775 100 801 138 q 711 39 750 62 q 499 -21 612 -20 q 500 -36 500 -27 q 549 -88 500 -43 q 599 -187 599 -133 l 598 -193 q 551 -275 598 -239 q 440 -311 505 -311 z "},"":{"ha":804,"x_min":92,"x_max":720,"o":"m 477 1029 l 470 1029 l 467 1030 q 372 1071 425 1030 q 231 1212 231 1181 l 231 1215 q 288 1253 231 1253 l 294 1253 q 376 1220 338 1253 q 488 1092 414 1186 q 503 1059 503 1072 l 503 1046 q 477 1029 503 1029 m 538 574 q 608 497 608 574 q 596 429 608 451 q 549 408 583 408 q 493 421 539 408 q 390 434 448 434 q 307 408 332 434 q 281 300 281 382 q 317 132 281 168 q 396 110 338 110 q 579 127 500 110 q 671 144 659 144 q 720 101 720 144 q 685 22 720 39 q 518 5 650 5 l 414 5 q 144 17 197 5 q 92 65 92 28 q 106 117 92 81 q 125 190 120 153 q 130 487 130 227 q 125 780 130 746 q 107 848 120 813 q 94 884 94 883 q 136 933 94 922 q 432 949 196 949 l 587 949 q 672 930 646 949 q 697 869 697 912 q 640 821 697 821 q 606 824 629 821 l 587 827 q 415 844 492 844 q 309 808 338 844 q 281 687 281 771 q 298 583 281 604 q 415 550 328 550 q 486 562 445 550 q 538 574 528 574 z "},"":{"ha":804,"x_min":94,"x_max":713,"o":"m 356 1006 q 321 1034 321 1006 l 321 1041 q 442 1203 321 1082 q 522 1243 482 1243 l 538 1243 q 589 1220 589 1243 l 589 1211 q 498 1099 589 1191 q 377 1008 406 1008 l 370 1006 l 356 1006 m 544 588 q 608 510 608 588 q 594 445 608 467 q 547 424 581 424 q 498 437 543 424 q 396 450 454 450 q 309 419 338 450 q 289 317 289 399 q 325 155 289 189 q 426 135 347 135 q 582 150 506 135 q 669 165 657 165 q 713 121 713 165 q 677 46 713 64 q 510 28 641 28 l 357 28 q 141 40 189 28 q 94 90 94 52 q 110 143 94 104 q 130 229 125 182 q 134 504 134 275 q 130 775 134 733 q 112 854 126 817 q 98 892 98 890 q 142 940 98 930 q 333 954 207 954 l 383 955 l 485 956 l 510 955 q 652 946 629 955 q 692 874 692 931 q 637 828 692 828 q 555 840 635 828 q 409 852 475 852 q 316 816 342 852 q 291 699 291 781 q 309 595 291 617 q 422 564 336 564 q 492 576 452 564 q 544 588 533 588 z "},"":{"ha":804,"x_min":89,"x_max":720,"o":"m 581 1029 l 570 1029 q 476 1087 538 1029 q 411 1144 414 1144 q 345 1087 407 1144 q 244 1031 283 1031 q 205 1050 205 1031 q 338 1215 205 1082 q 410 1249 371 1249 l 415 1249 q 570 1118 471 1248 q 616 1053 616 1058 l 616 1049 q 581 1029 616 1029 m 89 66 q 105 123 89 83 q 125 209 122 162 q 128 484 128 255 q 124 760 128 713 q 106 845 120 807 q 92 886 92 884 q 136 935 92 924 q 407 949 201 949 l 536 949 q 656 940 630 949 q 697 871 697 924 q 653 818 697 818 q 606 823 637 818 l 587 826 q 412 842 487 842 q 311 805 337 842 q 284 684 284 767 q 302 581 284 601 q 419 549 330 549 q 495 561 450 549 q 543 573 540 573 q 594 555 578 573 q 610 493 610 536 q 596 428 610 450 q 547 406 582 406 q 495 420 541 406 q 393 433 450 433 q 304 402 335 433 q 284 286 284 381 q 307 151 284 190 q 417 112 330 112 q 584 127 504 112 q 673 143 664 143 q 720 99 720 143 q 707 42 720 62 q 661 13 694 22 q 435 3 627 3 l 409 3 q 139 16 189 3 q 89 66 89 29 z "},"":{"ha":804,"x_min":90,"x_max":716,"o":"m 347 1117 q 331 1062 347 1079 q 294 1046 314 1046 l 283 1044 l 267 1044 q 198 1109 198 1044 l 198 1133 q 215 1185 198 1168 q 255 1202 232 1202 l 273 1204 l 286 1204 l 302 1201 q 345 1150 345 1201 q 346 1142 346 1145 l 347 1131 l 347 1117 m 463 1136 l 464 1149 q 480 1187 464 1171 q 519 1203 496 1203 l 534 1205 l 553 1205 q 612 1158 612 1205 q 614 1148 614 1152 l 616 1135 l 616 1124 q 612 1095 612 1108 q 593 1067 612 1082 q 535 1052 574 1052 l 532 1053 l 527 1053 l 519 1053 l 505 1056 q 464 1107 464 1056 l 462 1123 l 462 1133 l 463 1136 m 604 500 q 555 411 604 411 q 489 425 530 411 q 389 438 448 438 q 304 413 330 438 q 279 307 279 389 q 313 138 279 176 q 410 115 334 115 q 573 132 486 115 q 667 149 660 149 q 716 109 716 149 l 716 90 q 682 30 716 48 q 568 12 648 12 l 362 12 q 140 23 191 12 q 90 70 90 34 q 105 127 90 92 q 124 210 120 163 q 128 463 128 256 q 125 740 128 669 q 107 847 123 811 q 92 903 92 883 q 161 940 92 930 q 453 951 230 951 l 582 951 q 669 933 644 951 q 694 878 694 915 q 680 831 694 842 q 648 821 666 821 q 556 834 629 821 q 408 848 484 848 q 305 812 332 848 q 278 648 278 777 q 391 553 278 553 q 485 565 440 553 q 534 577 530 577 q 588 561 571 577 q 604 500 604 544 z "},"":{"ha":456,"x_min":45,"x_max":355,"o":"m 45 1209 l 45 1216 q 96 1251 45 1251 l 106 1251 q 176 1224 141 1251 q 287 1098 210 1197 q 313 1048 313 1064 l 313 1038 q 288 1018 313 1018 l 281 1018 l 278 1019 q 144 1096 243 1019 q 45 1209 45 1173 m 241 16 l 191 16 q 122 31 152 16 q 92 69 92 46 q 114 127 92 92 q 141 203 136 163 q 146 474 146 243 q 141 751 146 705 q 112 844 136 796 q 87 897 87 892 q 117 937 87 922 q 199 952 146 952 l 224 954 l 250 954 q 321 938 293 954 q 349 900 349 922 q 328 845 349 878 q 302 778 307 811 q 298 493 298 744 q 304 201 298 243 q 332 125 310 159 q 355 70 355 92 q 327 32 355 48 q 241 16 299 16 z "},"":{"ha":457,"x_min":90,"x_max":400,"o":"m 157 1010 q 136 1029 136 1010 l 136 1039 q 249 1199 136 1072 q 343 1249 293 1249 l 347 1249 q 400 1212 400 1249 l 400 1205 l 399 1202 q 300 1089 399 1166 q 177 1011 200 1011 l 171 1010 l 157 1010 m 229 24 l 203 24 q 121 39 152 24 q 90 79 90 55 q 112 136 90 104 q 140 213 134 169 q 146 491 146 256 q 140 768 146 725 q 112 844 134 812 q 90 888 90 877 l 90 899 q 133 945 90 928 q 216 955 159 955 l 266 955 q 331 938 307 955 q 355 901 355 922 q 334 846 355 880 q 307 774 313 812 q 301 491 301 736 q 306 210 301 245 q 334 134 311 174 q 356 90 356 94 l 356 80 q 229 24 356 24 z "},"":{"ha":461,"x_min":24,"x_max":427,"o":"m 220 1244 l 236 1244 q 337 1163 274 1244 q 427 1047 427 1048 l 427 1042 q 387 1022 427 1022 q 287 1076 346 1023 q 225 1128 229 1128 q 208 1115 221 1128 l 161 1074 q 69 1021 99 1021 l 59 1021 q 24 1042 24 1021 q 147 1202 24 1067 q 220 1244 186 1244 m 245 15 l 193 15 q 123 29 154 15 q 92 68 92 43 q 114 126 92 93 q 141 194 136 160 q 146 467 146 228 q 141 751 146 707 q 113 842 136 795 q 90 893 90 888 q 141 944 90 927 q 239 952 165 952 l 252 952 q 324 938 293 952 q 355 900 355 924 q 334 841 355 875 q 308 776 313 808 q 303 491 303 745 q 309 198 303 237 q 336 123 315 159 q 358 66 358 87 q 328 30 358 45 q 245 15 298 15 z "},"":{"ha":458,"x_min":17,"x_max":429,"o":"m 17 1109 l 17 1124 q 37 1181 17 1162 q 83 1201 56 1201 l 100 1201 q 142 1184 123 1201 q 162 1139 162 1168 l 164 1123 l 164 1106 q 146 1053 164 1075 q 98 1031 129 1031 l 81 1031 q 35 1053 52 1031 q 17 1109 17 1074 m 359 1052 l 340 1052 q 293 1067 309 1052 q 277 1105 277 1083 l 275 1117 l 275 1139 q 291 1184 275 1166 q 330 1202 306 1202 q 337 1204 335 1204 l 350 1205 l 361 1205 l 381 1202 q 426 1155 426 1202 q 427 1147 427 1149 l 429 1137 l 429 1121 l 426 1103 q 409 1068 426 1085 q 359 1052 393 1052 m 149 654 l 147 737 q 120 836 147 797 q 92 888 92 876 l 92 898 q 124 940 92 925 q 215 955 157 955 l 265 955 q 328 938 304 955 q 352 901 352 922 q 331 846 352 880 q 304 778 309 812 q 299 496 299 743 q 305 207 299 249 q 333 131 311 164 q 355 87 355 98 l 355 77 q 231 20 355 20 l 218 20 q 124 36 155 20 q 94 75 94 51 q 117 133 94 99 q 145 207 140 168 q 149 395 149 247 l 149 628 l 149 654 z "},"":{"ha":967,"x_min":58,"x_max":880,"o":"m 364 92 l 425 92 q 638 185 563 92 q 714 451 714 278 l 714 479 l 713 492 q 646 754 713 667 q 548 833 603 809 q 416 857 492 857 l 368 857 q 302 823 315 857 q 294 693 294 802 l 294 644 q 313 554 294 571 q 388 533 331 538 q 454 524 445 528 q 477 485 477 516 q 453 444 477 453 q 391 434 445 440 q 316 410 338 428 q 294 309 294 393 l 294 271 l 295 259 l 295 234 q 307 116 295 140 q 364 92 318 92 m 112 903 q 149 942 112 936 q 360 951 201 951 l 412 951 q 753 840 635 951 q 846 691 812 784 q 880 484 880 599 l 880 466 q 846 269 879 359 q 610 28 781 88 q 408 -1 530 -1 l 288 -1 q 147 5 179 -1 q 115 39 115 12 q 131 86 115 50 q 151 162 146 123 q 155 304 155 201 q 149 419 155 407 q 100 440 142 432 q 58 476 58 449 l 58 491 q 85 533 58 523 q 116 540 90 534 q 149 556 142 546 q 155 627 155 566 l 153 709 q 133 857 153 816 q 112 903 112 897 z "},"":{"ha":984,"x_min":87,"x_max":890,"o":"m 380 1206 l 402 1206 q 498 1174 433 1206 q 589 1141 563 1141 q 645 1169 614 1141 q 693 1197 675 1197 q 720 1173 720 1197 l 720 1168 q 681 1086 720 1128 q 598 1044 642 1044 l 587 1044 q 487 1077 557 1044 q 396 1109 417 1109 q 339 1081 376 1109 q 290 1053 302 1053 q 263 1076 263 1053 l 263 1082 q 301 1162 263 1118 q 380 1206 338 1206 m 254 695 q 241 486 241 695 q 255 201 241 276 q 269 101 269 126 q 237 49 269 77 q 157 21 205 21 l 133 21 q 87 54 87 21 l 87 76 q 104 116 87 83 q 125 189 121 149 q 130 407 130 231 l 130 627 l 130 716 q 125 791 130 766 q 107 850 120 816 q 94 889 94 885 q 146 929 95 929 q 320 845 247 929 q 548 539 380 777 q 721 300 716 300 q 740 532 740 301 q 726 810 740 762 q 713 875 713 859 q 733 905 713 891 q 797 918 754 918 q 864 897 839 918 q 890 845 890 876 q 871 769 890 814 q 847 671 852 724 q 842 351 842 618 q 837 68 842 84 q 791 36 828 36 q 667 127 739 36 q 562 280 632 172 q 254 695 290 695 z "},"":{"ha":979,"x_min":67,"x_max":888,"o":"m 220 514 l 220 491 q 283 209 220 315 q 471 103 347 103 q 472 103 471 103 q 663 194 597 103 q 727 464 727 285 l 727 498 q 707 661 727 586 q 654 781 686 735 q 473 873 590 873 l 471 873 l 460 873 q 281 778 349 873 q 239 676 258 746 q 220 514 220 607 m 287 1207 l 287 1217 q 342 1253 287 1253 l 358 1253 q 454 1205 412 1253 q 563 1048 563 1080 q 534 1023 563 1023 l 526 1023 q 508 1025 516 1025 q 381 1099 476 1025 q 287 1207 287 1173 m 888 490 l 888 458 q 859 268 888 360 q 655 25 803 91 q 486 -13 570 -13 l 470 -13 q 176 109 283 -13 q 97 259 126 166 q 67 450 67 353 l 67 497 q 67 502 67 499 q 96 690 67 600 q 297 930 152 865 q 465 967 379 967 l 497 967 q 660 932 586 967 q 783 841 734 897 q 860 688 832 784 q 888 490 888 593 z "},"":{"ha":977,"x_min":68,"x_max":886,"o":"m 220 507 l 220 473 q 241 309 220 379 q 283 211 263 238 q 463 114 352 114 l 485 114 q 589 141 539 114 q 729 486 729 219 l 729 532 q 710 672 729 602 q 664 782 690 743 q 591 850 637 822 q 489 878 545 878 l 467 878 q 275 764 343 878 q 220 507 220 673 m 425 1011 l 406 1011 q 381 1034 381 1011 l 381 1041 q 399 1082 381 1055 q 596 1244 507 1244 l 604 1244 q 659 1211 659 1244 l 659 1204 q 544 1075 659 1164 q 425 1011 462 1011 m 886 501 l 886 454 q 886 450 886 452 q 856 261 886 350 q 651 24 796 87 q 481 -13 567 -13 l 465 -13 q 174 112 283 -13 q 96 265 124 169 q 68 469 68 361 l 68 485 q 98 688 68 595 q 300 930 154 865 q 469 966 379 966 l 486 966 q 770 852 663 966 q 855 699 824 795 q 886 501 886 602 z "},"":{"ha":978,"x_min":67,"x_max":888,"o":"m 729 476 l 729 521 q 706 669 729 595 q 652 785 682 744 q 474 873 586 873 l 463 873 q 278 767 346 873 q 238 664 257 734 q 218 500 218 594 l 218 489 q 239 319 218 393 q 356 140 276 184 q 465 110 410 110 l 487 110 q 671 215 606 110 q 729 476 729 307 m 468 1240 l 486 1240 q 551 1204 518 1240 q 677 1048 677 1067 l 677 1043 q 636 1023 677 1023 q 537 1076 595 1023 l 520 1090 q 475 1128 479 1128 q 441 1104 471 1128 q 310 1021 345 1021 l 300 1021 q 264 1042 264 1021 q 398 1207 264 1083 q 468 1240 434 1240 m 888 488 l 888 456 q 858 264 888 359 q 629 12 799 77 q 469 -15 558 -15 q 98 255 186 -15 q 67 448 68 347 l 67 495 q 97 688 67 594 q 296 928 153 862 q 464 966 377 966 l 480 966 q 661 929 583 966 q 784 836 739 892 q 859 689 830 779 q 888 488 888 598 z "},"":{"ha":980,"x_min":68,"x_max":890,"o":"m 219 529 l 219 472 q 239 326 219 402 q 291 205 260 250 q 372 136 323 161 q 477 112 420 112 l 489 113 l 500 113 q 670 210 598 113 q 713 313 694 241 q 733 460 733 385 l 733 517 q 712 663 733 587 q 478 876 653 876 l 477 876 l 465 876 q 283 781 351 876 q 239 674 258 745 q 219 529 219 603 m 374 1200 l 386 1200 l 392 1200 q 488 1170 422 1200 q 575 1141 555 1141 q 628 1164 596 1141 q 676 1188 659 1188 q 701 1160 701 1188 l 700 1154 l 700 1148 q 657 1070 700 1106 q 568 1034 615 1034 l 563 1035 q 464 1064 530 1035 q 376 1094 398 1094 q 319 1070 354 1094 q 269 1046 285 1046 q 245 1074 245 1046 l 245 1080 q 288 1163 245 1126 q 374 1200 332 1200 m 890 473 q 863 274 890 368 q 642 19 808 87 q 468 -13 564 -13 q 168 121 276 -13 q 94 275 119 181 q 68 468 68 369 l 69 484 l 69 500 q 98 687 69 597 q 174 836 126 777 q 300 931 222 895 q 470 967 378 967 l 501 967 q 655 935 578 967 q 779 848 731 903 q 858 702 826 793 q 890 488 890 610 l 890 473 z "},"":{"ha":978,"x_min":57,"x_max":882,"o":"m 214 526 l 214 468 q 273 212 214 311 q 354 131 305 158 q 455 104 402 104 l 477 104 q 661 212 593 104 q 715 467 715 300 l 715 513 q 697 656 715 579 q 650 777 680 733 q 575 849 621 821 q 476 876 529 876 l 443 876 q 346 848 392 876 q 270 772 299 821 q 214 526 214 678 m 351 1208 q 398 1194 381 1208 q 416 1158 416 1180 q 417 1149 417 1152 l 418 1137 l 418 1128 l 415 1106 q 363 1060 415 1060 q 356 1059 359 1059 l 346 1057 l 327 1057 l 309 1060 q 264 1111 264 1060 l 262 1126 l 262 1137 l 265 1157 q 280 1190 265 1175 q 315 1205 296 1205 q 325 1207 321 1207 l 338 1208 l 351 1208 m 678 1111 l 677 1089 q 661 1062 677 1078 q 623 1045 644 1045 q 610 1042 612 1042 l 587 1042 q 535 1060 552 1042 q 517 1099 517 1077 l 515 1116 l 515 1129 q 535 1181 515 1162 q 591 1200 554 1200 l 612 1200 q 657 1186 640 1200 q 675 1151 675 1172 l 679 1130 l 679 1114 l 678 1111 m 882 473 q 781 127 882 257 q 647 24 729 61 q 477 -12 565 -12 l 460 -12 q 286 23 365 -12 q 87 262 138 89 q 57 469 57 364 l 58 485 l 58 500 q 58 505 58 503 q 87 690 58 600 q 291 932 143 867 q 461 969 373 969 l 477 969 q 654 934 574 969 q 783 835 733 899 q 857 678 832 771 q 882 489 882 585 l 882 473 z "},"":{"ha":728,"x_min":109,"x_max":616,"o":"m 360 490 q 454 578 370 490 q 562 665 538 665 q 593 646 572 665 q 614 612 614 626 q 526 508 614 598 q 439 412 439 417 q 527 314 439 406 q 616 209 616 222 q 594 175 616 195 q 555 155 572 155 q 463 229 538 155 l 418 276 q 362 329 368 329 q 270 242 357 329 q 163 155 182 155 q 131 173 151 155 q 110 207 110 191 q 197 311 110 223 q 285 408 285 398 q 197 505 285 417 q 109 609 109 593 q 130 644 109 624 q 171 664 152 664 q 274 577 190 664 q 360 490 357 490 z "},"":{"ha":986,"x_min":74,"x_max":880,"o":"m 220 492 l 220 455 q 262 241 220 334 q 283 218 273 218 q 435 431 304 218 q 595 730 486 513 q 616 801 616 773 q 575 849 616 829 q 494 870 534 870 l 458 870 q 357 840 404 870 q 220 492 220 751 m 349 138 l 349 125 q 370 96 349 114 q 427 77 391 77 l 434 77 l 441 78 q 551 112 501 78 q 632 197 601 146 q 689 340 663 247 q 715 547 715 433 l 715 606 q 689 744 715 744 q 603 597 679 744 q 504 412 527 450 q 469 351 481 374 q 402 241 456 328 q 349 138 349 155 m 443 -9 l 293 5 q 241 -14 274 5 q 189 -32 208 -32 q 146 19 146 -32 l 155 83 q 136 165 155 122 q 74 454 75 304 l 74 473 q 106 675 75 577 q 325 929 165 861 q 483 962 404 962 q 604 954 562 962 q 664 946 646 946 q 715 963 683 946 q 765 980 747 980 q 808 930 808 980 l 808 918 l 802 892 q 800 857 800 880 q 825 771 800 833 q 852 697 849 709 q 880 513 880 608 l 880 477 q 846 274 880 372 q 625 23 784 91 q 443 -9 550 -9 z "},"":{"ha":956,"x_min":69,"x_max":869,"o":"m 292 1212 l 292 1218 q 349 1253 292 1253 l 357 1253 q 448 1213 403 1253 q 567 1058 567 1109 l 567 1055 q 540 1031 567 1031 l 529 1031 q 426 1078 486 1031 q 292 1212 292 1182 m 680 890 q 770 946 680 946 q 835 929 818 946 q 869 866 869 896 q 852 796 869 837 q 830 724 835 755 q 826 503 826 692 q 814 244 826 314 q 763 114 803 174 q 648 21 723 54 q 473 -12 573 -12 q 174 116 264 -12 q 123 256 134 174 q 112 508 112 339 q 108 716 112 676 q 86 793 104 756 q 69 865 69 829 q 113 932 69 901 q 171 945 130 945 q 287 878 287 945 q 277 829 287 871 q 264 512 264 768 q 307 181 264 255 q 493 91 360 91 q 675 208 625 91 q 706 507 706 279 q 693 810 706 736 q 680 890 680 884 z "},"":{"ha":956,"x_min":71,"x_max":867,"o":"m 434 1031 l 419 1031 q 390 1053 390 1031 l 390 1055 q 516 1202 390 1091 q 611 1247 568 1247 l 622 1247 q 667 1219 667 1247 l 667 1212 l 667 1208 q 572 1097 667 1164 q 434 1031 477 1031 m 176 949 q 290 883 290 949 q 284 848 290 872 q 268 579 268 777 q 268 544 268 561 q 274 314 268 374 q 492 107 294 107 q 675 224 626 107 q 704 592 704 294 q 691 821 704 751 q 677 898 677 892 q 779 950 677 950 q 833 932 816 950 q 867 869 867 899 q 850 799 867 840 q 829 728 833 758 q 825 525 825 698 q 817 279 825 353 q 773 142 809 206 q 661 40 737 78 q 498 1 584 1 l 445 1 q 283 36 353 1 q 176 126 213 71 q 126 257 138 181 q 113 440 113 333 l 113 585 l 113 610 q 112 690 112 634 q 92 788 112 745 q 71 842 71 831 l 71 863 q 116 937 71 905 q 176 949 134 949 z "},"":{"ha":956,"x_min":68,"x_max":869,"o":"m 473 1249 l 490 1249 q 606 1156 528 1249 q 685 1057 685 1063 l 685 1053 q 647 1034 685 1034 q 559 1076 609 1034 q 509 1121 536 1096 q 478 1146 481 1146 q 443 1116 475 1146 q 315 1033 353 1033 l 314 1033 l 304 1033 q 273 1052 273 1033 q 410 1219 273 1093 q 473 1249 442 1249 m 678 891 q 769 946 678 946 q 835 929 817 946 q 869 866 869 897 l 869 844 q 852 795 869 833 q 832 724 836 757 q 827 507 827 691 q 817 248 827 323 q 667 28 793 92 q 474 -14 585 -14 l 447 -14 q 285 20 357 -14 q 123 245 150 85 q 110 514 110 324 q 104 734 110 705 q 83 794 99 764 q 68 862 68 825 q 111 932 68 900 q 177 945 130 945 q 256 929 225 945 q 288 879 288 913 q 282 844 288 869 q 266 522 266 772 l 265 517 q 297 202 265 272 q 480 92 347 92 q 590 113 544 92 q 665 187 635 134 q 705 493 705 258 q 691 810 705 729 q 678 891 678 890 z "},"":{"ha":956,"x_min":63,"x_max":863,"o":"m 260 1139 q 262 1159 262 1150 q 278 1183 262 1168 q 330 1199 294 1199 l 352 1199 l 374 1196 q 417 1131 417 1196 l 417 1126 l 416 1124 l 414 1105 q 414 1093 414 1103 q 396 1065 414 1083 q 339 1048 378 1048 l 333 1048 l 307 1052 q 262 1105 262 1052 l 260 1116 q 260 1121 260 1118 l 260 1128 l 260 1131 l 260 1139 m 618 1204 q 639 1202 626 1202 q 668 1186 652 1202 q 684 1134 684 1170 l 684 1126 q 667 1072 684 1088 q 629 1055 650 1055 q 621 1053 623 1053 l 608 1052 l 597 1052 l 576 1055 q 531 1101 531 1055 q 530 1109 530 1107 l 528 1120 l 528 1135 l 531 1153 q 547 1186 531 1171 q 586 1202 562 1202 l 602 1204 l 618 1204 m 166 947 q 280 880 280 947 q 269 822 280 878 q 258 519 258 766 q 288 210 258 273 q 365 121 317 147 q 482 96 413 96 q 671 213 621 96 q 701 516 701 283 q 678 860 701 750 q 673 902 673 883 q 695 934 673 920 q 765 948 718 948 q 830 931 812 948 q 863 869 863 899 q 846 800 863 839 q 824 725 829 760 q 820 503 820 689 q 808 248 820 317 q 756 117 797 178 q 640 25 715 57 q 465 -7 564 -7 q 115 279 150 -7 q 106 513 106 345 q 102 720 106 682 q 81 794 98 758 q 63 867 63 830 q 107 935 63 904 q 166 947 124 947 z "},"":{"ha":843,"x_min":34,"x_max":795,"o":"m 343 1044 l 343 1047 q 361 1086 343 1063 q 474 1216 436 1182 q 554 1250 512 1250 l 557 1250 l 562 1249 q 617 1212 617 1249 l 617 1208 q 479 1076 617 1183 q 370 1023 411 1023 l 366 1023 q 343 1044 343 1023 m 605 907 q 713 949 631 949 q 795 920 795 949 q 736 823 795 899 q 632 638 713 795 q 542 461 551 481 q 502 220 502 369 q 519 135 502 172 q 536 76 536 98 q 511 34 536 54 q 437 14 485 14 l 399 14 q 334 26 357 14 q 298 81 298 45 q 312 130 298 96 q 331 184 326 163 q 337 288 337 204 q 287 474 337 372 q 193 647 274 500 q 96 816 113 794 q 34 911 34 895 q 128 947 34 947 q 256 904 222 947 q 275 846 267 890 q 308 745 282 802 q 437 524 410 524 q 559 730 486 559 q 593 845 584 787 q 605 907 602 903 z "},"":{"ha":833,"x_min":106,"x_max":755,"o":"m 591 486 l 591 515 q 538 656 591 608 q 395 705 486 705 l 383 705 l 378 704 q 306 690 323 704 q 288 635 288 677 l 288 346 q 308 303 288 315 q 373 292 329 292 l 397 292 q 536 342 481 292 q 591 486 591 393 m 186 5 q 107 54 107 5 q 120 109 107 76 q 139 171 134 142 q 145 285 145 199 l 146 301 q 146 338 146 317 l 146 559 l 145 623 q 144 656 144 640 l 144 671 q 143 743 143 688 q 124 839 143 798 q 106 901 106 880 q 178 949 106 949 q 288 919 251 949 q 336 848 324 890 q 367 814 342 827 q 497 783 391 801 q 663 718 602 765 q 729 633 704 686 q 755 507 755 579 q 670 295 755 372 q 579 240 628 256 q 468 214 530 223 q 385 196 405 205 q 328 132 328 171 q 330 104 330 116 q 292 32 330 60 q 200 5 254 5 l 186 5 z "},"":{"ha":836,"x_min":90,"x_max":772,"o":"m 540 776 q 513 845 540 812 q 434 878 487 878 q 294 766 331 878 q 262 235 262 671 q 253 57 262 87 q 151 -1 234 -1 q 90 35 90 -1 q 101 94 90 52 q 116 178 112 135 q 121 315 121 221 q 111 480 121 409 l 104 530 q 94 607 94 592 q 124 729 94 623 q 191 882 153 836 q 399 984 276 984 l 401 984 q 656 854 600 984 q 671 773 671 819 q 624 651 671 726 q 577 539 577 575 q 645 440 577 503 q 732 349 713 378 q 772 228 772 290 q 702 60 772 121 q 524 -1 632 -1 q 427 19 463 -1 q 392 75 392 39 q 435 103 392 103 l 450 102 l 468 102 q 508 101 487 101 q 593 133 555 101 q 631 216 631 164 q 604 302 631 268 q 517 375 576 336 q 432 443 457 414 q 407 516 407 473 q 473 639 407 560 q 540 776 540 718 z "},"":{"ha":716,"x_min":52,"x_max":637,"o":"m 297 96 l 310 96 q 414 134 376 96 q 452 238 452 172 l 452 285 q 410 336 452 336 l 379 336 l 374 335 l 357 334 l 335 332 q 234 299 275 332 q 192 214 192 267 l 192 191 q 222 122 192 149 q 297 96 252 96 m 400 761 l 393 761 q 309 809 363 761 q 170 964 170 932 l 170 967 q 222 1001 170 1001 l 241 1001 q 252 1000 248 1000 q 322 959 286 1000 q 432 787 432 836 l 432 781 q 400 761 432 761 m 637 56 q 550 7 637 7 q 487 23 528 7 q 438 40 446 40 q 361 17 429 40 q 239 -7 292 -7 q 103 44 154 -7 q 52 168 52 95 l 52 184 q 75 271 53 231 q 261 386 123 359 q 340 398 292 392 q 408 414 388 404 q 446 475 446 431 q 420 551 446 519 q 343 583 393 583 q 228 550 293 583 q 143 517 163 517 q 95 573 95 517 q 152 644 95 614 q 317 682 227 682 l 349 682 q 561 576 498 682 q 591 304 591 526 q 595 165 591 193 q 618 104 599 138 q 637 56 637 70 z "},"":{"ha":715,"x_min":50,"x_max":637,"o":"m 280 102 l 303 102 q 412 143 371 102 q 452 263 452 184 l 452 302 q 415 345 452 345 l 402 345 l 397 345 l 376 343 l 358 342 q 236 302 281 342 q 192 208 192 262 l 192 190 q 219 126 192 151 q 280 102 246 102 m 302 758 l 288 758 q 257 779 257 758 l 257 786 q 367 957 257 831 q 448 998 403 998 l 464 998 q 519 961 519 998 l 519 958 q 427 840 519 922 q 302 758 334 758 m 637 55 q 548 7 637 7 q 485 25 525 7 q 430 42 446 42 q 395 35 414 42 l 382 29 l 369 23 q 230 -5 307 -5 q 101 46 153 -5 q 50 170 50 97 l 50 186 q 134 336 50 280 q 235 379 182 368 q 337 396 288 389 q 406 412 385 403 q 441 467 441 428 q 411 550 441 523 q 338 577 381 577 q 229 545 294 577 q 142 513 163 513 q 96 570 96 513 q 168 646 96 614 q 319 678 239 678 l 335 678 q 548 587 486 678 q 581 497 573 550 q 589 319 589 445 q 594 163 589 193 q 618 102 598 134 q 637 55 637 71 z "},"":{"ha":716,"x_min":50,"x_max":640,"o":"m 287 98 l 300 98 q 427 152 378 98 q 454 258 454 183 l 454 283 q 408 334 454 334 l 387 334 l 382 333 l 365 332 l 342 330 l 325 329 q 232 293 273 329 q 191 201 191 256 l 191 192 q 220 121 191 144 q 287 98 250 98 m 508 763 l 492 763 q 398 831 460 763 l 342 888 q 278 828 338 888 q 181 769 219 769 q 144 788 144 769 q 269 961 144 824 q 342 998 303 998 l 348 998 q 412 966 383 998 q 543 785 543 823 q 508 763 543 763 m 640 53 q 550 5 640 5 q 487 22 525 5 q 436 39 450 39 q 358 16 422 39 q 252 -7 294 -7 l 236 -7 q 105 41 160 -7 q 50 172 50 89 l 50 188 q 69 264 50 227 q 263 386 114 356 q 340 398 292 391 q 410 414 389 404 q 446 474 446 431 q 418 550 446 518 q 342 581 391 581 q 229 549 294 581 q 140 516 163 516 q 95 574 95 516 q 163 648 95 614 q 320 682 231 682 l 336 682 q 551 591 492 682 q 592 315 592 526 q 597 163 592 193 q 621 102 602 133 q 640 53 640 71 z "},"":{"ha":715,"x_min":53,"x_max":638,"o":"m 291 102 l 313 102 q 410 139 368 102 q 452 219 452 177 l 454 228 q 454 236 454 232 l 455 257 l 455 281 q 412 338 455 338 l 395 338 l 391 337 l 382 337 l 359 335 l 355 334 l 342 334 l 316 331 q 229 297 268 331 q 190 212 190 262 l 190 193 q 217 129 190 157 q 291 102 245 102 m 243 944 l 254 944 l 260 943 q 354 913 290 943 q 440 884 417 884 q 493 907 463 884 q 541 930 524 930 q 566 904 566 930 l 566 899 q 525 816 566 851 q 447 781 483 781 l 431 781 q 335 812 398 781 q 250 844 272 844 q 194 820 229 844 q 146 796 159 796 q 119 821 119 796 l 119 832 q 161 908 119 873 q 243 944 203 944 m 638 58 q 553 7 638 7 q 487 24 531 7 q 427 41 442 41 q 385 29 412 41 q 324 5 357 17 q 241 -6 290 -6 q 104 44 156 -6 q 53 167 53 94 l 53 183 q 123 327 53 271 q 260 385 175 368 q 327 396 262 386 q 408 413 391 406 q 446 468 446 429 q 328 582 446 582 q 230 550 294 582 q 146 518 166 518 q 94 572 94 518 q 167 650 94 618 q 327 682 239 682 q 548 595 486 682 q 582 512 574 559 q 590 325 590 466 q 595 158 590 183 q 619 103 600 132 q 638 58 638 74 z "},"":{"ha":715,"x_min":50,"x_max":635,"o":"m 281 101 l 302 101 q 413 151 368 101 q 445 262 445 187 q 445 270 445 266 l 446 283 l 446 292 q 401 340 446 340 l 397 340 l 392 340 l 370 338 l 349 336 l 332 334 q 315 332 319 332 q 227 297 267 332 q 187 207 187 262 l 187 198 q 215 125 187 150 q 281 101 243 101 m 195 799 q 180 800 191 800 q 153 816 169 800 q 138 868 138 831 l 138 879 l 141 901 q 156 934 141 919 q 196 949 172 949 l 212 951 l 224 951 q 248 949 233 949 q 276 932 262 949 q 290 884 290 914 l 290 871 l 288 850 q 272 816 288 831 q 232 800 256 800 l 216 798 l 203 798 l 201 799 l 195 799 m 462 939 l 476 939 q 527 923 511 939 q 543 889 543 907 l 547 869 l 547 850 q 545 830 545 842 q 529 803 545 819 q 496 788 514 788 q 488 787 492 787 l 478 785 l 465 785 l 462 786 l 456 786 q 449 787 451 787 q 407 805 425 787 q 389 862 389 823 l 389 872 l 392 892 q 408 923 392 907 q 462 939 424 939 m 635 58 q 549 7 635 7 q 483 25 528 7 q 424 42 439 42 q 387 31 408 42 q 233 -6 310 -6 q 231 -5 232 -5 q 102 45 153 -5 q 50 168 50 95 l 50 184 q 121 328 50 273 q 258 386 174 369 q 333 398 275 389 q 406 414 391 408 q 444 475 444 431 q 417 551 444 519 q 341 583 390 583 q 227 551 292 583 q 142 519 163 519 q 92 573 92 519 q 148 644 92 615 q 319 683 225 683 q 582 496 557 683 q 587 325 587 455 q 592 165 587 195 q 616 104 596 136 q 635 58 635 73 z "},"":{"ha":719,"x_min":46,"x_max":640,"o":"m 268 901 q 287 854 268 873 q 315 835 305 836 q 327 834 326 834 l 336 833 l 347 833 l 363 836 q 389 851 370 836 q 408 885 408 866 l 410 897 l 410 911 l 410 913 l 410 918 q 408 931 408 924 q 390 957 408 939 q 356 975 372 975 l 344 977 l 332 977 l 315 974 q 290 959 308 974 q 271 928 271 945 l 268 910 l 268 901 m 282 96 l 304 96 q 422 155 377 96 q 450 264 450 189 l 450 302 q 412 335 450 335 l 404 335 l 399 334 l 365 332 q 338 328 341 328 q 234 293 280 328 q 189 197 189 257 l 189 192 q 212 123 189 151 q 282 96 236 96 m 329 1037 l 353 1037 q 366 1036 362 1036 q 447 995 411 1036 q 484 901 484 955 l 483 897 q 444 803 483 842 q 355 764 406 764 l 332 764 q 237 804 277 764 q 197 897 197 844 l 197 911 q 236 998 197 960 q 329 1037 275 1037 m 136 519 q 91 578 91 519 q 151 648 91 617 q 317 686 227 686 l 350 686 q 469 661 417 686 q 547 596 521 636 q 582 506 574 557 q 589 321 589 454 q 596 160 589 188 q 621 104 603 132 q 640 57 640 76 q 621 24 640 39 q 564 10 603 10 q 484 28 524 10 q 428 45 444 45 q 393 38 412 45 l 367 26 q 222 -3 296 -3 q 97 50 148 -3 q 46 166 46 102 q 64 267 46 229 q 260 390 106 356 q 292 396 281 395 l 339 402 q 408 418 391 410 q 443 480 443 435 q 415 555 443 524 q 340 585 388 585 q 225 552 292 585 q 136 519 159 519 z "},"":{"ha":1088,"x_min":59,"x_max":1012,"o":"m 380 334 q 345 331 347 331 q 237 290 284 331 q 206 215 206 262 l 206 193 q 235 127 206 150 q 303 105 264 105 l 326 105 q 430 140 390 105 q 469 226 469 176 l 469 297 q 424 336 469 336 l 406 336 l 402 335 l 393 335 l 389 334 l 380 334 m 793 387 q 863 432 863 387 l 863 445 q 861 465 861 457 q 824 548 861 515 q 738 581 786 581 l 729 581 q 628 538 671 581 q 585 425 585 495 l 583 416 l 583 403 q 642 377 583 377 l 646 377 l 650 378 l 773 385 q 793 387 785 387 m 959 142 q 991 103 991 142 q 920 30 991 65 q 765 -5 848 -5 l 741 -5 q 552 58 650 -5 q 507 81 518 81 q 453 53 496 80 q 264 -5 362 -5 q 263 -4 264 -4 q 112 47 165 -4 q 59 168 59 98 l 59 191 q 125 326 59 271 q 267 388 176 369 q 414 420 410 418 q 447 478 447 435 q 417 552 447 522 q 338 583 388 583 q 229 551 289 583 q 149 519 170 519 q 103 567 103 519 q 171 647 103 614 q 327 679 239 679 q 481 642 414 679 q 532 621 520 621 q 613 651 545 621 q 736 682 682 682 l 760 682 q 930 623 863 682 q 991 535 970 588 q 1012 443 1012 483 l 1012 420 q 966 340 1012 357 q 792 317 935 328 q 636 302 650 307 q 604 245 604 290 q 653 140 604 180 q 778 99 701 99 q 886 120 817 99 q 959 142 956 142 z "},"":{"ha":687,"x_min":58,"x_max":604,"o":"m 332 -308 l 319 -308 q 252 -267 252 -308 l 252 -262 q 288 -229 252 -229 q 346 -212 323 -229 q 369 -167 369 -194 q 341 -120 369 -140 q 313 -84 313 -100 q 326 -26 313 -52 q 85 158 145 -5 q 58 295 58 231 l 58 344 q 83 475 58 408 q 244 645 129 601 q 386 667 300 667 q 538 631 473 667 q 603 538 603 596 q 552 480 603 480 q 468 519 533 480 q 343 557 403 557 q 250 495 284 557 q 215 330 215 433 q 381 98 215 98 q 489 118 422 98 q 571 137 556 137 q 604 94 604 137 q 528 11 604 50 q 389 -28 457 -26 q 442 -90 392 -52 q 494 -182 494 -128 q 494 -183 494 -182 l 494 -194 q 443 -272 494 -237 q 332 -308 392 -308 z "},"":{"ha":711,"x_min":55,"x_max":637,"o":"m 454 408 q 500 439 500 408 l 500 461 q 464 561 500 521 q 374 602 428 602 l 351 602 q 248 554 290 602 q 205 438 205 507 l 205 426 q 245 402 205 402 l 265 400 l 313 400 l 317 401 l 446 407 q 454 408 450 408 m 242 1006 l 254 1006 q 339 961 299 1006 q 447 793 447 838 l 447 789 q 412 770 447 770 l 408 770 q 315 823 384 770 q 186 969 186 924 l 186 972 q 242 1006 186 1006 m 382 -9 l 351 -9 q 235 14 292 -9 q 55 323 55 85 l 55 340 q 76 477 56 410 q 227 656 115 604 q 359 686 290 686 l 390 686 q 563 621 494 686 q 617 540 596 590 q 637 439 637 490 q 589 345 637 363 q 413 323 551 330 q 249 309 276 317 q 208 261 208 298 q 260 142 208 187 q 392 98 312 98 q 508 118 434 98 q 587 138 583 138 q 617 102 617 138 q 545 28 617 65 q 382 -9 472 -9 z "},"":{"ha":711,"x_min":57,"x_max":635,"o":"m 435 407 q 455 408 439 408 q 495 467 495 408 l 495 471 l 494 475 q 494 484 494 479 l 493 500 q 456 574 493 541 q 374 607 419 607 l 355 607 q 251 560 298 607 q 204 433 204 513 l 204 420 q 268 396 204 396 l 277 396 l 281 397 l 339 400 q 360 402 353 402 l 435 407 m 319 765 l 305 765 q 276 783 276 765 l 276 790 q 384 958 276 819 q 467 1002 418 1002 l 482 1002 q 538 971 538 1002 l 538 961 q 443 849 538 934 q 319 765 348 765 m 376 -3 l 360 -3 q 356 -3 358 -3 q 241 18 296 -3 q 85 169 129 60 q 57 315 57 239 l 57 362 q 82 496 57 429 q 256 668 130 623 q 360 685 304 685 l 376 685 q 563 618 492 685 q 615 539 595 589 q 635 452 635 490 l 635 437 q 586 346 635 365 q 419 326 551 332 q 263 315 288 320 q 214 262 214 304 q 266 146 214 187 q 397 104 317 104 q 509 123 439 104 q 586 142 578 142 q 613 107 613 142 q 540 34 613 71 q 376 -3 467 -3 z "},"":{"ha":711,"x_min":54,"x_max":639,"o":"m 501 448 l 501 457 l 500 462 l 500 471 q 499 483 499 479 q 459 566 499 530 q 370 602 419 602 l 356 602 q 249 552 292 602 q 206 436 206 503 l 206 427 q 263 403 206 403 l 271 403 l 276 404 l 439 410 l 456 412 q 501 448 501 412 m 207 770 l 191 770 q 160 789 160 770 l 160 793 q 283 960 160 825 q 360 1001 321 1001 l 366 1001 q 437 962 404 1001 q 559 791 559 818 q 519 770 559 770 l 513 770 q 433 821 484 770 q 419 836 425 829 q 397 859 413 843 l 362 894 q 298 832 360 894 q 207 770 236 770 m 378 -12 l 361 -12 q 135 78 220 -12 q 76 181 97 119 q 54 311 54 244 l 54 359 q 80 498 54 433 q 377 687 156 687 q 556 628 486 687 q 616 544 593 597 q 639 448 639 492 l 639 433 q 589 341 639 361 q 404 320 538 320 q 239 305 270 320 q 208 256 208 290 q 261 140 208 182 q 397 97 315 97 q 509 117 437 97 q 591 137 582 137 q 618 100 618 137 q 545 26 618 64 q 378 -12 471 -12 z "},"":{"ha":710,"x_min":53,"x_max":636,"o":"m 495 448 l 495 460 q 459 563 495 522 q 359 603 423 603 l 355 603 l 351 602 q 245 554 288 602 q 202 436 202 506 l 202 432 q 241 406 202 406 l 260 404 l 269 404 l 273 404 l 351 407 q 467 415 439 407 q 495 448 495 424 m 155 882 l 156 905 q 172 932 156 916 q 212 948 188 948 l 228 950 l 241 950 q 288 935 273 950 q 304 898 304 919 l 306 888 l 306 883 l 307 875 l 307 872 l 306 869 q 306 864 306 867 l 302 844 q 250 799 302 799 l 238 797 l 217 797 q 197 800 203 800 q 157 844 157 800 l 154 864 l 154 880 l 155 882 m 409 877 l 410 898 q 427 926 410 909 q 475 943 444 943 l 499 943 q 519 939 513 939 q 563 890 563 939 l 565 874 l 565 859 q 551 815 565 833 q 516 798 536 798 l 503 795 l 488 793 l 479 793 l 458 796 q 411 844 411 796 q 410 852 410 850 l 408 865 l 408 875 l 409 877 m 616 100 q 538 24 616 60 q 378 -11 460 -11 q 80 166 152 -11 q 53 315 53 234 l 53 347 q 138 593 53 500 q 232 660 174 633 q 363 687 290 687 l 380 687 q 613 548 553 687 q 636 448 636 495 l 636 433 q 593 347 636 368 q 410 322 565 333 q 253 311 256 312 q 205 256 205 300 q 266 135 205 186 q 396 97 311 97 q 507 116 437 97 q 589 136 577 136 q 616 100 616 136 z "},"":{"ha":398,"x_min":22,"x_max":314,"o":"m 243 751 l 234 751 q 146 808 211 751 q 22 963 22 920 l 22 966 q 72 1000 22 1000 l 75 1000 q 159 958 123 1000 q 271 777 271 831 l 271 768 q 243 751 271 751 m 210 20 l 165 20 q 105 36 124 20 q 86 67 86 52 q 104 128 86 82 q 124 206 123 174 q 125 248 125 239 l 125 266 q 125 294 125 280 l 125 313 l 125 378 q 118 541 125 510 q 95 598 112 572 q 78 634 78 625 l 78 641 q 104 674 78 666 q 199 682 130 682 l 208 683 q 259 653 250 683 q 267 449 267 624 q 274 223 267 274 q 297 129 280 172 q 314 82 314 86 l 314 75 q 276 30 314 50 q 210 20 256 20 z "},"":{"ha":397,"x_min":83,"x_max":362,"o":"m 148 756 l 135 756 q 110 772 110 756 l 110 782 q 218 956 110 817 q 300 1003 255 1003 l 313 1003 q 362 966 362 1003 l 361 962 q 265 842 361 928 q 148 756 168 756 m 193 13 l 166 13 q 104 30 123 13 q 85 64 85 46 q 103 119 85 82 q 124 207 120 155 q 128 383 128 258 q 124 535 128 508 q 101 591 119 562 q 83 629 83 621 l 83 636 q 110 670 83 662 q 194 679 137 679 l 219 679 q 266 641 258 679 q 271 435 271 619 q 276 209 271 251 q 298 124 281 166 q 315 79 315 81 l 315 71 q 193 13 315 13 z "},"":{"ha":406,"x_min":1,"x_max":391,"o":"m 47 765 l 37 765 q 1 786 1 765 q 131 968 1 814 q 197 1000 159 1000 l 202 1000 q 256 977 232 1000 q 335 875 279 953 q 391 791 391 797 l 391 783 q 351 765 391 765 l 346 765 q 265 814 314 765 q 226 856 253 826 q 197 885 199 885 l 127 816 q 47 765 77 765 m 216 9 l 161 9 q 109 25 130 9 q 89 59 89 40 q 106 113 89 77 q 126 192 123 149 q 130 372 130 235 q 124 536 130 509 q 101 590 119 562 q 84 627 84 618 l 84 634 q 110 668 84 659 q 197 677 135 677 l 214 677 q 270 639 262 677 q 275 514 275 613 l 275 406 l 276 378 q 276 359 276 368 l 277 330 l 277 312 l 279 248 q 279 201 279 238 q 299 127 279 165 q 319 73 319 90 l 319 66 q 282 20 319 37 q 216 9 260 9 z "},"":{"ha":404,"x_min":-8,"x_max":397,"o":"m -7 869 l -5 890 q 12 928 -5 911 q 58 946 30 946 l 75 946 l 91 943 q 120 928 105 943 q 136 892 136 913 q 138 882 138 884 l 139 868 l 139 860 q 120 802 139 821 q 68 783 101 783 l 58 783 q 12 800 29 783 q -5 836 -5 817 l -6 842 l -8 863 l -8 866 l -7 869 m 244 875 l 246 896 q 264 933 246 918 q 301 947 281 947 l 316 949 l 332 949 q 377 935 359 949 q 395 894 395 921 q 396 886 396 888 l 397 876 l 397 870 l 396 867 q 380 815 396 831 q 345 799 363 799 q 334 797 338 797 l 321 795 l 311 795 l 308 796 l 303 796 q 287 798 298 798 q 260 814 276 798 q 243 870 243 830 l 243 873 l 244 875 m 195 10 l 168 10 q 110 26 128 10 q 91 60 91 42 q 108 115 91 77 q 129 200 125 153 q 132 379 132 247 q 127 537 132 511 q 103 592 121 563 q 85 629 85 621 l 85 637 q 112 670 85 662 q 196 679 138 679 l 222 679 q 264 646 256 679 q 271 519 271 624 l 271 407 l 271 378 l 271 322 l 272 304 l 272 276 l 275 222 q 282 161 275 180 q 302 118 289 142 q 315 82 315 93 l 315 67 q 278 21 315 39 q 195 10 255 10 z "},"":{"ha":780,"x_min":77,"x_max":696,"o":"m 386 566 l 366 566 q 260 501 300 566 q 221 323 221 435 l 221 293 q 263 137 221 200 q 375 74 305 74 l 389 74 q 502 142 460 74 q 545 327 545 210 l 545 349 q 543 372 543 364 q 502 510 543 454 q 386 566 461 566 m 574 872 q 567 834 567 851 q 606 742 567 817 q 696 378 696 566 q 617 93 696 189 q 383 -14 532 -14 q 155 72 234 -14 q 77 288 77 157 l 77 308 q 174 555 77 460 q 277 616 220 600 q 423 632 334 632 q 477 664 477 632 q 445 726 477 695 q 361 756 413 756 l 309 753 q 277 788 277 753 q 293 818 277 793 q 309 855 309 844 q 275 899 309 867 q 241 947 241 932 q 274 980 241 980 q 367 960 308 980 q 453 941 426 941 l 541 951 q 584 903 584 951 l 582 892 l 574 872 z "},"":{"ha":797,"x_min":72,"x_max":723,"o":"m 501 795 l 479 795 q 388 826 450 795 q 304 857 326 857 q 246 831 283 857 q 193 806 210 806 q 171 844 171 806 q 214 920 171 883 q 302 956 257 956 l 309 956 q 404 926 338 956 q 493 895 469 895 q 547 920 517 895 q 595 945 576 945 q 621 907 621 945 q 580 832 621 870 q 501 795 538 795 m 723 62 q 656 3 723 3 q 528 81 528 3 q 535 116 528 83 q 543 176 541 149 q 544 337 544 202 q 517 528 544 471 q 418 584 491 584 q 331 561 370 584 q 277 509 293 538 q 252 267 252 464 q 262 137 252 179 q 273 85 273 96 q 236 28 273 51 q 126 5 198 5 q 72 42 72 5 l 72 58 q 90 105 72 62 q 108 184 108 149 l 109 261 l 109 340 q 98 567 109 532 l 93 581 l 86 593 q 79 624 79 609 q 178 659 79 658 q 238 642 204 659 q 282 625 273 625 q 311 634 292 625 l 327 642 q 383 665 347 651 q 476 680 419 680 q 581 653 533 680 q 657 568 629 627 q 685 283 685 509 q 688 166 685 188 q 707 109 691 144 q 723 62 723 75 z "},"":{"ha":760,"x_min":61,"x_max":688,"o":"m 203 380 l 203 340 q 247 156 203 224 q 376 88 290 88 l 383 88 q 495 142 452 88 q 538 290 538 195 l 540 305 l 541 336 l 541 345 l 540 352 q 494 537 540 471 q 369 603 449 603 l 361 603 l 354 602 q 243 542 283 602 q 203 380 203 481 m 196 961 l 196 968 q 250 1003 196 1003 l 269 1003 q 349 961 317 1003 q 457 788 457 823 l 457 778 q 424 760 457 760 l 416 760 q 315 821 382 760 q 196 961 196 926 m 688 348 l 688 325 q 597 73 688 168 q 384 -14 515 -14 q 359 -13 372 -14 q 140 78 220 -13 q 61 326 61 169 l 61 349 q 81 479 61 414 q 228 657 118 604 q 351 687 290 687 l 397 687 q 518 659 458 686 q 667 489 631 607 q 688 348 688 419 z "},"":{"ha":760,"x_min":61,"x_max":688,"o":"m 357 98 l 378 98 q 452 118 417 98 q 542 362 542 171 l 542 370 q 500 544 542 481 q 382 607 458 607 l 368 607 q 249 547 293 607 q 205 397 205 487 l 203 382 l 203 359 l 203 320 q 245 159 203 220 q 357 98 287 98 m 330 753 l 315 753 q 286 772 286 753 l 286 779 q 399 957 286 828 q 482 998 435 998 l 493 998 q 548 960 548 998 q 426 812 548 921 q 330 753 359 753 m 61 313 l 61 349 q 85 494 61 429 q 247 665 131 619 q 374 688 304 688 l 385 687 q 507 664 448 687 q 669 479 628 616 q 688 349 688 418 l 688 336 l 687 325 q 512 14 687 96 q 382 -14 452 -14 l 359 -14 q 241 8 297 -14 q 85 174 130 52 q 61 313 61 241 z "},"":{"ha":762,"x_min":60,"x_max":690,"o":"m 359 95 l 389 95 q 504 160 465 95 q 543 330 543 224 l 543 368 q 494 542 543 481 q 380 603 445 603 l 358 603 q 245 539 289 603 q 202 370 202 476 l 202 331 q 203 309 203 316 q 247 158 203 221 q 359 95 290 95 m 569 785 q 531 763 569 763 q 433 823 493 763 q 371 882 374 882 q 343 856 369 882 q 299 814 317 830 q 207 762 243 762 q 171 783 171 762 q 299 958 171 819 q 372 995 333 995 l 378 995 q 441 964 413 995 q 569 785 569 825 m 690 347 l 690 324 q 666 180 690 245 q 509 10 620 56 q 372 -16 446 -16 l 360 -16 q 135 81 219 -16 q 79 189 99 123 q 60 324 60 254 l 60 336 l 60 348 q 138 589 60 494 q 233 660 174 633 q 351 688 292 688 l 397 688 q 518 661 458 688 q 668 489 627 610 q 690 347 690 424 z "},"":{"ha":760,"x_min":62,"x_max":689,"o":"m 367 97 l 389 97 q 503 158 460 97 q 545 328 545 220 l 545 374 q 543 396 543 389 q 497 542 543 479 q 366 605 451 605 l 359 604 q 243 543 286 604 q 201 367 201 481 l 201 351 q 246 163 201 229 q 367 97 292 97 m 274 944 l 291 944 q 384 914 320 944 q 471 884 448 884 q 522 908 493 884 q 570 932 551 932 q 595 905 595 932 l 595 899 q 553 815 595 851 q 466 780 511 780 l 460 781 q 363 810 423 781 q 279 840 304 840 q 222 816 254 840 q 173 791 191 791 q 148 819 148 791 l 148 824 q 188 904 148 865 q 274 944 227 944 m 689 361 l 689 326 q 603 77 689 167 q 372 -14 517 -14 l 360 -13 q 85 175 156 -13 q 62 315 62 238 l 62 350 q 139 591 62 497 q 234 661 174 633 q 363 689 295 689 l 387 689 q 510 665 451 689 q 661 511 621 618 q 689 361 689 437 z "},"":{"ha":758,"x_min":55,"x_max":684,"o":"m 359 91 l 380 91 q 485 145 441 91 q 528 294 528 199 l 529 309 l 530 332 l 530 371 q 486 542 530 479 q 372 606 442 606 l 350 606 q 237 540 275 606 q 198 357 198 474 l 198 349 q 240 157 198 224 q 359 91 281 91 m 168 874 q 238 949 168 949 l 254 949 q 299 936 282 949 q 317 900 317 922 q 318 892 318 896 l 319 882 l 319 864 q 304 818 319 837 q 264 799 289 799 q 256 798 258 798 l 243 796 l 235 796 l 215 799 q 170 848 170 799 l 168 859 l 168 874 m 416 869 l 418 891 q 433 920 418 902 q 473 938 448 938 q 481 939 478 939 l 492 941 l 508 941 l 528 937 q 571 887 571 937 l 573 873 l 573 852 q 555 803 573 821 q 513 785 538 785 q 505 784 508 784 l 494 783 l 492 783 l 489 784 l 484 784 l 468 786 q 431 805 446 786 q 416 854 416 823 l 416 867 l 416 869 m 347 688 l 393 688 q 514 661 454 688 q 665 479 627 608 q 684 349 684 418 l 684 337 l 683 326 q 663 193 683 258 q 505 13 624 62 q 378 -13 442 -13 l 355 -13 q 221 15 279 -13 q 129 85 163 43 q 74 192 94 127 q 55 326 55 256 l 55 338 l 56 349 q 76 484 56 422 q 214 653 115 602 q 347 688 280 688 z "},"":{"ha":756,"x_min":73,"x_max":677,"o":"m 291 635 l 291 648 q 294 675 294 662 q 314 704 294 688 q 370 720 334 720 l 379 720 q 436 704 420 720 q 453 669 453 687 l 456 648 l 456 631 q 454 612 454 625 q 437 582 454 599 q 396 565 420 565 l 385 563 l 380 563 l 371 562 l 368 562 q 291 635 291 562 m 111 357 q 73 391 73 357 l 73 404 l 73 411 q 102 455 73 450 q 380 458 119 458 l 625 458 q 677 431 677 458 l 677 404 q 647 360 677 365 q 369 358 634 358 l 348 358 l 320 357 l 111 357 m 293 159 l 293 180 q 295 202 295 189 q 315 232 295 216 q 376 249 334 249 l 378 249 l 381 248 l 397 247 q 412 246 400 246 q 440 230 423 246 q 456 180 456 213 l 456 159 q 454 139 454 153 q 438 110 454 126 q 401 94 422 94 q 391 92 394 92 l 376 91 l 366 91 q 293 159 293 91 z "},"":{"ha":771,"x_min":71,"x_max":680,"o":"m 460 548 l 460 557 q 444 585 460 570 q 391 600 427 600 l 363 600 q 248 536 292 600 q 203 355 203 472 l 203 331 l 204 325 l 204 313 q 205 296 205 301 q 230 192 205 241 q 240 182 235 182 q 310 270 249 182 q 416 448 372 359 q 460 548 460 536 m 298 109 l 298 100 q 347 71 298 71 l 356 71 q 482 153 431 71 q 532 349 532 235 q 534 367 534 361 l 535 389 l 535 432 l 532 462 q 521 499 532 499 q 470 408 515 499 q 361 219 425 317 q 298 109 298 121 m 163 -44 l 153 -44 q 119 -7 119 -44 l 130 61 l 93 176 q 71 315 71 243 l 71 329 q 168 598 71 502 q 276 665 216 646 q 422 684 337 684 l 479 682 q 543 700 506 682 q 589 718 580 718 l 598 718 q 634 682 634 718 l 623 614 q 652 521 623 609 q 680 359 680 433 l 680 345 q 592 85 680 181 q 342 -10 504 -10 l 271 -7 q 208 -26 245 -7 q 163 -44 172 -44 z "},"":{"ha":788,"x_min":59,"x_max":701,"o":"m 441 769 l 434 769 l 430 770 q 333 825 404 770 q 206 964 206 924 l 206 968 l 207 971 q 258 1006 207 1006 l 268 1006 q 355 960 315 1006 q 469 789 469 830 l 469 787 q 441 769 469 769 m 701 73 q 616 18 701 18 q 542 37 572 18 q 496 55 511 55 q 432 28 495 55 q 312 1 369 1 q 135 92 185 1 q 97 388 97 161 q 94 520 97 484 q 75 590 92 555 q 59 636 59 624 q 135 671 59 671 q 227 616 210 671 q 239 400 239 576 q 254 182 239 224 q 357 98 283 98 q 496 163 454 98 q 526 393 526 209 q 520 522 526 487 q 509 577 514 557 q 505 603 505 598 q 537 654 505 637 q 616 672 570 672 q 669 636 661 672 q 671 494 671 629 l 671 283 l 672 227 q 687 119 672 158 q 701 73 701 80 z "},"":{"ha":787,"x_min":60,"x_max":705,"o":"m 496 1005 l 507 1005 q 557 969 557 1005 l 557 966 q 457 848 557 926 q 333 770 357 770 l 330 770 l 326 770 l 322 770 q 296 788 296 770 l 296 794 q 412 961 296 827 q 496 1005 451 1005 m 705 66 q 610 18 705 18 q 540 37 570 18 q 505 56 509 56 q 433 28 501 56 q 308 1 365 1 q 202 25 250 1 q 131 98 155 50 q 97 397 97 166 q 94 532 97 511 q 76 590 92 554 q 60 628 60 626 l 60 643 q 134 672 60 672 q 225 627 208 672 q 242 399 242 583 q 258 176 242 216 q 366 99 290 99 q 368 99 367 99 q 506 179 465 99 q 526 363 526 217 q 514 556 526 509 q 503 612 503 603 q 538 659 503 644 q 619 674 574 674 q 671 629 665 674 q 671 449 671 625 q 674 210 671 274 q 690 113 676 146 q 705 66 705 79 z "},"":{"ha":787,"x_min":58,"x_max":705,"o":"m 229 774 l 218 774 q 182 794 182 774 q 311 968 182 829 q 382 1006 345 1006 l 388 1006 q 450 975 422 1006 q 582 795 582 831 q 547 774 582 774 l 531 774 q 438 843 501 774 q 422 860 431 851 q 410 872 414 868 q 395 888 406 877 q 382 900 383 900 q 319 837 382 900 q 229 774 256 774 m 705 64 q 617 9 705 9 q 544 29 574 9 q 496 48 513 48 q 433 20 495 48 q 311 -7 371 -7 q 132 85 184 -7 q 96 403 96 151 q 92 531 96 505 q 73 588 88 557 q 58 634 58 618 q 134 670 58 670 q 228 614 210 670 q 240 389 240 577 q 259 161 240 201 q 305 106 279 121 q 371 91 331 91 q 447 111 412 91 q 498 159 481 130 q 526 349 526 203 q 514 548 526 495 q 503 602 503 600 q 531 651 503 630 q 611 671 558 671 q 671 634 663 671 q 672 403 672 628 q 684 132 672 178 q 696 97 686 121 q 705 64 705 73 z "},"":{"ha":787,"x_min":55,"x_max":699,"o":"m 255 797 l 231 797 q 219 799 225 799 q 173 845 173 799 q 170 860 170 856 l 170 871 l 170 876 l 170 879 q 248 951 170 951 l 250 951 q 302 937 285 951 q 319 900 319 922 q 321 892 321 895 l 322 882 l 322 869 l 319 846 q 302 813 319 829 q 255 797 286 797 m 586 877 l 586 874 q 519 797 586 797 l 495 797 q 477 799 487 799 q 451 813 468 799 q 433 863 433 827 l 433 881 l 436 899 q 485 947 436 947 q 495 949 493 949 l 511 951 l 516 951 l 519 950 l 524 950 l 543 947 q 586 877 586 947 m 223 615 q 235 391 235 580 q 255 161 235 203 q 300 106 275 120 q 371 92 326 92 q 452 116 416 92 q 506 179 488 140 q 524 350 524 218 q 513 547 524 481 l 509 561 l 505 575 q 500 601 500 594 q 527 651 500 630 q 605 671 553 671 q 666 635 657 671 q 667 447 667 630 q 669 212 667 263 q 675 145 671 161 q 689 103 679 129 q 699 69 699 77 l 699 56 q 682 30 699 46 q 618 14 665 14 q 539 33 570 14 q 497 51 509 51 q 467 42 486 51 l 452 35 q 313 -4 377 -4 q 130 88 184 -4 q 93 405 93 153 q 89 531 93 501 q 70 591 85 560 q 55 635 55 623 q 130 671 55 671 q 223 615 205 671 z "},"":{"ha":726,"x_min":51,"x_max":664,"o":"m 325 758 l 314 758 q 285 779 285 758 l 285 783 q 406 966 285 830 q 474 1003 439 1003 l 485 1003 q 526 989 507 1003 q 545 962 545 975 l 545 959 q 443 849 545 939 q 325 758 341 758 m 505 612 q 589 675 505 675 l 608 675 q 664 627 664 675 q 639 551 664 606 q 589 418 614 497 q 416 -67 469 34 q 185 -264 313 -264 q 119 -243 143 -264 q 111 -217 111 -235 q 142 -178 111 -199 q 196 -160 151 -172 q 267 -123 241 -149 q 318 1 318 -72 q 258 140 318 34 q 176 299 199 245 q 51 616 51 585 q 73 658 51 646 q 135 670 94 670 q 227 627 204 670 q 247 538 235 614 q 305 323 259 462 q 373 185 351 185 q 392 201 380 185 q 467 377 429 248 q 505 612 505 507 z "},"":{"ha":788,"x_min":84,"x_max":712,"o":"m 386 79 l 400 79 q 516 145 473 79 q 559 330 559 212 l 559 361 q 517 535 559 474 q 410 596 475 596 l 403 595 q 297 557 336 595 q 258 456 258 518 q 257 435 257 442 l 256 398 l 256 273 q 275 126 256 155 q 386 79 307 79 m 273 -75 q 282 -124 273 -92 q 291 -188 291 -155 q 252 -243 291 -220 q 165 -267 214 -267 q 102 -255 117 -267 q 87 -225 87 -243 q 102 -161 88 -208 q 115 20 115 -115 l 117 58 l 118 153 l 118 211 l 119 250 q 119 530 119 250 q 107 857 119 812 q 94 895 103 871 q 84 932 84 918 q 162 964 84 964 l 178 964 q 243 921 225 964 q 257 800 254 894 q 266 684 260 707 q 299 652 273 652 q 361 666 311 652 q 459 681 412 681 q 556 659 506 681 q 691 500 653 618 q 712 366 712 435 l 712 345 q 686 196 712 266 q 513 19 635 60 q 408 1 475 6 q 307 -19 342 -4 q 273 -75 273 -33 z "},"":{"ha":732,"x_min":64,"x_max":665,"o":"m 305 852 q 237 781 305 781 l 218 781 q 161 827 161 781 q 159 837 159 833 l 157 853 l 157 865 l 159 886 q 206 937 159 937 l 220 939 l 239 939 l 258 936 q 301 897 301 936 q 304 884 304 889 l 305 865 l 305 852 m 416 861 l 416 866 q 433 921 416 905 q 469 937 449 937 q 476 939 474 939 l 486 940 l 507 940 q 550 926 532 940 q 567 890 567 913 q 568 882 568 886 l 570 872 l 570 859 l 566 836 q 518 790 566 790 q 508 788 510 788 l 494 787 l 484 787 l 462 790 q 432 805 447 790 q 416 861 416 821 m 64 617 q 158 662 64 662 q 240 612 222 662 q 249 572 244 601 l 251 556 q 285 412 258 499 q 376 181 353 181 q 459 331 410 181 q 509 602 509 480 q 587 669 509 669 l 606 669 q 665 625 665 669 q 641 547 665 599 q 594 417 617 494 q 432 -56 481 41 q 322 -209 382 -152 q 197 -265 262 -265 q 139 -251 157 -265 q 121 -227 121 -237 q 151 -182 121 -203 q 206 -164 161 -176 q 275 -128 250 -153 q 330 -5 330 -75 q 276 126 330 33 q 190 289 222 220 q 64 604 64 560 l 64 617 z "},"":{"ha":420,"x_min":93,"x_max":331,"o":"m 93 622 l 93 629 q 119 665 93 655 q 214 674 145 674 l 231 674 q 280 637 271 674 q 285 433 285 618 q 291 198 285 248 q 314 111 297 149 q 331 65 331 73 l 331 57 q 304 15 331 32 q 229 -2 278 -2 l 174 -2 q 121 14 142 -2 q 99 51 99 31 q 116 103 99 72 q 137 176 132 135 q 142 286 142 217 l 142 389 l 141 408 l 141 445 l 140 483 q 131 549 140 529 q 107 590 122 570 q 93 622 93 611 z "},"":{"ha":787,"x_min":62,"x_max":736,"o":"m 125 880 q 216 935 125 935 q 307 909 275 935 q 338 854 338 882 q 325 779 338 827 q 312 665 312 732 q 329 620 312 637 q 361 602 345 602 q 411 611 377 602 q 465 621 446 621 q 493 586 493 621 q 429 505 493 551 q 337 414 364 459 q 311 267 311 369 q 343 135 311 165 q 446 104 375 104 q 597 132 517 104 q 692 159 678 159 q 736 95 736 159 l 736 77 q 677 8 736 26 q 458 -2 644 -2 l 376 -2 q 178 7 214 -2 q 120 66 120 22 q 131 105 120 74 q 149 162 142 136 q 155 249 155 189 q 141 329 155 309 q 99 342 136 335 q 62 379 62 349 l 62 392 q 95 451 62 407 q 143 535 128 494 q 157 666 157 576 q 141 812 157 756 q 125 880 125 867 z "},"":{"ha":472,"x_min":55,"x_max":397,"o":"m 140 918 q 222 972 140 972 l 235 972 q 290 946 277 972 q 303 805 303 919 q 314 661 303 691 q 361 622 326 631 q 397 586 397 614 q 360 513 397 557 q 313 441 323 469 q 303 343 303 414 q 343 123 303 184 q 365 62 365 90 q 334 19 365 35 q 253 4 304 4 l 239 4 q 165 33 195 4 q 148 92 148 50 l 151 123 l 150 160 q 139 315 150 284 q 91 368 127 346 q 55 405 55 390 l 55 414 q 95 477 55 441 q 145 549 134 514 q 156 707 156 583 q 148 869 156 830 q 140 918 140 908 z "},"":{"ha":993,"x_min":86,"x_max":893,"o":"m 692 1220 l 692 1209 q 650 1149 692 1177 q 433 1025 465 1025 l 430 1025 q 406 1050 406 1025 l 406 1057 q 422 1097 406 1072 q 529 1206 464 1156 q 631 1257 595 1257 l 635 1257 q 674 1243 656 1257 q 692 1220 692 1229 m 258 688 q 241 556 241 688 q 257 220 241 317 q 273 109 273 122 q 232 46 273 73 q 139 19 191 19 q 86 64 86 19 q 103 112 86 75 q 126 210 120 150 q 132 468 132 270 q 130 722 132 667 q 123 796 127 778 q 106 846 119 814 q 94 893 94 878 q 167 926 94 926 q 311 854 239 926 q 531 569 336 829 q 732 309 726 309 q 747 521 747 309 q 734 794 747 732 q 724 828 733 800 q 715 869 715 857 q 734 898 715 882 q 798 913 753 913 q 861 899 842 913 q 893 826 893 876 q 874 758 893 808 q 850 655 855 708 q 845 353 845 602 q 842 83 845 103 q 804 43 835 43 q 680 124 750 43 q 580 262 643 168 l 532 334 q 465 433 482 408 q 258 688 286 688 z "},"":{"ha":802,"x_min":77,"x_max":727,"o":"m 362 770 l 351 770 q 323 792 323 770 l 323 802 q 441 974 323 842 q 528 1019 481 1019 l 532 1019 q 593 979 593 1019 l 592 976 q 514 878 592 948 q 362 770 394 770 m 165 24 q 77 86 77 24 q 89 144 77 113 q 103 206 101 175 q 106 361 106 237 l 104 418 l 111 582 l 109 612 q 148 636 109 636 q 235 612 187 636 q 294 589 282 589 q 377 620 305 589 q 493 650 450 650 l 510 650 q 599 624 559 650 q 655 552 638 598 q 683 360 673 506 q 696 197 694 215 q 713 148 699 180 q 727 96 727 115 q 633 35 727 35 q 565 59 584 35 q 557 111 557 69 q 517 465 557 338 q 404 557 488 557 q 285 477 319 557 q 250 180 250 398 q 252 132 250 162 l 252 117 q 254 79 254 98 q 234 42 254 60 q 165 24 215 24 z "},"":{"ha":1308,"x_min":78,"x_max":1192,"o":"m 227 483 l 227 427 q 295 189 227 286 q 471 91 363 91 l 491 91 q 610 144 583 91 q 636 337 636 197 q 637 368 637 357 l 639 411 q 639 433 639 422 l 640 476 q 640 498 640 487 l 641 530 l 641 552 q 613 809 641 758 q 477 860 585 860 q 294 752 370 860 q 247 642 267 714 q 227 483 227 570 m 1109 485 q 1038 416 1109 416 q 989 423 1027 416 q 908 429 952 429 q 833 404 865 429 q 802 286 802 379 q 829 151 802 192 q 951 110 855 110 l 1160 119 q 1192 102 1192 119 q 1111 26 1192 53 q 973 6 1052 6 q 830 13 894 6 q 731 20 766 20 q 631 14 696 20 l 605 11 l 578 7 q 495 1 519 1 l 467 1 q 177 127 282 1 q 102 274 127 189 q 78 446 78 359 l 78 476 q 107 669 79 578 q 314 913 163 846 q 503 948 392 948 q 623 939 527 948 q 763 930 718 930 l 787 932 q 969 943 884 943 q 1114 918 1055 943 q 1173 865 1173 894 q 1082 841 1173 841 l 1060 842 l 1036 843 q 959 844 1012 844 q 841 802 874 844 q 808 659 808 760 q 836 576 808 600 q 915 552 863 552 q 975 559 934 552 q 1043 566 1016 566 q 1089 548 1070 566 q 1109 485 1109 530 z "},"":{"ha":1160,"x_min":52,"x_max":1069,"o":"m 193 312 q 241 134 193 203 q 356 78 279 78 q 509 306 509 78 l 509 366 q 507 388 507 381 q 471 532 507 471 q 362 594 435 594 l 355 594 q 238 531 281 594 q 195 374 195 468 l 193 359 l 193 312 m 863 404 q 932 449 932 404 l 932 477 q 901 554 932 518 q 820 589 870 589 l 806 589 q 700 539 744 589 q 655 422 655 490 l 655 418 q 695 393 655 393 l 726 393 l 730 393 l 801 398 l 805 399 l 830 401 q 863 404 850 404 m 971 28 q 812 -3 906 -3 q 636 52 719 -3 q 584 77 597 77 q 532 53 570 77 q 473 20 494 28 q 345 -5 411 -5 q 130 83 211 -5 q 72 185 93 122 q 52 321 52 249 l 52 343 q 75 480 52 412 q 142 593 98 549 q 362 677 227 677 q 538 624 465 677 q 591 591 583 591 q 627 610 600 590 q 813 678 724 678 l 833 678 q 1005 611 941 678 q 1069 434 1069 543 q 1024 348 1069 372 q 871 319 995 332 q 715 297 747 307 q 673 248 673 285 q 723 146 673 186 q 846 105 773 105 q 955 126 883 105 q 1031 146 1027 146 q 1057 110 1057 146 q 971 28 1057 69 z "},"":{"ha":777,"x_min":70,"x_max":705,"o":"m 391 1029 l 380 1029 q 320 1059 347 1029 q 189 1225 189 1202 l 189 1230 q 226 1248 189 1248 l 231 1248 q 328 1191 266 1248 q 393 1133 391 1133 q 452 1191 395 1133 q 544 1248 509 1248 l 554 1248 q 588 1227 588 1248 q 462 1065 588 1192 q 391 1029 425 1029 m 705 256 q 680 146 705 198 q 530 17 635 54 q 392 -5 467 -5 l 368 -5 q 240 13 327 -5 q 133 43 153 31 q 91 87 113 55 q 70 159 70 120 q 112 225 70 225 q 178 184 132 225 q 399 101 274 101 q 516 139 473 101 q 559 245 559 178 q 484 366 559 313 q 329 439 456 385 q 159 532 203 492 q 80 714 80 602 q 162 893 80 827 q 378 959 245 959 l 401 959 q 595 928 530 959 q 642 886 620 916 q 664 817 664 856 q 618 753 664 753 q 558 788 602 753 q 471 840 515 823 q 366 856 427 856 q 263 823 305 856 q 221 728 221 789 q 286 621 221 667 q 444 549 307 606 q 628 446 582 492 q 690 356 675 399 q 705 256 705 313 z "},"":{"ha":633,"x_min":66,"x_max":570,"o":"m 473 995 l 488 995 q 514 979 514 995 l 514 975 q 463 899 514 971 q 379 795 411 827 q 313 763 347 763 q 245 798 278 763 q 123 960 123 932 l 123 964 q 161 986 123 986 q 250 940 200 986 q 287 902 256 935 q 320 869 317 869 l 354 905 q 391 944 385 938 q 473 995 446 995 m 316 690 q 540 586 540 690 q 497 530 540 530 q 461 545 487 530 l 436 560 q 315 599 374 599 q 229 576 255 599 q 203 518 203 553 q 245 454 203 482 q 366 406 265 441 q 511 333 467 371 q 570 198 570 281 q 508 58 570 115 q 320 1 446 1 l 302 1 q 126 33 187 1 q 66 117 66 64 q 78 159 66 142 q 107 177 90 177 q 204 124 108 177 q 317 94 259 94 q 436 186 435 94 q 381 260 436 227 q 261 310 350 278 q 132 375 172 342 q 73 508 73 425 q 139 640 73 591 q 316 690 205 690 z "},"":{"ha":829,"x_min":56,"x_max":782,"o":"m 275 1036 q 228 1082 228 1036 q 227 1089 227 1087 l 225 1100 l 225 1122 q 229 1144 229 1136 q 281 1193 229 1193 l 294 1193 l 296 1192 l 323 1192 l 332 1190 q 363 1149 363 1190 l 367 1128 l 367 1105 l 363 1084 q 347 1053 363 1069 q 304 1036 330 1036 l 298 1034 l 286 1034 q 275 1036 280 1036 m 585 1198 q 631 1154 631 1198 q 632 1146 632 1149 l 633 1136 l 633 1118 q 553 1049 633 1049 l 551 1050 l 541 1050 q 528 1052 530 1052 q 481 1112 481 1052 l 481 1132 l 484 1149 q 499 1182 484 1167 q 535 1198 515 1198 q 543 1199 541 1199 l 556 1200 l 569 1200 q 585 1198 577 1198 m 56 890 q 163 929 56 929 q 250 890 227 929 q 261 855 256 878 q 273 817 267 832 q 346 664 279 801 q 425 526 413 526 q 539 704 452 526 q 574 786 567 760 q 589 848 582 812 q 608 902 597 884 q 702 947 636 947 l 719 947 q 782 910 782 947 q 743 830 782 888 q 621 601 705 772 q 526 401 536 430 q 481 170 481 286 q 491 113 481 143 q 501 62 501 82 q 480 23 501 43 q 418 3 460 3 l 402 3 q 304 73 304 3 q 316 116 304 85 l 321 130 q 340 182 331 154 q 349 283 349 210 q 310 441 349 357 q 252 549 299 465 q 175 692 205 634 q 100 810 144 751 q 56 890 56 870 z "},"":{"ha":827,"x_min":79,"x_max":755,"o":"m 259 1252 l 274 1252 q 353 1206 303 1252 q 389 1167 359 1200 q 421 1135 419 1135 q 487 1193 424 1135 q 587 1251 549 1251 q 625 1228 625 1251 q 498 1067 625 1205 q 425 1027 462 1027 l 420 1027 q 355 1059 382 1027 q 224 1233 224 1213 q 259 1252 224 1252 m 79 76 q 299 464 79 148 q 519 805 519 781 q 488 836 519 829 q 373 844 457 844 q 251 834 288 844 q 181 813 214 825 q 131 802 147 802 q 86 861 86 802 q 146 941 86 920 q 328 950 174 950 l 448 950 l 473 949 q 578 949 497 949 q 694 937 660 949 q 729 879 729 926 q 511 508 729 832 q 292 149 292 183 q 423 115 292 115 q 649 147 553 115 q 714 163 695 163 q 755 111 755 163 q 712 35 755 59 q 559 12 669 12 l 512 10 l 441 9 l 370 9 l 229 12 q 103 26 127 12 q 79 76 79 39 z "},"":{"ha":664,"x_min":64,"x_max":596,"o":"m 172 1006 l 188 1006 q 277 942 218 1006 q 339 879 336 879 q 411 954 342 879 q 495 1002 455 1002 q 535 980 535 1002 q 408 810 535 949 q 335 772 372 772 q 268 806 297 772 q 139 984 139 959 q 172 1006 139 1006 m 112 553 q 75 603 75 553 q 113 669 75 652 q 241 680 136 680 l 330 680 q 549 669 511 680 q 578 633 578 661 q 421 370 578 591 q 264 127 264 148 q 343 102 264 102 q 452 110 421 102 q 515 128 482 117 q 560 138 549 138 q 596 90 596 138 q 557 20 596 41 q 465 6 531 6 l 430 6 l 412 7 l 288 7 q 99 11 121 7 q 64 43 64 17 q 224 318 64 102 q 385 564 385 535 q 314 582 385 582 q 220 577 243 582 q 163 562 196 572 q 112 553 130 553 z "},"":{"ha":610,"x_min":-22,"x_max":604,"o":"m 375 713 q 388 665 375 683 q 447 621 400 646 q 493 575 493 596 q 451 530 493 553 q 390 485 409 507 q 349 401 371 464 q 307 145 327 339 q 247 -128 287 -50 q 174 -211 220 -180 q 74 -241 127 -241 l 54 -241 q -7 -226 9 -241 q -22 -197 -22 -212 q 45 -138 -22 -156 q 137 -63 113 -119 q 169 81 152 -29 q 186 308 186 191 q 175 467 186 426 q 152 539 165 508 q 139 588 139 570 q 180 648 140 606 q 247 774 221 692 q 309 901 273 857 q 486 980 376 980 l 488 980 q 570 962 536 980 q 604 920 604 943 q 587 880 604 897 q 536 863 570 863 l 477 867 q 404 824 432 867 q 375 713 375 780 z "},"":{"ha":557,"x_min":81,"x_max":483,"o":"m 483 789 q 442 766 483 766 l 437 767 l 431 767 q 319 861 399 767 q 283 895 290 895 q 217 831 281 895 q 117 767 153 767 q 81 788 81 767 l 81 793 q 216 970 81 825 q 283 1005 248 1005 l 290 1005 q 356 970 323 1005 q 483 789 483 832 z "},"":{"ha":570,"x_min":85,"x_max":490,"o":"m 289 756 l 278 756 q 216 788 245 756 q 85 965 85 930 q 123 990 85 990 q 220 927 161 990 q 287 863 279 863 q 353 927 290 863 q 450 990 416 990 l 455 990 q 490 968 490 990 q 356 793 490 939 q 289 756 322 756 z "},"":{"ha":564,"x_min":83,"x_max":482,"o":"m 446 960 l 456 960 q 482 939 482 960 l 482 928 q 424 824 482 877 q 304 770 366 770 l 292 769 l 269 769 q 252 770 258 770 q 137 824 191 770 q 83 928 83 878 l 83 939 q 117 959 83 959 q 181 909 136 959 q 280 859 227 859 q 375 901 334 859 q 446 960 435 960 z "},"":{"ha":412,"x_min":118,"x_max":290,"o":"m 215 930 q 240 928 225 928 q 271 911 254 928 q 288 871 288 894 l 290 857 l 290 840 q 267 781 290 800 q 210 762 244 762 l 190 762 q 135 782 153 762 q 118 834 118 803 l 118 852 q 135 904 118 880 q 184 927 151 927 q 192 928 189 928 l 206 930 l 215 930 z "},"":{"ha":495,"x_min":100,"x_max":384,"o":"m 173 868 l 174 856 q 194 818 174 838 q 235 799 213 799 l 248 799 q 262 801 254 801 q 287 818 269 801 q 304 853 304 836 l 306 863 l 306 867 l 307 875 l 306 878 q 287 931 306 911 q 250 950 267 950 l 241 951 l 234 951 q 193 932 212 951 q 174 895 174 913 q 173 888 173 890 l 172 878 l 172 870 l 173 868 m 231 1010 l 255 1010 q 343 974 302 1010 q 384 881 384 938 l 384 872 q 343 781 384 821 q 241 741 303 741 l 236 741 q 138 778 175 741 q 100 861 100 815 l 100 883 q 142 972 100 935 q 231 1010 184 1010 z "},"":{"ha":474,"x_min":109,"x_max":369,"o":"m 369 -222 l 369 -227 q 334 -269 369 -252 q 254 -286 300 -286 l 249 -286 l 243 -286 q 143 -251 178 -286 q 109 -169 109 -216 l 109 -163 l 109 -158 q 166 -38 109 -100 q 264 24 223 24 l 270 24 l 275 24 q 302 9 302 24 q 279 -25 302 -1 q 220 -143 220 -90 q 300 -197 220 -197 l 334 -195 q 369 -222 369 -195 z "},"":{"ha":632,"x_min":81,"x_max":552,"o":"m 552 895 l 552 884 q 509 805 552 842 q 420 768 465 768 l 409 768 l 403 768 q 307 798 370 768 q 218 827 244 827 q 160 803 193 827 q 110 778 128 778 q 81 802 81 778 l 81 814 q 125 892 81 855 q 208 928 168 928 l 231 928 q 324 899 260 928 q 414 869 387 869 q 473 894 440 869 q 529 919 505 919 q 552 895 552 919 z "},"":{"ha":679,"x_min":83,"x_max":563,"o":"m 122 744 l 112 744 q 83 766 83 744 l 83 769 q 193 959 83 818 q 264 998 223 998 l 275 998 q 330 967 330 998 l 330 961 q 191 785 330 942 q 122 744 155 744 m 347 742 l 340 742 q 308 762 308 742 l 308 764 q 428 960 308 806 q 501 995 455 995 l 505 995 q 563 966 563 995 l 563 956 q 474 842 563 943 q 347 742 385 742 z "},"":{"ha":733,"x_min":73,"x_max":661,"o":"m 587 435 q 648 429 634 435 q 661 398 661 422 l 661 385 q 629 337 661 342 q 352 333 604 333 l 222 333 l 195 332 l 127 332 q 82 341 91 332 q 73 376 73 349 l 73 382 q 105 430 73 425 q 369 434 130 434 l 574 435 l 587 435 z "},"":{"ha":1093,"x_min":61,"x_max":1029,"o":"m 889 435 q 1011 428 994 435 q 1029 393 1029 421 l 1029 382 q 975 335 1029 340 q 530 332 947 332 l 349 332 l 307 332 l 138 332 q 77 338 93 332 q 61 373 61 345 l 61 383 q 114 431 61 425 q 559 433 140 433 l 868 435 l 889 435 z "},"":{"ha":344,"x_min":85,"x_max":254,"o":"m 254 729 l 254 720 q 231 675 254 691 q 176 659 208 659 l 171 659 q 103 687 121 659 q 85 773 85 715 l 86 778 q 129 930 86 863 q 218 998 172 998 l 222 998 q 249 969 249 998 q 227 923 249 962 q 205 852 205 883 q 230 803 205 844 q 254 729 254 762 z "},"":{"ha":341,"x_min":98,"x_max":269,"o":"m 98 677 l 98 684 q 122 734 98 696 q 146 801 146 772 q 124 849 146 808 q 102 924 102 889 q 176 995 102 995 l 195 995 q 249 974 231 995 q 267 920 267 954 l 269 911 l 269 882 q 222 733 269 812 q 128 654 176 654 l 124 654 q 98 677 98 654 z "},"":{"ha":340,"x_min":89,"x_max":258,"o":"m 89 -136 l 89 -130 l 117 -73 q 134 -20 134 -40 q 112 35 134 -1 q 91 107 91 71 q 170 180 91 180 q 171 180 170 180 l 180 180 q 240 159 221 180 q 258 91 258 138 l 258 71 q 212 -83 258 -3 q 120 -162 165 -162 l 116 -162 q 89 -136 89 -162 z "},"":{"ha":580,"x_min":77,"x_max":494,"o":"m 77 769 l 77 779 q 119 929 77 857 q 210 1001 161 1001 l 214 1001 q 241 968 241 1001 q 214 915 241 960 q 197 862 197 881 q 221 803 197 843 q 245 726 245 762 l 244 722 q 224 677 244 694 q 167 659 204 659 l 162 659 q 95 686 114 659 q 77 769 77 713 m 494 732 l 494 719 q 471 676 494 692 q 416 661 448 661 l 412 661 q 326 760 326 661 l 326 789 q 368 929 326 857 q 458 1000 410 1000 l 462 1000 q 490 968 490 1000 l 463 916 q 446 862 446 880 q 470 806 446 844 q 494 732 494 768 z "},"":{"ha":578,"x_min":89,"x_max":507,"o":"m 256 885 q 255 861 256 885 q 205 725 255 793 q 119 657 156 657 l 115 658 l 111 658 q 89 684 89 658 l 89 687 q 112 734 89 688 q 135 796 135 781 q 114 851 135 812 q 92 926 92 890 q 161 998 92 998 l 184 998 q 234 980 214 998 q 255 928 255 961 l 256 918 l 257 904 l 257 890 l 256 885 m 507 884 q 461 734 507 812 q 368 657 416 657 l 364 657 q 338 684 338 657 l 338 687 q 361 735 338 699 q 384 792 384 772 q 362 851 384 812 q 341 926 341 890 q 360 980 341 963 q 410 998 380 998 l 434 998 q 487 977 469 998 q 505 923 505 957 l 507 913 l 507 884 z "},"":{"ha":581,"x_min":82,"x_max":502,"o":"m 82 -139 l 82 -132 q 104 -87 82 -131 q 125 -26 125 -44 q 104 31 125 -8 q 83 105 83 70 q 103 159 83 140 q 159 177 123 177 l 168 177 l 173 176 q 227 158 207 176 q 247 106 247 140 l 248 96 l 248 63 l 245 30 q 201 -89 245 -14 q 116 -165 157 -165 l 104 -165 q 82 -139 82 -165 m 500 44 q 452 -90 500 -15 q 363 -164 405 -164 l 360 -164 q 333 -135 333 -164 q 355 -89 333 -132 q 376 -18 376 -45 q 355 31 376 -12 q 334 107 334 74 q 354 159 334 140 q 411 177 375 177 l 425 177 q 439 176 435 176 q 484 155 466 176 q 502 92 502 135 l 502 68 q 500 44 500 54 z "},"":{"ha":678,"x_min":81,"x_max":595,"o":"m 292 945 q 299 952 292 945 q 346 960 307 960 q 394 937 385 960 q 399 878 399 924 l 397 846 q 394 784 397 831 q 391 723 391 736 q 404 700 391 710 q 469 690 418 690 l 484 692 l 530 694 q 595 651 595 694 l 595 640 q 562 598 595 612 q 466 589 541 589 q 399 535 412 589 q 395 244 395 514 q 389 -55 395 -26 q 345 -98 381 -98 l 330 -98 q 286 -41 292 -98 q 282 255 282 -10 q 274 547 282 521 q 249 581 265 572 q 181 589 233 589 q 81 635 81 589 q 98 677 81 661 q 147 694 115 694 l 223 690 q 271 701 257 690 q 285 749 285 711 l 276 895 q 292 945 276 931 z "},"":{"ha":690,"x_min":90,"x_max":600,"o":"m 121 187 q 114 194 121 187 q 108 227 108 200 q 134 262 108 254 q 193 273 142 264 q 255 296 243 281 q 288 528 288 336 q 262 599 288 585 q 194 608 249 606 q 124 615 140 610 q 90 655 90 627 q 151 711 90 711 l 190 709 l 228 709 q 274 721 260 709 q 288 787 288 733 l 283 889 q 296 944 283 926 q 345 961 309 961 l 365 961 q 405 893 405 961 l 401 770 q 425 715 401 725 q 503 710 436 710 q 585 701 570 710 q 600 661 600 691 q 567 617 600 631 q 491 607 551 610 q 417 591 431 604 q 403 492 403 577 q 433 297 403 341 q 514 271 443 282 q 585 233 585 260 q 557 182 585 199 q 489 165 545 174 q 415 146 433 157 q 398 85 398 135 l 399 64 l 403 22 q 406 -47 406 -20 q 345 -112 406 -112 q 295 -98 305 -112 q 286 -42 286 -83 l 292 104 q 261 153 292 139 q 191 166 248 158 q 121 187 134 174 z "},"":{"ha":589,"x_min":121,"x_max":466,"o":"m 298 269 l 275 269 q 164 316 208 269 q 121 430 121 363 l 121 448 q 173 564 121 517 q 295 612 225 612 l 307 612 q 323 610 317 610 q 421 565 376 610 q 466 460 466 520 l 466 432 q 415 315 466 362 q 298 269 364 269 z "},"":{"ha":1008,"x_min":68,"x_max":910,"o":"m 165 176 q 243 102 243 176 l 243 81 q 241 66 241 73 q 217 20 241 37 q 163 3 193 3 l 140 3 q 68 89 68 3 q 85 149 68 125 q 130 172 102 172 q 139 174 138 174 l 153 176 l 165 176 m 402 77 l 402 98 q 422 154 402 134 q 472 174 442 174 q 481 175 479 175 l 493 176 l 508 174 l 519 173 q 558 155 540 173 q 576 102 576 136 l 576 81 q 574 66 574 73 q 552 21 574 40 q 491 3 530 3 l 482 3 l 459 5 q 419 26 436 5 q 402 77 402 46 m 735 85 l 735 92 q 821 176 735 176 l 829 176 l 852 173 q 890 156 873 173 q 907 119 907 139 l 909 111 l 910 96 l 910 84 l 907 61 q 886 22 907 39 q 840 5 865 5 q 831 3 834 3 l 819 3 l 816 3 l 793 5 q 752 26 769 5 q 735 85 735 46 z "},"":{"ha":1526,"x_min":50,"x_max":1425,"o":"m 320 715 q 298 818 320 774 q 239 861 277 861 l 224 861 q 166 823 193 861 q 139 735 139 785 l 138 726 l 137 707 l 137 682 l 138 677 l 138 669 q 139 655 139 659 q 164 576 139 612 q 227 540 190 540 q 284 567 263 540 q 317 659 317 609 q 319 676 319 671 l 320 701 l 320 715 m 838 235 l 838 274 q 812 373 838 334 q 753 411 787 411 l 741 411 q 681 372 708 411 q 654 283 654 333 q 652 269 652 274 l 651 245 l 651 226 q 676 120 651 156 q 737 83 702 83 l 741 83 q 808 125 779 83 q 838 235 838 168 m 1193 78 l 1201 78 q 1271 121 1240 78 q 1301 243 1301 165 l 1301 272 l 1300 286 l 1299 304 q 1277 372 1299 340 q 1226 404 1255 404 l 1210 404 q 1143 359 1171 404 q 1114 244 1114 315 l 1114 205 q 1138 111 1114 144 q 1193 78 1161 78 m 450 715 l 450 684 q 393 516 450 582 q 250 450 336 450 l 243 450 l 236 451 q 104 509 158 451 q 50 661 50 568 l 50 699 q 106 859 50 793 q 251 925 163 925 l 258 925 l 265 924 q 396 867 342 924 q 450 715 450 809 m 679 863 q 770 935 728 935 q 812 918 812 935 l 812 909 q 779 839 812 897 q 315 81 523 387 q 217 -2 259 -2 q 176 16 176 -2 l 176 25 q 210 95 176 37 q 679 863 537 654 m 957 235 q 901 66 957 131 q 768 1 844 1 l 739 1 q 609 63 659 1 q 559 223 559 126 l 559 238 q 616 407 559 341 q 758 473 673 473 l 772 473 l 779 472 q 905 414 854 472 q 956 273 956 355 l 957 258 l 957 235 m 1425 264 l 1425 226 q 1368 66 1425 132 q 1225 1 1311 1 l 1211 1 q 1078 62 1127 1 q 1028 218 1028 124 l 1028 240 q 1082 405 1028 337 q 1217 473 1137 473 l 1240 473 q 1371 415 1317 473 q 1425 264 1425 357 z "},"":{"ha":511,"x_min":75,"x_max":410,"o":"m 75 372 q 212 526 75 390 q 379 663 348 663 q 410 630 410 663 l 410 624 q 312 485 410 596 q 213 368 213 374 q 263 309 213 362 q 323 244 313 256 q 410 114 410 147 q 378 81 410 81 l 372 81 q 217 207 358 81 q 75 365 75 334 l 75 372 z "},"":{"ha":512,"x_min":104,"x_max":435,"o":"m 138 80 q 106 113 106 80 q 205 258 106 146 q 304 375 304 370 q 204 487 304 376 q 104 632 104 599 q 132 665 104 665 l 139 665 q 298 534 160 665 q 435 378 435 404 q 299 217 435 353 q 138 80 162 80 z "},"":{"ha":494,"x_min":-66,"x_max":551,"o":"m 65 52 q 42 13 65 52 q -24 -26 18 -26 q -66 -8 -66 -26 l -66 1 q -31 74 -66 7 q 431 905 279 659 q 494 964 467 964 l 506 964 q 551 946 551 964 l 551 937 q 520 873 551 929 q 65 52 113 130 z "},"":{"ha":878,"x_min":63,"x_max":758,"o":"m 568 373 q 491 323 568 346 q 406 295 415 300 q 373 249 373 276 q 443 152 373 190 q 570 123 496 123 q 655 134 601 123 q 727 144 709 144 q 757 117 757 144 q 680 32 757 69 q 522 -5 602 -5 q 275 78 366 -5 q 188 203 231 118 q 104 321 145 289 q 63 375 63 353 q 101 413 63 397 q 139 452 139 430 q 114 503 139 488 q 72 548 72 529 q 121 608 72 566 q 196 717 149 632 q 296 846 243 802 q 545 931 399 931 q 699 901 640 931 q 758 821 758 871 q 705 779 758 779 q 646 791 699 779 q 540 803 593 803 q 434 765 486 803 q 382 688 382 728 q 422 627 382 649 q 515 597 446 614 q 585 560 585 581 q 434 507 585 513 q 335 494 355 503 q 314 453 314 484 q 441 413 314 422 q 568 373 568 405 z "},"":{"ha":1139,"x_min":66,"x_max":1043,"o":"m 448 913 l 448 897 q 425 869 448 869 q 394 877 421 869 q 347 884 366 884 q 308 852 315 884 q 304 760 304 833 l 304 633 l 304 605 q 316 558 304 588 q 327 518 327 529 q 264 486 327 486 l 245 486 q 186 531 186 486 q 198 559 186 532 q 210 625 210 586 l 210 716 q 202 860 210 836 q 170 883 195 883 q 120 875 146 883 q 87 867 94 867 q 66 894 66 867 l 66 903 q 92 954 66 947 q 267 958 104 958 l 406 958 q 448 913 448 958 m 559 504 l 546 504 q 510 528 510 504 l 510 541 q 518 563 510 544 q 527 588 526 582 q 528 644 528 595 l 528 710 l 529 728 q 530 765 530 747 l 531 801 l 531 837 q 526 893 531 866 q 521 924 521 920 q 570 945 521 945 q 642 920 620 945 q 720 783 664 895 q 781 671 776 671 q 838 782 783 671 q 907 913 892 893 q 982 947 935 947 q 1030 916 1030 947 l 1029 904 l 1025 874 q 1023 823 1023 842 l 1024 805 q 1024 768 1024 787 l 1025 750 l 1025 625 q 1035 570 1026 595 q 1043 543 1043 545 q 984 505 1043 505 q 946 525 957 505 q 935 603 935 545 q 918 786 935 786 q 864 679 907 786 q 815 560 821 572 q 770 519 795 519 q 733 540 745 519 q 674 677 722 560 q 618 793 627 793 q 603 585 603 793 l 604 570 l 605 544 q 559 504 605 504 z "},"":{"ha":709,"x_min":74,"x_max":635,"o":"m 155 353 q 89 359 103 353 q 74 393 74 366 l 74 399 q 111 453 74 447 q 365 456 132 456 l 437 457 l 580 457 q 635 418 635 457 l 635 406 q 599 357 635 364 q 345 355 583 355 l 306 355 l 286 354 l 195 354 l 175 353 l 155 353 z "}}}
